<svg width="40" height="40" viewBox="0 0 40 40" fill="none" xmlns="http://www.w3.org/2000/svg">
<path d="M33.2451 39.4866C33.006 40.0141 32.6962 39.9954 32.2977 39.9895L30.4417 39.9893C29.3321 40.0036 29.0385 39.5572 29.4358 38.0896L29.7438 37.0047C30.0113 36.0622 30.3695 34.6559 30.4842 33.6469C30.6852 31.8793 30.0246 29.8874 29.2472 28.5024C28.321 26.852 27.2704 25.6575 25.6564 25.653C24.8721 25.6508 24.1072 25.8033 23.3272 25.8609L19.7401 25.8839C19.5133 25.8806 19.2734 25.8869 19.049 25.8414L17.1635 25.6404C16.7338 26.033 16.5646 29.1732 16.6065 29.8322L16.6944 30.742C16.8795 33.3332 16.3812 33.7297 15.9722 36.0453L15.6585 38.1754C15.4347 40.1715 15.4515 39.9847 14.0514 39.9851L11.0576 39.9834C10.8171 39.9829 10.4531 40.0458 10.233 39.93L10.2026 39.9124C9.66928 39.6125 9.69243 39.0894 9.85279 38.4857L9.99053 37.9012C10.4366 35.8165 10.9791 33.8426 10.4314 31.6604C10.1561 30.5633 9.57383 29.7276 9.2619 28.6551C9.07091 27.9988 8.93708 27.2999 8.81901 26.6142C8.56006 25.1095 8.33714 24.2871 7.73223 22.9689L7.09705 21.6449C6.29446 19.868 5.65379 17.7992 5.58009 15.7126C4.99677 15.4531 3.68837 14.611 3.66114 13.6119C3.64147 12.8897 4.10203 12.2021 4.43258 11.6977C4.36741 11.435 3.62833 8.47678 3.62712 8.47549C3.59832 8.44464 3.55498 8.49547 3.51879 8.50436C2.09206 8.85657 1.02478 7.97357 0.279348 6.3956C0.18642 6.19893 0.0661699 5.95971 0.0261445 5.72996C-0.00866006 5.5313 -0.0107483 3.77231 0.0322354 3.67263C0.841443 3.18018 1.64212 3.21442 2.51015 3.21138C2.1286 2.38751 1.20115 0.479525 2.35353 0.0099782C2.97114 -0.0784854 3.01777 0.435937 3.38053 0.971744C3.62172 1.32817 4.5256 2.17564 4.90027 1.90791L5.22134 1.69488C6.50102 0.925349 7.86954 1.00703 9.12642 1.77049L9.57566 2.05037C10 2.29531 10.9821 1.56423 11.2947 1.22428C11.6275 0.862595 11.837 0.147991 12.2799 0.0331164C12.6125 -0.0531268 12.984 0.182232 13.0391 0.662413C13.1177 1.34815 12.8641 1.84072 12.5999 2.39511L12.1448 3.31889C12.2643 3.34554 12.4049 3.32672 12.5267 3.32777C13.9218 3.34004 14.6732 3.6634 14.2217 5.83023C14.1986 5.94113 14.1902 6.06267 14.1419 6.16036L14.1174 6.20699C14.7595 6.26203 15.4199 6.22288 16.0636 6.22335L26.8693 6.26694C27.1742 6.27126 27.4716 6.33308 27.7759 6.33507L31.7421 6.34909C33.0255 6.41933 34.4363 6.80462 35.2897 8.20239C35.4074 8.39497 35.3684 8.42641 35.5523 8.43494L35.8698 8.45422C37.2691 8.58534 38.4332 10.2665 38.8075 11.991C38.9648 12.7156 39.0115 13.4584 39.0128 14.2088L39.0137 15.7562C39.0158 18.3387 39.7974 17.4262 39.9636 18.2696C40.2838 19.894 38.403 19.9252 37.8538 17.7832C37.1916 15.2005 38.3964 12.3996 36.3342 10.4927C36.5616 12.5204 36.4352 13.6572 36.0368 15.6081L35.4202 18.6716L34.6274 24.2688C34.3892 26.2649 34.3776 25.9568 34.8311 27.9327C35.3041 29.9934 34.8781 31.1017 34.3819 32.9952L33.9312 34.9722C33.714 35.8973 33.3787 36.8929 33.3185 37.8691C33.2873 38.3743 33.3945 39.0202 33.245 39.4866H33.2451ZM6.84245 3.02452C5.22099 3.26338 4.56005 4.71024 4.73817 6.81618C4.81456 7.7187 5.5291 10.6902 5.92396 11.5788C6.4201 11.4283 6.87761 11.3087 7.39071 11.378L8.18487 11.6197C8.43198 11.1444 8.57694 10.5596 8.73913 10.0245C9.31315 8.13122 10.2433 4.9761 8.61758 3.50786C8.09055 3.03188 7.45763 2.97228 6.84245 3.02452ZM1.3254 5.06047C1.7783 6.23842 2.29375 6.78416 3.25331 6.79258L3.2762 5.18317C3.01847 5.09658 1.68049 5.05474 1.3254 5.06047ZM11.0571 5.14356L10.9353 5.18504C10.8507 5.34865 10.8809 6.38707 10.8928 6.61822C11.4311 6.6056 11.8935 6.64428 12.3185 6.126C12.5211 5.82555 12.692 5.49916 12.8519 5.15618L11.0571 5.14356ZM15.8392 8.05327L14.4306 8.09733C14.2872 8.23347 14.1587 8.57506 14.0523 8.77244C13.405 9.97341 12.7209 11.2604 12.5258 12.7542C12.3006 14.4783 12.8278 15.3801 12.1434 17.2072C11.4163 19.1479 10.1941 20.5466 8.8954 21.7762L8.8351 21.832C9.07769 22.3596 9.33316 22.8705 9.52989 23.4338L9.81381 24.3578C9.84975 24.4841 9.87628 24.6565 9.93354 24.7653C11.7701 24.8665 14.4276 25.0911 14.3004 28.3883C14.2812 28.8864 14.2061 29.3821 14.2249 29.8827C14.2437 30.3782 14.3154 30.8643 14.3582 31.356C14.521 33.2263 14.2179 34.3764 13.8779 36.1611L13.6104 37.5263C13.4807 38.2382 13.3934 38.225 13.7788 38.227L14.2949 38.2291C14.3713 37.0148 14.5639 35.7756 14.8515 34.6197C15.1955 33.2372 15.492 32.5231 15.3418 31.0176C15.302 30.6184 15.2358 30.2222 15.2189 29.8198C15.1589 28.3889 15.3537 25.2354 16.2127 24.2661C16.6666 23.7539 17.3537 23.8063 17.9091 23.8721C19.4932 24.0598 21.0915 24.1198 22.683 24.0437L25.5707 23.8103C27.1628 23.7887 28.0771 24.2212 29.1834 25.6767C31.9643 29.3353 32.4859 32.528 31.1906 37.2207L30.898 38.2013L31.9437 38.1695C32.0138 36.9967 32.2645 35.9864 32.5103 34.8632L33.0153 32.6446C33.4797 30.9125 33.9495 29.984 33.4059 28.1413C32.8548 26.2729 33.1028 25.4027 33.3319 23.4337L34.2163 17.5904L34.6575 15.3815C35.0304 13.6355 35.4311 11.6519 34.5922 10.0241C33.8395 8.56372 32.7517 8.18264 31.5195 8.17329L29.7584 8.16791C29.5771 8.15845 29.399 8.09745 29.2143 8.0895L17.9744 8.0791L18.0989 8.91255C18.264 9.83528 18.5295 10.8989 19.0284 11.594C19.6566 12.4691 20.573 12.7915 21.1284 13.81C21.7189 14.8929 21.6369 15.6135 21.9829 16.533C22.4647 17.8133 23.7487 18.2261 24.7152 17.9086C25.7675 17.5629 25.9069 16.6857 26.5134 15.7924C27.4217 14.4548 28.6167 14.8857 29.6181 15.6892C30.7507 16.598 31.5192 18.1703 31.8354 19.8732C32.642 24.2165 30.5842 23.5074 30.5357 22.5459C30.5076 21.9885 30.6369 21.4255 30.5592 20.7075C30.3853 19.1006 29.1791 16.712 27.8047 16.8073C27.4254 16.8336 26.6583 19.5075 24.554 19.8048C23.5112 19.9522 22.43 19.7739 21.593 18.8576C20.3143 17.4578 20.7235 16.3102 20.0371 14.97C19.7323 14.3752 19.2366 14.1535 18.7973 13.7901C17.4318 12.6607 16.7671 10.3696 16.6107 8.29225C16.6047 8.21232 16.6069 8.14361 16.5789 8.07162L15.8392 8.05327ZM12.6297 8.08377C11.823 8.4402 11.3666 8.51522 10.5364 8.51207C10.4844 8.68011 10.4789 8.86101 10.4454 9.03642L10.1866 10.1887C10.0308 10.7824 9.59202 11.7795 9.58166 12.383C9.77666 12.8138 10.0825 13.1373 9.98818 13.7016C9.84688 14.5475 8.89166 15.4335 8.2557 15.5888C8.09777 15.6274 7.92218 15.6115 7.76199 15.6122L6.93121 15.6131C6.98185 16.8066 7.24123 17.8436 7.58075 18.9383C7.73798 19.4074 7.89982 19.8602 8.12457 20.2794C9.16349 19.2506 10.2462 18.0625 10.8613 16.5045C11.1346 15.8121 11.119 15.4471 11.1168 14.6852C11.1092 12.031 11.1286 11.1688 12.3773 8.79569C12.4194 8.71576 12.8767 8.01284 12.6297 8.08377ZM7.20494 12.9811C6.86438 13.1234 6.44742 13.7647 6.13166 13.5458C4.85389 12.6599 4.97945 13.8532 6.04264 13.9102L7.20425 13.8804C7.67063 13.8727 7.97543 13.8525 8.39709 13.5428C8.01224 13.3891 7.59998 12.9535 7.20494 12.9811ZM10.1456 26.5958C10.3749 27.6213 10.7465 28.4631 11.1628 29.4015C12.1871 31.7105 12.1531 33.3009 11.8788 35.8573C11.8205 36.4007 12.1502 36.5353 12.0525 36.8859C11.9287 37.3303 11.3529 36.9213 11.3345 38.0885L11.9073 38.1431L12.004 37.8466L12.7389 34.8868C12.9479 33.9102 13.0711 33.0393 13.041 32.0239C13.0194 31.2938 12.8615 30.5919 12.8488 29.8577C12.8392 29.3045 12.9978 28.249 12.8757 27.7818L12.8661 27.7445C12.6027 26.7903 10.7572 26.604 10.1582 26.5713L10.1456 26.5958Z" fill="white"/>
</svg>
