<svg width="42" height="40" viewBox="0 0 42 40" fill="none" xmlns="http://www.w3.org/2000/svg">
<path d="M9.29895 14.1543C7.55484 15.0802 6.83892 17.3484 6.04969 19.0228C5.54103 18.2181 4.23951 17.5746 3.6856 17.5393C2.5995 17.2769 0.378415 18.3231 1.07805 19.898C1.97499 21.7444 5.71118 21.8032 6.78914 20.441C7.22087 19.8853 7.63178 18.7757 8.00196 17.972C7.5295 24.0885 3.75801 22.5689 3.92907 31.8198C3.92907 31.9998 4.00059 32.1725 4.12789 32.2998C4.25519 32.4271 4.42785 32.4986 4.60788 32.4986H8.07798C8.25013 32.4985 8.41582 32.433 8.54151 32.3154C8.66721 32.1978 8.74351 32.0368 8.75499 31.865C8.86994 30.1725 9.47906 27.5641 10.4348 27.3125C11.2069 27.1794 12.0359 27.0409 12.8885 26.907C13.0695 33.3729 11.6042 32.4488 16.7225 32.4977C18.4838 32.4126 15.6717 29.0176 18.024 26.4526C19.454 26.4689 20.7392 26.6635 21.7023 27.1586C22.3847 29.1154 22.7187 31.865 22.7223 31.8994C22.742 32.0644 22.8215 32.2164 22.9458 32.3266C23.0701 32.4369 23.2304 32.4978 23.3966 32.4977C29.1267 32.5927 26.9427 32.6018 25.9734 27.898C26.8907 27.8895 27.8042 27.7762 28.6959 27.5604C31.2029 33.2236 29.3222 32.4714 33.9671 32.4968C34.0746 32.4958 34.1803 32.4694 34.2757 32.4198C34.3711 32.3702 34.4535 32.2989 34.5161 32.2115C34.5787 32.1241 34.6198 32.0231 34.6361 31.9169C34.6523 31.8106 34.6433 31.702 34.6097 31.5998L32.4194 25.1448C33.4421 23.7536 33.5616 21.7 34.4757 20.479C35.0532 19.8835 37.3675 22.3716 38.2771 21.9561C40.2276 21.2529 41.4938 17.6615 40.8602 16.9546C40.2601 16.0414 39.5542 15.101 38.9387 13.8203C41.4168 11.1666 40.4719 9.04419 39.203 7.71099C39.1416 7.6464 39.068 7.59453 38.9865 7.55837C38.905 7.5222 38.8172 7.50244 38.728 7.50021C38.6389 7.49798 38.5502 7.51333 38.467 7.54539C38.3838 7.57744 38.3078 7.62556 38.2432 7.68701C38.1786 7.74846 38.1267 7.82203 38.0905 7.90352C38.0544 7.98502 38.0346 8.07283 38.0324 8.16196C38.0301 8.25109 38.0455 8.33979 38.0775 8.42299C38.1096 8.50618 38.1577 8.58225 38.2192 8.64685C39.0156 9.48315 39.6972 10.638 38.4056 12.3514C37.9811 11.1621 36.8163 10.3312 35.9664 9.86238C36.3284 9.40984 37.7042 9.07405 37.467 8.22689C37.4219 8.0838 37.3306 7.95968 37.2075 7.87389C37.0844 7.7881 36.9363 7.74546 36.7864 7.75263C34.6034 7.86124 32.957 8.5491 31.8872 9.48677C27.111 7.52002 23.5776 12.1477 19.1255 12.994C16.5623 13.4348 11.2838 13.1406 9.29895 14.1543ZM3.5969 20.0102C1.85099 19.8174 1.67178 18.6019 3.3661 18.6969C4.33364 18.8427 4.88575 19.3613 5.00793 19.9423C4.54321 20.0418 4.06538 20.0647 3.59328 20.0102H3.5969ZM14.2235 31.1428C14.19 30.3282 14.276 27.6129 14.2471 26.7178C14.9467 26.6273 15.6499 26.5549 16.3396 26.5078C15.6635 27.7623 15.4925 29.3661 15.8572 31.1428H14.2235ZM31.574 31.1428L29.9892 27.1369C30.4904 26.9277 30.9594 26.6486 31.3822 26.3078L33.0222 31.1428H31.574ZM9.94789 15.3472C11.8124 14.5109 16.9705 14.7707 19.3472 14.3326C23.1938 13.8954 27.0178 9.31119 30.9323 10.6218C29.6562 12.727 30.8663 15.1535 33.5643 15.4088C33.6539 15.4216 33.7451 15.4163 33.8326 15.3934C33.9201 15.3704 34.0021 15.3302 34.0739 15.2752C34.1456 15.2201 34.2056 15.1512 34.2504 15.0726C34.2951 14.9939 34.3237 14.9072 34.3344 14.8173C34.3452 14.7275 34.3378 14.6365 34.3129 14.5495C34.2879 14.4626 34.2458 14.3815 34.1891 14.311C34.1324 14.2406 34.0621 14.1822 33.9825 14.1392C33.9029 14.0963 33.8155 14.0697 33.7254 14.0611C30.4961 13.6339 31.7731 10.4317 34.1897 9.68046C33.1036 10.9919 32.9 12.2364 34.6848 13.2583C35.4614 13.6728 36.0949 12.4437 35.3066 12.0518C34.7427 11.7803 34.5427 11.4318 34.9726 10.8752C35.7456 11.2481 36.9367 12.002 37.1738 12.9487C37.6598 14.7824 38.8935 16.4406 39.6863 17.6389C39.8103 18.1032 38.4952 20.4944 38.0255 20.6211C35.0586 18.83 33.6241 17.6814 32.3162 21.9987C31.4681 25.7666 28.6443 26.535 25.8901 26.5395C26.3363 24.6479 27.197 20.5931 27.2115 20.413C27.3925 19.5531 26.0349 19.2834 25.8792 20.1514C25.872 20.1894 25.1208 23.9989 24.6275 25.9123C24.2283 27.4591 24.9959 29.8114 25.519 31.1392H23.9894C23.8192 29.9779 23.3785 27.4066 22.6119 25.791C21.7285 23.9274 21.6163 21.4149 21.6163 21.3896C21.5783 20.5053 20.2279 20.5551 20.2586 21.4439C20.2586 21.5416 20.3491 23.5509 21.0135 25.4588C18.5978 24.8162 15.3639 25.1457 12.4586 25.5982C13.1465 24.8379 14.9413 20.87 14.9331 20.6899C15.2526 19.8754 13.9583 19.3839 13.666 20.2148C13.2921 21.1874 12.8673 22.1396 12.3934 23.0676C11.0521 25.6317 10.3715 25.9186 10.0791 26.0037C8.59569 26.1521 7.56842 29.4602 7.46796 31.1392H5.30208C5.31023 22.7553 9.21025 24.4035 9.40032 17.4724C9.48087 16.2876 9.55509 15.54 9.94789 15.3472Z" fill="white"/>
</svg>
