<svg width="61" height="60" viewBox="0 0 61 60" fill="none" xmlns="http://www.w3.org/2000/svg">
<mask id="path-1-outside-1_17378_1409" maskUnits="userSpaceOnUse" x="1.65894" y="0.328247" width="58" height="59" fill="black">
<rect fill="white" x="1.65894" y="0.328247" width="58" height="59"/>
<path d="M8.00391 44.381C11.1017 49.6553 16.709 53.1272 23.0039 53.6681C23.842 53.7401 24.6642 53.775 25.4711 53.7803L26.5053 55.5785C25.5152 55.9946 24.6699 56.6935 24.0751 57.5877C24.007 57.6943 23.9688 57.8174 23.9646 57.9439C23.9604 58.0703 23.9903 58.1956 24.0511 58.3066C24.1119 58.4176 24.2014 58.5102 24.3103 58.5747C24.4192 58.6392 24.5434 58.6733 24.67 58.6733H32.5358C32.723 58.6733 32.9026 58.5989 33.0349 58.4666C33.1673 58.3342 33.2417 58.1546 33.2417 57.9674C33.2417 57.7802 33.1673 57.6007 33.0349 57.4683C32.9026 57.3359 32.723 57.2615 32.5358 57.2615H26.3533C26.7792 56.9838 27.244 56.7707 27.7324 56.6294C27.835 56.5995 27.9295 56.5467 28.0087 56.475C28.0879 56.4032 28.1498 56.3144 28.1897 56.2153C28.2296 56.1162 28.2465 56.0093 28.239 55.9027C28.2316 55.7961 28.2001 55.6925 28.1468 55.5999L27.0836 53.7512C27.5213 53.732 27.9534 53.7043 28.3797 53.6681L28.6764 54.242C28.9929 54.8576 29.4733 55.3738 30.0646 55.7338C30.6559 56.0938 31.3351 56.2835 32.0274 56.282H32.4139C32.7807 56.2831 33.1372 56.4031 33.4301 56.6239C33.723 56.8448 33.9365 57.1545 34.0386 57.5068L34.226 58.1612C34.2775 58.3412 34.3984 58.4934 34.5621 58.5843C34.7258 58.6751 34.9189 58.6973 35.0989 58.6458C35.2789 58.5943 35.431 58.4734 35.5219 58.3097C35.6128 58.146 35.6349 57.953 35.5834 57.773L35.3959 57.1188C35.2084 56.4721 34.8165 55.9036 34.2789 55.4984C33.7412 55.0931 33.0868 54.873 32.4135 54.8709H32.027C31.5939 54.8718 31.1689 54.7532 30.7989 54.5279C30.4289 54.3027 30.1283 53.9797 29.9302 53.5945L29.8857 53.5084C32.1968 53.2045 34.4724 52.6744 36.6799 51.9258L38.7799 55.5787C37.7898 55.9948 36.9444 56.6936 36.3497 57.5878C36.2816 57.6945 36.2434 57.8175 36.2392 57.944C36.235 58.0705 36.2648 58.1958 36.3257 58.3068C36.3865 58.4178 36.476 58.5104 36.5849 58.5749C36.6938 58.6394 36.818 58.6735 36.9446 58.6735H44.7599C44.9471 58.6735 45.1267 58.5991 45.259 58.4667C45.3914 58.3344 45.4658 58.1548 45.4658 57.9676C45.4658 57.7804 45.3914 57.6008 45.259 57.4685C45.1267 57.3361 44.9471 57.2617 44.7599 57.2617H38.6288C39.0545 56.9842 39.519 56.7714 40.0072 56.6303C40.1098 56.6004 40.2043 56.5476 40.2835 56.4758C40.3627 56.4041 40.4246 56.3153 40.4645 56.2162C40.5044 56.1171 40.5212 56.0102 40.5138 55.9035C40.5064 55.7969 40.4748 55.6934 40.4216 55.6008L38.0293 51.4412C38.4564 51.2782 38.863 51.1149 39.2493 50.9511L40.9513 54.2432C41.268 54.8588 41.7485 55.375 42.34 55.7349C42.9314 56.0948 43.6107 56.2843 44.303 56.2827H44.6895C45.0563 56.2838 45.4128 56.4038 45.7057 56.6246C45.9986 56.8454 46.2121 57.1551 46.3143 57.5074L46.4434 57.9579C46.4966 58.1359 46.6178 58.2858 46.7808 58.3751C46.9437 58.4643 47.1353 58.4857 47.314 58.4346C47.4926 58.3835 47.6439 58.264 47.735 58.1021C47.8261 57.9402 47.8497 57.7489 47.8007 57.5697L47.6717 57.1193C47.4842 56.4727 47.0923 55.9042 46.5546 55.499C46.017 55.0938 45.3626 54.8736 44.6893 54.8714H44.303C43.8699 54.8724 43.4449 54.7537 43.0749 54.5284C42.7049 54.3032 42.4043 53.9802 42.2062 53.595L40.5419 50.3755C41.673 49.8574 42.7665 49.2607 43.8142 48.5898L43.8336 48.5764C52.5447 42.3072 53.5116 34.7285 52.7884 29.4748C52.2779 25.9465 51.0257 22.5664 49.1141 19.5572C48.3564 18.3918 47.8166 17.0985 47.521 15.7403C47.4512 15.3747 47.4709 14.9976 47.5785 14.6413C47.6861 14.285 47.8783 13.96 48.1388 13.6941C49.2581 12.5352 50.6743 10.6412 51.064 8.19636C51.0652 8.18895 51.0657 8.18136 51.0668 8.17395C52.6617 9.51072 54.7494 10.8519 57.0197 11.2368C57.1005 11.2507 57.1765 11.2847 57.2408 11.3356C57.305 11.3866 57.3554 11.4528 57.3874 11.5283C57.4194 11.5989 57.4332 11.6763 57.4276 11.7536C57.422 11.8309 57.3972 11.9055 57.3553 11.9707C56.4943 13.2874 54.3751 13.7409 51.2367 13.2847C51.2191 13.2817 50.7846 13.2141 50.1165 13.151C50.0226 13.139 49.9272 13.1461 49.8361 13.1718C49.745 13.1975 49.66 13.2412 49.5861 13.3005C49.5122 13.3597 49.451 13.4331 49.4062 13.5165C49.3613 13.5998 49.3336 13.6914 49.3248 13.7856C49.316 13.8799 49.3263 13.9749 49.3549 14.0652C49.3836 14.1554 49.4302 14.2389 49.4918 14.3108C49.5534 14.3826 49.6289 14.4413 49.7137 14.4834C49.7985 14.5256 49.8909 14.5502 49.9854 14.5558C50.6053 14.6141 51.013 14.678 51.0257 14.6794C51.804 14.7971 52.5898 14.8586 53.377 14.8634C56.4319 14.8634 57.8655 13.7693 58.5377 12.7421C58.7081 12.4809 58.8105 12.1813 58.8357 11.8704C58.8609 11.5596 58.808 11.2474 58.6819 10.9622C58.5563 10.6718 58.3601 10.4174 58.1112 10.2221C57.8623 10.0268 57.5686 9.8968 57.2567 9.84389C54.7058 9.41154 52.3155 7.4656 51.0357 6.25342C50.7975 4.96139 50.1115 3.79467 49.0983 2.95836C48.3821 2.35047 47.5488 1.89613 46.6499 1.62351C45.7509 1.35089 44.8056 1.26579 43.8724 1.37348C42.3182 1.56538 40.8601 2.22914 39.6947 3.27531C37.7479 4.99288 36.4318 7.3125 35.956 9.86472C35.2001 13.7361 36.1501 18.2647 38.7784 23.3268C38.7804 23.3305 38.7834 23.3335 38.7855 23.3374C38.7876 23.3412 38.7878 23.3437 38.7896 23.3469C38.8917 23.5338 39.3504 24.5079 38.3284 25.3364C38.183 25.4543 38.0904 25.6252 38.0709 25.8114C38.0514 25.9976 38.1067 26.1839 38.2246 26.3293C38.3425 26.4748 38.5133 26.5674 38.6995 26.5869C38.8857 26.6064 39.0721 26.5511 39.2175 26.4332C39.7813 26.0079 40.1734 25.3942 40.3224 24.704C40.4714 24.0137 40.3674 23.2929 40.0293 22.673C34.5033 12.0318 38.0309 6.61625 40.6257 4.33572C41.5756 3.47994 42.7647 2.93564 44.0332 2.77607C45.5524 2.60119 46.9552 3.02966 48.2032 4.05107C48.768 4.52055 49.2004 5.12938 49.4577 5.81731C49.7149 6.50525 49.7881 7.24843 49.6699 7.9733C49.3379 10.0557 48.1019 11.6993 47.1234 12.7122C46.7045 13.142 46.3958 13.6667 46.2237 14.2416C46.0517 14.8165 46.0213 15.4245 46.1352 16.0137C46.4651 17.545 47.0714 19.0033 47.9242 20.3172C47.9295 20.3257 47.9348 20.3338 47.9404 20.342C49.725 23.1769 50.8994 26.3526 51.3889 29.6665C52.3631 36.7456 49.5472 42.7191 43.0189 47.4217C42.7039 47.6287 34.0785 53.2022 23.1243 52.2611C17.2854 51.7597 12.0876 48.5471 9.22068 43.6659C7.68697 41.0541 7.06668 38.451 7.3688 35.9098C7.8455 36.2374 8.37241 36.4851 8.9288 36.6431C9.11034 36.6888 9.30263 36.6606 9.46336 36.5646C9.62408 36.4685 9.74008 36.3126 9.78583 36.131C9.83158 35.9495 9.80333 35.7572 9.70731 35.5965C9.61128 35.4358 9.45534 35.3198 9.2738 35.274C8.51021 35.0815 7.62874 34.3774 7.35344 34.122C7.35185 34.1204 7.34991 34.1195 7.34815 34.118L7.34056 34.1102C7.30668 34.0804 3.96997 31.0698 4.0725 27.1602C4.08155 26.834 4.18872 26.518 4.38003 26.2536C4.57134 25.9892 4.83791 25.7885 5.14496 25.6779C5.45201 25.5672 5.78529 25.5517 6.10131 25.6333C6.41732 25.7149 6.70141 25.8898 6.9165 26.1353C7.60732 26.9311 8.38145 27.6505 9.22562 28.2812C9.30012 28.337 9.38493 28.3776 9.47518 28.4005C9.56542 28.4235 9.65931 28.4283 9.75144 28.4148C9.84357 28.4013 9.93211 28.3697 10.012 28.3219C10.0918 28.274 10.1614 28.2108 10.2168 28.1359C10.2721 28.061 10.3121 27.9759 10.3344 27.8855C10.3567 27.7951 10.3609 27.7012 10.3467 27.6092C10.3326 27.5171 10.3004 27.4288 10.2519 27.3493C10.2035 27.2697 10.1398 27.2006 10.0646 27.1458C9.30179 26.5751 8.60239 25.9243 7.97833 25.2046C7.57704 24.7437 7.04528 24.4155 6.45341 24.2635C5.86153 24.1114 5.23743 24.1426 4.66368 24.353C4.08574 24.5531 3.5835 24.9264 3.2253 25.4222C2.8671 25.9179 2.67034 26.512 2.6618 27.1235C2.56033 30.9882 5.18621 33.9618 6.10156 34.8782C5.49715 38.0058 6.13615 41.2006 8.00391 44.381Z"/>
</mask>
<path d="M8.00391 44.381C11.1017 49.6553 16.709 53.1272 23.0039 53.6681C23.842 53.7401 24.6642 53.775 25.4711 53.7803L26.5053 55.5785C25.5152 55.9946 24.6699 56.6935 24.0751 57.5877C24.007 57.6943 23.9688 57.8174 23.9646 57.9439C23.9604 58.0703 23.9903 58.1956 24.0511 58.3066C24.1119 58.4176 24.2014 58.5102 24.3103 58.5747C24.4192 58.6392 24.5434 58.6733 24.67 58.6733H32.5358C32.723 58.6733 32.9026 58.5989 33.0349 58.4666C33.1673 58.3342 33.2417 58.1546 33.2417 57.9674C33.2417 57.7802 33.1673 57.6007 33.0349 57.4683C32.9026 57.3359 32.723 57.2615 32.5358 57.2615H26.3533C26.7792 56.9838 27.244 56.7707 27.7324 56.6294C27.835 56.5995 27.9295 56.5467 28.0087 56.475C28.0879 56.4032 28.1498 56.3144 28.1897 56.2153C28.2296 56.1162 28.2465 56.0093 28.239 55.9027C28.2316 55.7961 28.2001 55.6925 28.1468 55.5999L27.0836 53.7512C27.5213 53.732 27.9534 53.7043 28.3797 53.6681L28.6764 54.242C28.9929 54.8576 29.4733 55.3738 30.0646 55.7338C30.6559 56.0938 31.3351 56.2835 32.0274 56.282H32.4139C32.7807 56.2831 33.1372 56.4031 33.4301 56.6239C33.723 56.8448 33.9365 57.1545 34.0386 57.5068L34.226 58.1612C34.2775 58.3412 34.3984 58.4934 34.5621 58.5843C34.7258 58.6751 34.9189 58.6973 35.0989 58.6458C35.2789 58.5943 35.431 58.4734 35.5219 58.3097C35.6128 58.146 35.6349 57.953 35.5834 57.773L35.3959 57.1188C35.2084 56.4721 34.8165 55.9036 34.2789 55.4984C33.7412 55.0931 33.0868 54.873 32.4135 54.8709H32.027C31.5939 54.8718 31.1689 54.7532 30.7989 54.5279C30.4289 54.3027 30.1283 53.9797 29.9302 53.5945L29.8857 53.5084C32.1968 53.2045 34.4724 52.6744 36.6799 51.9258L38.7799 55.5787C37.7898 55.9948 36.9444 56.6936 36.3497 57.5878C36.2816 57.6945 36.2434 57.8175 36.2392 57.944C36.235 58.0705 36.2648 58.1958 36.3257 58.3068C36.3865 58.4178 36.476 58.5104 36.5849 58.5749C36.6938 58.6394 36.818 58.6735 36.9446 58.6735H44.7599C44.9471 58.6735 45.1267 58.5991 45.259 58.4667C45.3914 58.3344 45.4658 58.1548 45.4658 57.9676C45.4658 57.7804 45.3914 57.6008 45.259 57.4685C45.1267 57.3361 44.9471 57.2617 44.7599 57.2617H38.6288C39.0545 56.9842 39.519 56.7714 40.0072 56.6303C40.1098 56.6004 40.2043 56.5476 40.2835 56.4758C40.3627 56.4041 40.4246 56.3153 40.4645 56.2162C40.5044 56.1171 40.5212 56.0102 40.5138 55.9035C40.5064 55.7969 40.4748 55.6934 40.4216 55.6008L38.0293 51.4412C38.4564 51.2782 38.863 51.1149 39.2493 50.9511L40.9513 54.2432C41.268 54.8588 41.7485 55.375 42.34 55.7349C42.9314 56.0948 43.6107 56.2843 44.303 56.2827H44.6895C45.0563 56.2838 45.4128 56.4038 45.7057 56.6246C45.9986 56.8454 46.2121 57.1551 46.3143 57.5074L46.4434 57.9579C46.4966 58.1359 46.6178 58.2858 46.7808 58.3751C46.9437 58.4643 47.1353 58.4857 47.314 58.4346C47.4926 58.3835 47.6439 58.264 47.735 58.1021C47.8261 57.9402 47.8497 57.7489 47.8007 57.5697L47.6717 57.1193C47.4842 56.4727 47.0923 55.9042 46.5546 55.499C46.017 55.0938 45.3626 54.8736 44.6893 54.8714H44.303C43.8699 54.8724 43.4449 54.7537 43.0749 54.5284C42.7049 54.3032 42.4043 53.9802 42.2062 53.595L40.5419 50.3755C41.673 49.8574 42.7665 49.2607 43.8142 48.5898L43.8336 48.5764C52.5447 42.3072 53.5116 34.7285 52.7884 29.4748C52.2779 25.9465 51.0257 22.5664 49.1141 19.5572C48.3564 18.3918 47.8166 17.0985 47.521 15.7403C47.4512 15.3747 47.4709 14.9976 47.5785 14.6413C47.6861 14.285 47.8783 13.96 48.1388 13.6941C49.2581 12.5352 50.6743 10.6412 51.064 8.19636C51.0652 8.18895 51.0657 8.18136 51.0668 8.17395C52.6617 9.51072 54.7494 10.8519 57.0197 11.2368C57.1005 11.2507 57.1765 11.2847 57.2408 11.3356C57.305 11.3866 57.3554 11.4528 57.3874 11.5283C57.4194 11.5989 57.4332 11.6763 57.4276 11.7536C57.422 11.8309 57.3972 11.9055 57.3553 11.9707C56.4943 13.2874 54.3751 13.7409 51.2367 13.2847C51.2191 13.2817 50.7846 13.2141 50.1165 13.151C50.0226 13.139 49.9272 13.1461 49.8361 13.1718C49.745 13.1975 49.66 13.2412 49.5861 13.3005C49.5122 13.3597 49.451 13.4331 49.4062 13.5165C49.3613 13.5998 49.3336 13.6914 49.3248 13.7856C49.316 13.8799 49.3263 13.9749 49.3549 14.0652C49.3836 14.1554 49.4302 14.2389 49.4918 14.3108C49.5534 14.3826 49.6289 14.4413 49.7137 14.4834C49.7985 14.5256 49.8909 14.5502 49.9854 14.5558C50.6053 14.6141 51.013 14.678 51.0257 14.6794C51.804 14.7971 52.5898 14.8586 53.377 14.8634C56.4319 14.8634 57.8655 13.7693 58.5377 12.7421C58.7081 12.4809 58.8105 12.1813 58.8357 11.8704C58.8609 11.5596 58.808 11.2474 58.6819 10.9622C58.5563 10.6718 58.3601 10.4174 58.1112 10.2221C57.8623 10.0268 57.5686 9.8968 57.2567 9.84389C54.7058 9.41154 52.3155 7.4656 51.0357 6.25342C50.7975 4.96139 50.1115 3.79467 49.0983 2.95836C48.3821 2.35047 47.5488 1.89613 46.6499 1.62351C45.7509 1.35089 44.8056 1.26579 43.8724 1.37348C42.3182 1.56538 40.8601 2.22914 39.6947 3.27531C37.7479 4.99288 36.4318 7.3125 35.956 9.86472C35.2001 13.7361 36.1501 18.2647 38.7784 23.3268C38.7804 23.3305 38.7834 23.3335 38.7855 23.3374C38.7876 23.3412 38.7878 23.3437 38.7896 23.3469C38.8917 23.5338 39.3504 24.5079 38.3284 25.3364C38.183 25.4543 38.0904 25.6252 38.0709 25.8114C38.0514 25.9976 38.1067 26.1839 38.2246 26.3293C38.3425 26.4748 38.5133 26.5674 38.6995 26.5869C38.8857 26.6064 39.0721 26.5511 39.2175 26.4332C39.7813 26.0079 40.1734 25.3942 40.3224 24.704C40.4714 24.0137 40.3674 23.2929 40.0293 22.673C34.5033 12.0318 38.0309 6.61625 40.6257 4.33572C41.5756 3.47994 42.7647 2.93564 44.0332 2.77607C45.5524 2.60119 46.9552 3.02966 48.2032 4.05107C48.768 4.52055 49.2004 5.12938 49.4577 5.81731C49.7149 6.50525 49.7881 7.24843 49.6699 7.9733C49.3379 10.0557 48.1019 11.6993 47.1234 12.7122C46.7045 13.142 46.3958 13.6667 46.2237 14.2416C46.0517 14.8165 46.0213 15.4245 46.1352 16.0137C46.4651 17.545 47.0714 19.0033 47.9242 20.3172C47.9295 20.3257 47.9348 20.3338 47.9404 20.342C49.725 23.1769 50.8994 26.3526 51.3889 29.6665C52.3631 36.7456 49.5472 42.7191 43.0189 47.4217C42.7039 47.6287 34.0785 53.2022 23.1243 52.2611C17.2854 51.7597 12.0876 48.5471 9.22068 43.6659C7.68697 41.0541 7.06668 38.451 7.3688 35.9098C7.8455 36.2374 8.37241 36.4851 8.9288 36.6431C9.11034 36.6888 9.30263 36.6606 9.46336 36.5646C9.62408 36.4685 9.74008 36.3126 9.78583 36.131C9.83158 35.9495 9.80333 35.7572 9.70731 35.5965C9.61128 35.4358 9.45534 35.3198 9.2738 35.274C8.51021 35.0815 7.62874 34.3774 7.35344 34.122C7.35185 34.1204 7.34991 34.1195 7.34815 34.118L7.34056 34.1102C7.30668 34.0804 3.96997 31.0698 4.0725 27.1602C4.08155 26.834 4.18872 26.518 4.38003 26.2536C4.57134 25.9892 4.83791 25.7885 5.14496 25.6779C5.45201 25.5672 5.78529 25.5517 6.10131 25.6333C6.41732 25.7149 6.70141 25.8898 6.9165 26.1353C7.60732 26.9311 8.38145 27.6505 9.22562 28.2812C9.30012 28.337 9.38493 28.3776 9.47518 28.4005C9.56542 28.4235 9.65931 28.4283 9.75144 28.4148C9.84357 28.4013 9.93211 28.3697 10.012 28.3219C10.0918 28.274 10.1614 28.2108 10.2168 28.1359C10.2721 28.061 10.3121 27.9759 10.3344 27.8855C10.3567 27.7951 10.3609 27.7012 10.3467 27.6092C10.3326 27.5171 10.3004 27.4288 10.2519 27.3493C10.2035 27.2697 10.1398 27.2006 10.0646 27.1458C9.30179 26.5751 8.60239 25.9243 7.97833 25.2046C7.57704 24.7437 7.04528 24.4155 6.45341 24.2635C5.86153 24.1114 5.23743 24.1426 4.66368 24.353C4.08574 24.5531 3.5835 24.9264 3.2253 25.4222C2.8671 25.9179 2.67034 26.512 2.6618 27.1235C2.56033 30.9882 5.18621 33.9618 6.10156 34.8782C5.49715 38.0058 6.13615 41.2006 8.00391 44.381Z" fill="white"/>
<path d="M8.00391 44.381C11.1017 49.6553 16.709 53.1272 23.0039 53.6681C23.842 53.7401 24.6642 53.775 25.4711 53.7803L26.5053 55.5785C25.5152 55.9946 24.6699 56.6935 24.0751 57.5877C24.007 57.6943 23.9688 57.8174 23.9646 57.9439C23.9604 58.0703 23.9903 58.1956 24.0511 58.3066C24.1119 58.4176 24.2014 58.5102 24.3103 58.5747C24.4192 58.6392 24.5434 58.6733 24.67 58.6733H32.5358C32.723 58.6733 32.9026 58.5989 33.0349 58.4666C33.1673 58.3342 33.2417 58.1546 33.2417 57.9674C33.2417 57.7802 33.1673 57.6007 33.0349 57.4683C32.9026 57.3359 32.723 57.2615 32.5358 57.2615H26.3533C26.7792 56.9838 27.244 56.7707 27.7324 56.6294C27.835 56.5995 27.9295 56.5467 28.0087 56.475C28.0879 56.4032 28.1498 56.3144 28.1897 56.2153C28.2296 56.1162 28.2465 56.0093 28.239 55.9027C28.2316 55.7961 28.2001 55.6925 28.1468 55.5999L27.0836 53.7512C27.5213 53.732 27.9534 53.7043 28.3797 53.6681L28.6764 54.242C28.9929 54.8576 29.4733 55.3738 30.0646 55.7338C30.6559 56.0938 31.3351 56.2835 32.0274 56.282H32.4139C32.7807 56.2831 33.1372 56.4031 33.4301 56.6239C33.723 56.8448 33.9365 57.1545 34.0386 57.5068L34.226 58.1612C34.2775 58.3412 34.3984 58.4934 34.5621 58.5843C34.7258 58.6751 34.9189 58.6973 35.0989 58.6458C35.2789 58.5943 35.431 58.4734 35.5219 58.3097C35.6128 58.146 35.6349 57.953 35.5834 57.773L35.3959 57.1188C35.2084 56.4721 34.8165 55.9036 34.2789 55.4984C33.7412 55.0931 33.0868 54.873 32.4135 54.8709H32.027C31.5939 54.8718 31.1689 54.7532 30.7989 54.5279C30.4289 54.3027 30.1283 53.9797 29.9302 53.5945L29.8857 53.5084C32.1968 53.2045 34.4724 52.6744 36.6799 51.9258L38.7799 55.5787C37.7898 55.9948 36.9444 56.6936 36.3497 57.5878C36.2816 57.6945 36.2434 57.8175 36.2392 57.944C36.235 58.0705 36.2648 58.1958 36.3257 58.3068C36.3865 58.4178 36.476 58.5104 36.5849 58.5749C36.6938 58.6394 36.818 58.6735 36.9446 58.6735H44.7599C44.9471 58.6735 45.1267 58.5991 45.259 58.4667C45.3914 58.3344 45.4658 58.1548 45.4658 57.9676C45.4658 57.7804 45.3914 57.6008 45.259 57.4685C45.1267 57.3361 44.9471 57.2617 44.7599 57.2617H38.6288C39.0545 56.9842 39.519 56.7714 40.0072 56.6303C40.1098 56.6004 40.2043 56.5476 40.2835 56.4758C40.3627 56.4041 40.4246 56.3153 40.4645 56.2162C40.5044 56.1171 40.5212 56.0102 40.5138 55.9035C40.5064 55.7969 40.4748 55.6934 40.4216 55.6008L38.0293 51.4412C38.4564 51.2782 38.863 51.1149 39.2493 50.9511L40.9513 54.2432C41.268 54.8588 41.7485 55.375 42.34 55.7349C42.9314 56.0948 43.6107 56.2843 44.303 56.2827H44.6895C45.0563 56.2838 45.4128 56.4038 45.7057 56.6246C45.9986 56.8454 46.2121 57.1551 46.3143 57.5074L46.4434 57.9579C46.4966 58.1359 46.6178 58.2858 46.7808 58.3751C46.9437 58.4643 47.1353 58.4857 47.314 58.4346C47.4926 58.3835 47.6439 58.264 47.735 58.1021C47.8261 57.9402 47.8497 57.7489 47.8007 57.5697L47.6717 57.1193C47.4842 56.4727 47.0923 55.9042 46.5546 55.499C46.017 55.0938 45.3626 54.8736 44.6893 54.8714H44.303C43.8699 54.8724 43.4449 54.7537 43.0749 54.5284C42.7049 54.3032 42.4043 53.9802 42.2062 53.595L40.5419 50.3755C41.673 49.8574 42.7665 49.2607 43.8142 48.5898L43.8336 48.5764C52.5447 42.3072 53.5116 34.7285 52.7884 29.4748C52.2779 25.9465 51.0257 22.5664 49.1141 19.5572C48.3564 18.3918 47.8166 17.0985 47.521 15.7403C47.4512 15.3747 47.4709 14.9976 47.5785 14.6413C47.6861 14.285 47.8783 13.96 48.1388 13.6941C49.2581 12.5352 50.6743 10.6412 51.064 8.19636C51.0652 8.18895 51.0657 8.18136 51.0668 8.17395C52.6617 9.51072 54.7494 10.8519 57.0197 11.2368C57.1005 11.2507 57.1765 11.2847 57.2408 11.3356C57.305 11.3866 57.3554 11.4528 57.3874 11.5283C57.4194 11.5989 57.4332 11.6763 57.4276 11.7536C57.422 11.8309 57.3972 11.9055 57.3553 11.9707C56.4943 13.2874 54.3751 13.7409 51.2367 13.2847C51.2191 13.2817 50.7846 13.2141 50.1165 13.151C50.0226 13.139 49.9272 13.1461 49.8361 13.1718C49.745 13.1975 49.66 13.2412 49.5861 13.3005C49.5122 13.3597 49.451 13.4331 49.4062 13.5165C49.3613 13.5998 49.3336 13.6914 49.3248 13.7856C49.316 13.8799 49.3263 13.9749 49.3549 14.0652C49.3836 14.1554 49.4302 14.2389 49.4918 14.3108C49.5534 14.3826 49.6289 14.4413 49.7137 14.4834C49.7985 14.5256 49.8909 14.5502 49.9854 14.5558C50.6053 14.6141 51.013 14.678 51.0257 14.6794C51.804 14.7971 52.5898 14.8586 53.377 14.8634C56.4319 14.8634 57.8655 13.7693 58.5377 12.7421C58.7081 12.4809 58.8105 12.1813 58.8357 11.8704C58.8609 11.5596 58.808 11.2474 58.6819 10.9622C58.5563 10.6718 58.3601 10.4174 58.1112 10.2221C57.8623 10.0268 57.5686 9.8968 57.2567 9.84389C54.7058 9.41154 52.3155 7.4656 51.0357 6.25342C50.7975 4.96139 50.1115 3.79467 49.0983 2.95836C48.3821 2.35047 47.5488 1.89613 46.6499 1.62351C45.7509 1.35089 44.8056 1.26579 43.8724 1.37348C42.3182 1.56538 40.8601 2.22914 39.6947 3.27531C37.7479 4.99288 36.4318 7.3125 35.956 9.86472C35.2001 13.7361 36.1501 18.2647 38.7784 23.3268C38.7804 23.3305 38.7834 23.3335 38.7855 23.3374C38.7876 23.3412 38.7878 23.3437 38.7896 23.3469C38.8917 23.5338 39.3504 24.5079 38.3284 25.3364C38.183 25.4543 38.0904 25.6252 38.0709 25.8114C38.0514 25.9976 38.1067 26.1839 38.2246 26.3293C38.3425 26.4748 38.5133 26.5674 38.6995 26.5869C38.8857 26.6064 39.0721 26.5511 39.2175 26.4332C39.7813 26.0079 40.1734 25.3942 40.3224 24.704C40.4714 24.0137 40.3674 23.2929 40.0293 22.673C34.5033 12.0318 38.0309 6.61625 40.6257 4.33572C41.5756 3.47994 42.7647 2.93564 44.0332 2.77607C45.5524 2.60119 46.9552 3.02966 48.2032 4.05107C48.768 4.52055 49.2004 5.12938 49.4577 5.81731C49.7149 6.50525 49.7881 7.24843 49.6699 7.9733C49.3379 10.0557 48.1019 11.6993 47.1234 12.7122C46.7045 13.142 46.3958 13.6667 46.2237 14.2416C46.0517 14.8165 46.0213 15.4245 46.1352 16.0137C46.4651 17.545 47.0714 19.0033 47.9242 20.3172C47.9295 20.3257 47.9348 20.3338 47.9404 20.342C49.725 23.1769 50.8994 26.3526 51.3889 29.6665C52.3631 36.7456 49.5472 42.7191 43.0189 47.4217C42.7039 47.6287 34.0785 53.2022 23.1243 52.2611C17.2854 51.7597 12.0876 48.5471 9.22068 43.6659C7.68697 41.0541 7.06668 38.451 7.3688 35.9098C7.8455 36.2374 8.37241 36.4851 8.9288 36.6431C9.11034 36.6888 9.30263 36.6606 9.46336 36.5646C9.62408 36.4685 9.74008 36.3126 9.78583 36.131C9.83158 35.9495 9.80333 35.7572 9.70731 35.5965C9.61128 35.4358 9.45534 35.3198 9.2738 35.274C8.51021 35.0815 7.62874 34.3774 7.35344 34.122C7.35185 34.1204 7.34991 34.1195 7.34815 34.118L7.34056 34.1102C7.30668 34.0804 3.96997 31.0698 4.0725 27.1602C4.08155 26.834 4.18872 26.518 4.38003 26.2536C4.57134 25.9892 4.83791 25.7885 5.14496 25.6779C5.45201 25.5672 5.78529 25.5517 6.10131 25.6333C6.41732 25.7149 6.70141 25.8898 6.9165 26.1353C7.60732 26.9311 8.38145 27.6505 9.22562 28.2812C9.30012 28.337 9.38493 28.3776 9.47518 28.4005C9.56542 28.4235 9.65931 28.4283 9.75144 28.4148C9.84357 28.4013 9.93211 28.3697 10.012 28.3219C10.0918 28.274 10.1614 28.2108 10.2168 28.1359C10.2721 28.061 10.3121 27.9759 10.3344 27.8855C10.3567 27.7951 10.3609 27.7012 10.3467 27.6092C10.3326 27.5171 10.3004 27.4288 10.2519 27.3493C10.2035 27.2697 10.1398 27.2006 10.0646 27.1458C9.30179 26.5751 8.60239 25.9243 7.97833 25.2046C7.57704 24.7437 7.04528 24.4155 6.45341 24.2635C5.86153 24.1114 5.23743 24.1426 4.66368 24.353C4.08574 24.5531 3.5835 24.9264 3.2253 25.4222C2.8671 25.9179 2.67034 26.512 2.6618 27.1235C2.56033 30.9882 5.18621 33.9618 6.10156 34.8782C5.49715 38.0058 6.13615 41.2006 8.00391 44.381Z" stroke="white" stroke-width="0.8" mask="url(#path-1-outside-1_17378_1409)"/>
<path d="M22.4215 40.1377C23.0674 41.574 24.2911 43.5652 26.4322 44.8065L26.3319 44.9796L26.4322 44.8065C28.8914 46.2324 32.0371 46.3887 35.8088 45.2263C35.9226 45.1896 36.0425 45.1758 36.1617 45.1856C36.2813 45.1955 36.3979 45.2291 36.5044 45.2845C36.611 45.3398 36.7055 45.4158 36.7824 45.508C36.8594 45.6002 36.9172 45.7068 36.9526 45.8215C36.988 45.9363 37.0002 46.0569 36.9885 46.1764C36.9769 46.2959 36.9416 46.4119 36.8847 46.5177C36.8278 46.6234 36.7504 46.7168 36.6571 46.7924L36.5312 46.637L36.6571 46.7924C36.5646 46.8673 36.4582 46.9233 36.344 46.9571C34.6658 47.4994 32.916 47.7879 31.1526 47.813M22.4215 40.1377L20.3222 39.1089M22.4215 40.1377C23.8815 40.5773 25.3951 40.8172 26.9209 40.8502L26.9209 40.8502H26.9252H26.9438C27.1836 40.8531 27.4147 40.7609 27.5866 40.5937C27.7588 40.4261 27.8574 40.197 27.8607 39.9568C27.864 39.7165 27.7717 39.4848 27.6042 39.3126C27.4367 39.1405 27.2078 39.0419 26.9678 39.0385L22.4215 40.1377ZM31.1526 47.813L31.1497 47.613L31.153 47.813C31.1529 47.813 31.1527 47.813 31.1526 47.813ZM31.1526 47.813C29.1765 47.8455 27.228 47.346 25.5112 46.3669L25.5097 46.366C21.8842 44.2557 20.5242 40.5132 20.1546 39.2498M20.1546 39.2498C20.1814 39.263 20.2083 39.276 20.2352 39.289L20.3222 39.1089M20.1546 39.2498C20.1457 39.2195 20.1375 39.1907 20.1297 39.1633L20.3222 39.1089M20.1546 39.2498C18.9897 38.679 17.9039 37.9602 16.924 37.1117M20.3222 39.1089C19.0884 38.5134 17.9434 37.7503 16.9193 36.8417C16.9199 36.9292 16.9214 37.0193 16.924 37.1117M16.924 37.1117C16.9873 39.3491 17.7021 42.9272 21.3332 44.7669L21.2428 44.9453C17.4104 43.0036 16.7506 39.179 16.7202 36.932C16.7876 36.9925 16.8556 37.0524 16.924 37.1117ZM11.8917 25.7206C11.5479 26.4321 11.4392 27.2344 11.5811 28.0117L26.9673 39.0385C25.0193 39.0071 23.0971 38.5875 21.3131 37.8044C21.2894 37.7926 21.2652 37.7819 21.2405 37.7722C19.3617 36.9053 17.7106 35.6127 16.4181 33.9967L16.4181 33.9967L16.4167 33.995C15.2256 32.5405 14.3154 30.8772 13.7324 29.0899C13.7271 29.0721 13.721 29.0579 13.7182 29.0514L13.7167 29.0477C13.7153 29.0416 13.7118 29.0266 13.7055 29.0095C13.5544 28.5814 13.4405 28.1409 13.3651 27.6932L13.3651 27.6932L13.3646 27.6901C13.2908 27.2905 13.346 26.8777 13.5222 26.5116C13.6985 26.1454 13.9866 25.8448 14.3449 25.6532C14.7033 25.4616 15.1133 25.3889 15.5157 25.4457C15.9178 25.5024 16.2914 25.6855 16.5827 25.9684C17.4117 26.7885 18.2955 27.5514 19.2278 28.2518C19.6213 28.5805 23.1094 31.3492 28.977 31.3492C29.1764 31.3492 29.3792 31.346 29.5835 31.3394C29.7024 31.3356 29.8194 31.3084 29.9278 31.2593C30.0363 31.2103 30.134 31.1403 30.2154 31.0535L30.0695 30.9167L30.2154 31.0535C30.2968 30.9667 30.3603 30.8647 30.4023 30.7534C30.4443 30.642 30.4639 30.5235 30.4601 30.4045C30.4563 30.2856 30.4291 30.1685 30.38 30.0601C30.331 29.9517 30.261 29.854 30.1742 29.7726C30.0874 29.6911 29.9854 29.6276 29.8741 29.5856C29.7627 29.5437 29.6442 29.524 29.5252 29.5278L29.5251 29.5278C25.5769 29.6563 22.7439 28.351 21.3508 27.5161C26.3503 24.1188 32.7897 23.663 36.3371 23.7161L36.3371 23.7161C36.5773 23.7197 36.8092 23.6277 36.9816 23.4603C37.154 23.293 37.2529 23.064 37.2564 22.8237C37.26 22.5835 37.168 22.3517 37.0006 22.1792C36.8333 22.0068 36.6043 21.908 36.364 21.9044L36.364 21.9044C32.4983 21.8475 25.2932 22.3626 19.7902 26.3969C19.1154 25.8545 18.4675 25.2792 17.849 24.6732L17.8486 24.6728C17.2824 24.1211 16.5554 23.7637 15.7728 23.6523C14.9901 23.541 14.1923 23.6813 13.4947 24.0531C12.797 24.4249 12.2357 25.0089 11.8917 25.7206Z" fill="white" stroke="white" stroke-width="0.4"/>
<path d="M45.2084 7.08583L45.2079 7.08511C45.1751 7.03602 45.1472 6.9839 45.1244 6.92945L45.1235 6.92719L45.1235 6.92719C45.1019 6.87366 45.0849 6.81838 45.0728 6.76194L45.0718 6.75707L45.0718 6.75706C45.0609 6.69942 45.0556 6.64086 45.056 6.5822M45.2084 7.08583L46.2317 5.93114M45.2084 7.08583C45.2412 7.13463 45.2786 7.18024 45.32 7.22207L45.2084 7.08583ZM45.056 6.5822C45.0557 6.52374 45.061 6.46538 45.0718 6.40792L45.0731 6.40048L45.0733 6.40051C45.0857 6.3457 45.1022 6.29189 45.1227 6.23953L45.125 6.23349L45.1251 6.23353C45.1479 6.18042 45.1752 6.12939 45.2069 6.08103L45.2097 6.07678L45.2097 6.07682C45.2423 6.02962 45.2788 5.98518 45.3187 5.94392L45.3212 5.94129L45.3212 5.94131C45.3632 5.89945 45.4094 5.8621 45.4592 5.82988C45.5082 5.79641 45.5607 5.76834 45.6158 5.74617C45.6705 5.7232 45.7273 5.70584 45.7855 5.69435L45.7861 5.69422C45.9021 5.67168 46.0214 5.67168 46.1375 5.69423L46.1403 5.69477L46.1403 5.69479C46.1975 5.70676 46.2535 5.72392 46.3075 5.74608M45.056 6.5822C45.056 6.58174 45.056 6.58128 45.056 6.58082L45.256 6.58232L45.056 6.58348C45.056 6.58306 45.056 6.58263 45.056 6.5822ZM46.3075 5.74608L46.2317 5.93114M46.3075 5.74608C46.3075 5.74606 46.3075 5.74605 46.3074 5.74603L46.2317 5.93114M46.3075 5.74608C46.3625 5.76855 46.4149 5.79659 46.4642 5.82974M46.2317 5.93114C46.2745 5.94865 46.3154 5.97053 46.3536 5.99644M46.4642 5.82974C46.4636 5.82939 46.4631 5.82905 46.4626 5.8287L46.3536 5.99644M46.4642 5.82974C46.5135 5.86196 46.5593 5.89934 46.6007 5.94125M46.4642 5.82974C46.4647 5.83009 46.4652 5.83045 46.4657 5.8308L46.3536 5.99644M46.3536 5.99644L46.6007 5.94125M46.6007 5.94125C46.6003 5.94082 46.5998 5.94039 46.5994 5.93996L46.4595 6.08291L46.6021 5.94266C46.6016 5.94219 46.6012 5.94172 46.6007 5.94125ZM46.6007 5.94125C46.6435 5.98326 46.6816 6.02975 46.7144 6.07992M46.6007 5.94125L46.6536 6.71997L46.8497 6.75955C46.8614 6.70155 46.8675 6.64254 46.8678 6.58336L46.8678 6.5809C46.8673 6.52198 46.8613 6.46323 46.8498 6.40547L46.8493 6.40336C46.8373 6.34645 46.8202 6.29071 46.7983 6.23682L46.7981 6.23632C46.7755 6.18148 46.7475 6.12908 46.7144 6.07992M46.7144 6.07992C46.7141 6.07945 46.7137 6.07898 46.7134 6.07851L46.5478 6.19056L46.7154 6.08146C46.715 6.08094 46.7147 6.08043 46.7144 6.07992ZM45.6145 7.41971L45.6145 7.4197C45.5604 7.39701 45.5086 7.36927 45.4597 7.33684C45.4596 7.33676 45.4594 7.33667 45.4593 7.33659L45.5699 7.16997C45.5311 7.14443 45.4951 7.11486 45.4625 7.08173L45.6145 7.41971ZM45.6145 7.41971L45.6162 7.42039M45.6145 7.41971L45.6162 7.42039M45.6162 7.42039C45.6705 7.44257 45.7268 7.45923 45.7844 7.47011C45.8428 7.48278 45.9024 7.48886 45.9621 7.48822C46.0217 7.48874 46.0812 7.48264 46.1395 7.47003C46.1966 7.45901 46.2525 7.44251 46.3065 7.42076L46.3065 7.4208M45.6162 7.42039L46.3065 7.4208M46.3065 7.4208L46.3105 7.41906M46.3065 7.4208L46.3105 7.41906M46.3105 7.41906C46.3636 7.39631 46.4146 7.36902 46.4629 7.33749L46.4644 7.33653M46.3105 7.41906L46.4644 7.33653M46.4644 7.33653C46.5136 7.30377 46.5593 7.26589 46.6006 7.22354M46.4644 7.33653L46.6006 7.22354M46.6006 7.22354C46.6439 7.18176 46.6821 7.13508 46.7146 7.08444L46.6006 7.22354ZM31.2862 38.7325L31.2954 38.687L31.0086 38.7353C30.8632 38.7599 30.7191 38.7832 30.5763 38.8054C30.3503 38.8393 30.1455 38.9573 30.0028 39.1358C29.8601 39.3144 29.7902 39.5403 29.8071 39.7683C29.824 39.9962 29.9265 40.2094 30.094 40.365C30.2615 40.5205 30.4816 40.6071 30.7101 40.6071H30.7104C30.7557 40.6071 30.8009 40.6037 30.8457 40.597L30.8459 40.597C30.9993 40.5739 31.154 40.5491 31.31 40.5228C31.4273 40.503 31.5396 40.4603 31.6404 40.3971L31.5341 40.2277L31.6404 40.3971C31.7412 40.3339 31.8285 40.2515 31.8975 40.1545C31.9664 40.0576 32.0156 39.948 32.0422 39.832C32.0688 39.7161 32.0723 39.596 32.0525 39.4787C32.0327 39.3614 31.9899 39.2491 31.9268 39.1483C31.8636 39.0475 31.7811 38.9602 31.6842 38.8912C31.5872 38.8223 31.4776 38.7731 31.3617 38.7465C31.3367 38.7408 31.3115 38.7361 31.2862 38.7325ZM30.7102 40.4071C30.7457 40.4071 30.7811 40.4045 30.8161 40.3992L30.7102 40.4071ZM46.7981 6.92827C46.7983 6.92773 46.7985 6.92719 46.7987 6.92664L46.6131 6.85232L46.7974 6.92989C46.7976 6.92935 46.7979 6.92881 46.7981 6.92827Z" fill="white" stroke="white" stroke-width="0.4"/>
</svg>
