<svg width="40" height="30" viewBox="0 0 40 30" fill="none" xmlns="http://www.w3.org/2000/svg">
<path d="M35.5686 3.2802H35.007C34.8137 2.12505 33.8069 1.24185 32.5977 1.24185C32.1697 1.24185 31.7585 1.35122 31.3959 1.55677C30.8202 1.04286 30.0665 0.748333 29.2843 0.748333C28.8182 0.747942 28.3577 0.850691 27.9359 1.04922C27.5141 1.24774 27.1415 1.53712 26.8447 1.89661C26.3241 1.67749 25.7542 1.60223 25.1946 1.67872C24.615 1.16286 23.8662 0.877686 23.0903 0.877317C22.3414 0.877317 21.6326 1.13708 21.0703 1.60513C20.2247 0.960441 19.1967 0.611145 18.1168 0.611145C17.2563 0.611145 16.4269 0.832942 15.6904 1.25653C15.1434 0.841926 14.4694 0.611145 13.7765 0.611145C12.6255 0.611145 11.5964 1.22083 11.0397 2.18239C10.4952 1.98073 9.9192 1.87738 9.33857 1.87716C7.81491 1.87716 6.3735 2.60184 5.45647 3.79958C5.15931 3.71488 4.8475 3.69456 4.54187 3.73997C4.20076 3.43948 3.76176 3.27373 3.30718 3.2738C2.86381 3.27314 2.43475 3.43071 2.09718 3.71817C0.932811 3.76465 0 4.72661 0 5.90223C0 7.02473 0.850311 7.9523 1.94062 8.07488C1.93757 8.09847 1.93484 8.12222 1.93234 8.14597C0.940701 9.06925 0.377421 10.356 0.377421 11.7192C0.377421 12.8286 0.750389 13.8915 1.43508 14.753C1.27273 15.246 1.19038 15.7619 1.19117 16.281C1.19117 18.6875 2.94328 20.7259 5.29827 21.1018C5.481 21.255 5.66906 21.4017 5.8621 21.5417V22.2144C5.8621 23.5468 6.61608 24.7059 7.71936 25.2893V28.7556C7.71935 28.8388 7.73572 28.9212 7.76755 28.998C7.79938 29.0749 7.84603 29.1447 7.90484 29.2035C7.96366 29.2623 8.03348 29.309 8.11033 29.3408C8.18718 29.3726 8.26954 29.389 8.35272 29.389H10.3245C10.4077 29.389 10.49 29.3726 10.5669 29.3408C10.6437 29.309 10.7135 29.2623 10.7724 29.2035C10.8312 29.1447 10.8778 29.0749 10.9096 28.998C10.9414 28.9212 10.9578 28.8388 10.9578 28.7556V25.2901C11.0151 25.2598 11.0715 25.228 11.1269 25.1945C11.1822 25.2277 11.2384 25.2591 11.2954 25.2891V28.7556C11.2954 28.8388 11.3117 28.9212 11.3436 28.998C11.3754 29.0749 11.422 29.1447 11.4809 29.2035C11.5397 29.2623 11.6095 29.309 11.6863 29.3408C11.7632 29.3726 11.8455 29.389 11.9287 29.389H13.9016C13.9848 29.389 14.0672 29.3726 14.144 29.3408C14.2208 29.309 14.2907 29.2623 14.3495 29.2035C14.4083 29.1447 14.455 29.0749 14.4868 28.998C14.5186 28.9212 14.535 28.8388 14.535 28.7556V25.2917C15.0144 25.0399 15.4283 24.6792 15.7432 24.2387C16.4186 24.5463 17.1521 24.7054 17.8942 24.705C18.8016 24.705 19.6701 24.476 20.4441 24.037C20.7706 24.568 21.2343 25.001 21.7863 25.2905V28.7556C21.7863 28.8388 21.8027 28.9212 21.8345 28.998C21.8663 29.0749 21.913 29.1447 21.9718 29.2035C22.0306 29.2623 22.1004 29.309 22.1773 29.3408C22.2541 29.3726 22.3365 29.389 22.4196 29.389H24.3915C24.4747 29.389 24.5571 29.3726 24.6339 29.3408C24.7107 29.309 24.7806 29.2623 24.8394 29.2035C24.8982 29.1447 24.9449 29.0749 24.9767 28.998C25.0085 28.9212 25.0249 28.8388 25.0249 28.7556V25.2945C25.0837 25.2638 25.1416 25.2313 25.1985 25.1972C25.2526 25.2294 25.3074 25.2601 25.3631 25.2894V28.7556C25.3631 28.8388 25.3794 28.9212 25.4113 28.998C25.4431 29.0749 25.4897 29.1447 25.5486 29.2035C25.6074 29.2623 25.6772 29.309 25.754 29.3408C25.8309 29.3726 25.9133 29.389 25.9964 29.389H27.9687C28.0519 29.389 28.1342 29.3726 28.2111 29.3408C28.2879 29.309 28.3578 29.2623 28.4166 29.2035C28.4754 29.1447 28.522 29.0749 28.5539 28.998C28.5857 28.9212 28.6021 28.8388 28.6021 28.7556V25.2893C29.7053 24.7059 30.4592 23.5468 30.4592 22.2144V22.0758C32.016 21.2584 33.0807 19.6267 33.0807 17.7498C33.0807 17.5963 33.0731 17.4409 33.0579 17.2849C33.7117 16.6887 34.0924 15.8399 34.0924 14.9453C34.0924 14.1633 33.7985 13.4055 33.2781 12.827C33.2671 12.5984 33.2485 12.3702 33.2224 12.1428H35.5688C38.0122 12.1428 40.0002 10.155 40.0002 7.71152C39.9999 5.26817 38.012 3.2802 35.5686 3.2802ZM9.69123 28.1223H8.98608V25.6729C9.10201 25.6847 9.21967 25.6907 9.33865 25.6907C9.45764 25.6907 9.5749 25.6825 9.69131 25.6709V28.1223H9.69123ZM13.2684 28.1223H12.5621V25.6719C12.6793 25.6839 12.7972 25.6908 12.9158 25.6908C13.0346 25.6908 13.1522 25.6843 13.2685 25.6726V28.1223H13.2684ZM12.9157 24.4241C12.6435 24.4241 12.3809 24.3747 12.1345 24.2815C12.2772 24.0889 12.3995 23.882 12.4994 23.6641C12.6472 23.6854 12.7966 23.6961 12.9467 23.6961C13.3446 23.6961 13.7318 23.6231 14.0996 23.4788H14.5429C14.5807 23.5108 14.6197 23.5413 14.6583 23.572C14.452 23.8375 14.1878 24.0524 13.8857 24.2C13.5837 24.3477 13.2519 24.4243 12.9157 24.4241ZM23.7581 28.1223H23.0528V25.6712C23.1692 25.683 23.2867 25.6909 23.4056 25.6909C23.5233 25.6907 23.641 25.6847 23.7582 25.6728V28.1223H23.7581ZM27.3353 28.1223H26.6296V25.6719C26.7466 25.6839 26.8644 25.6908 26.9827 25.6908C27.1017 25.6908 27.2193 25.6848 27.3353 25.673V28.1223ZM26.9826 24.4241C26.7115 24.4241 26.4498 24.3752 26.2042 24.2827C26.5319 23.8388 26.7486 23.3228 26.8361 22.7781C27.0101 22.7098 27.1822 22.6368 27.3522 22.5591C27.6328 22.6083 27.9161 22.6332 28.1971 22.6332C28.5296 22.6332 28.8546 22.5996 29.1686 22.5359C29.0125 23.6026 28.092 24.4241 26.9826 24.4241ZM32.0181 16.4986C31.9199 16.5677 31.8434 16.6633 31.7975 16.7742C31.7517 16.8851 31.7382 17.0068 31.7588 17.125C31.7954 17.3351 31.8139 17.5454 31.8139 17.7499C31.8139 19.7442 30.1914 21.3666 28.1973 21.3666C27.9319 21.3662 27.6673 21.3369 27.4082 21.2791C27.2689 21.2482 27.1233 21.2652 26.9949 21.3274C26.6841 21.4776 26.3648 21.6096 26.0385 21.7225C25.9179 21.7643 25.8128 21.8416 25.7368 21.9442C25.6609 22.0468 25.6178 22.17 25.6131 22.2976C25.5936 22.8694 25.3523 23.4112 24.9402 23.8082C24.5281 24.2051 23.9777 24.426 23.4055 24.4241C22.9399 24.4248 22.4861 24.2782 22.109 24.0052C21.7318 23.7322 21.4508 23.3468 21.3061 22.9043C21.2744 22.8076 21.2199 22.72 21.1471 22.6489C21.0744 22.5778 20.9856 22.5252 20.8882 22.4957C20.7909 22.4662 20.6878 22.4606 20.5878 22.4793C20.4879 22.498 20.3938 22.5406 20.3138 22.6034C19.6167 23.1495 18.78 23.4382 17.8942 23.4382C16.8968 23.4382 15.9455 23.0633 15.2154 22.3824C15.0982 22.273 14.9438 22.2121 14.7835 22.2121H13.9732C13.8847 22.2121 13.7971 22.2307 13.7162 22.2666C13.2708 22.4637 12.7668 22.4821 12.3082 22.3181C12.2251 22.2882 12.1366 22.2761 12.0486 22.2825C11.9605 22.2889 11.8748 22.3137 11.7968 22.3552C11.7189 22.3967 11.6505 22.454 11.5961 22.5235C11.5416 22.593 11.5023 22.6732 11.4807 22.7588C11.2324 23.7391 10.3515 24.424 9.33857 24.424C8.12006 24.424 7.12881 23.4327 7.12881 22.2142V21.2124C7.12882 21.1089 7.10344 21.007 7.05492 20.9156C7.00639 20.8241 6.93619 20.746 6.85045 20.688C6.5489 20.484 6.26003 20.2618 5.98546 20.0227C5.8894 19.939 5.77034 19.8862 5.64382 19.8712C3.82757 19.6559 2.45789 18.1124 2.45789 16.281C2.45789 15.7916 2.55382 15.3173 2.74281 14.871C2.79069 14.7581 2.80475 14.6338 2.78326 14.513C2.76178 14.3923 2.70568 14.2804 2.62179 14.191C1.99125 13.518 1.64406 12.6402 1.64406 11.7192C1.64406 10.6399 2.12117 9.62488 2.9532 8.93449C3.02384 8.87591 3.0809 8.80266 3.12041 8.71983C3.15992 8.637 3.18095 8.54657 3.18202 8.4548C3.18499 8.15826 3.25813 7.86663 3.39546 7.60379C3.4564 7.48652 3.47913 7.35314 3.46048 7.22231C3.44182 7.09148 3.3827 6.96976 3.29141 6.87421C3.20012 6.77865 3.08123 6.71405 2.95139 6.68944C2.82155 6.66484 2.68726 6.68146 2.56734 6.73699C2.44806 6.79286 2.31797 6.82188 2.18625 6.82199C1.67914 6.82199 1.26656 6.40941 1.26656 5.90223C1.26656 5.39512 1.67914 4.98254 2.18625 4.98254C2.21718 4.98254 2.24984 4.98434 2.28328 4.98801C2.38782 4.99923 2.49352 4.98432 2.59089 4.94463C2.68826 4.90493 2.77425 4.8417 2.84117 4.76059C2.89762 4.69158 2.96871 4.63599 3.0493 4.59785C3.12988 4.5597 3.21795 4.53996 3.3071 4.54004C3.4052 4.54018 3.50178 4.56421 3.58851 4.61005C3.67523 4.6559 3.74948 4.72218 3.80484 4.80317C3.88441 4.9193 4.0004 5.00561 4.13449 5.04847C4.26858 5.09134 4.41312 5.08832 4.5453 5.03989C4.67657 4.99123 4.81729 4.97354 4.95651 4.98819C5.09574 5.00284 5.2297 5.04943 5.34796 5.12434C5.41948 5.16936 5.49927 5.19963 5.58265 5.21338C5.66603 5.22714 5.75132 5.22409 5.8335 5.20442C5.91568 5.18466 5.99308 5.14867 6.06115 5.09856C6.12921 5.04845 6.18656 4.98523 6.22983 4.91262C6.87952 3.82145 8.07076 3.14364 9.33857 3.14364C9.93904 3.14364 10.5335 3.29364 11.0577 3.57747C11.1399 3.62198 11.231 3.64775 11.3243 3.65291C11.4177 3.65808 11.511 3.64251 11.5976 3.60734C11.6843 3.57216 11.762 3.51825 11.8253 3.44946C11.8887 3.38068 11.936 3.29873 11.9639 3.2095C12.2126 2.41286 12.9411 1.87778 13.7765 1.87778C14.3082 1.87778 14.8013 2.09255 15.1648 2.48231C15.2701 2.5952 15.4131 2.66574 15.5667 2.68067C15.7204 2.6956 15.8743 2.6539 15.9993 2.56341C16.619 2.11481 17.3512 1.87778 18.1168 1.87778C19.0747 1.87778 19.9776 2.24895 20.6592 2.92286C20.7225 2.98546 20.7983 3.034 20.8817 3.06532C20.965 3.09664 21.0541 3.11003 21.143 3.10462C21.2318 3.09921 21.3186 3.07512 21.3975 3.03392C21.4765 2.99272 21.5459 2.93534 21.6011 2.86552C21.9642 2.40692 22.5069 2.14388 23.0903 2.14388C23.359 2.14405 23.6246 2.2012 23.8695 2.31154C24.1145 2.42189 24.3332 2.58293 24.5114 2.78403C24.5888 2.87131 24.6888 2.93553 24.8003 2.9696C24.9119 3.00368 25.0307 3.00629 25.1437 2.97716C25.3 2.93687 25.4607 2.91647 25.6221 2.91645C25.8378 2.91645 26.0485 2.95364 26.2481 3.02333C26.1631 3.31248 26.1197 3.61226 26.1192 3.91364C26.1191 3.99681 26.1355 4.07917 26.1673 4.15602C26.1991 4.23287 26.2458 4.30269 26.3046 4.36151C26.3634 4.42032 26.4332 4.46698 26.5101 4.4988C26.5869 4.53063 26.6693 4.54701 26.7524 4.547C26.8356 4.54701 26.918 4.53063 26.9948 4.49881C27.0717 4.46698 27.1415 4.42033 27.2003 4.36151C27.2591 4.3027 27.3058 4.23287 27.3376 4.15603C27.3694 4.07918 27.3858 3.99682 27.3858 3.91364C27.3858 3.59762 27.4606 3.29747 27.6079 3.02153C27.7697 2.71739 28.0112 2.46303 28.3066 2.28573C28.6019 2.10844 28.94 2.01489 29.2845 2.01513C29.8913 2.01513 30.4472 2.29505 30.8099 2.78325C30.8641 2.85628 30.9334 2.91676 31.0131 2.96058C31.0929 3.0044 31.1811 3.03051 31.2718 3.03716C31.3625 3.04389 31.4537 3.03096 31.5389 2.99926C31.6242 2.96756 31.7016 2.91784 31.766 2.85348C31.875 2.74388 32.0046 2.65698 32.1474 2.5978C32.2903 2.53862 32.4434 2.50835 32.598 2.50872C33.2466 2.50872 33.7742 3.0363 33.7742 3.68489C33.7742 3.72856 33.7719 3.77161 33.7672 3.81403C33.7652 3.82684 33.7635 3.83981 33.7622 3.85278C33.6805 4.42215 33.1895 4.86114 32.5979 4.86114C32.3414 4.86114 32.0966 4.7784 31.8899 4.62176C31.8173 4.56667 31.7337 4.52791 31.6448 4.50816C31.5559 4.4884 31.4637 4.48811 31.3747 4.50731C31.2856 4.52635 31.2017 4.56439 31.1287 4.61883C31.0557 4.67328 30.9953 4.74285 30.9517 4.82278C30.8374 5.03185 30.6848 5.21756 30.5019 5.3702C30.3833 5.46945 30.3052 5.60865 30.2821 5.76155C30.2591 5.91446 30.2928 6.07051 30.3769 6.20027C30.7561 6.78482 30.9576 7.46679 30.957 8.16355C30.9578 8.73364 30.8229 9.29572 30.5635 9.80339C30.497 9.93382 30.4778 10.0833 30.509 10.2263C30.5403 10.3693 30.6201 10.4971 30.7349 10.5879C31.0197 10.8131 31.1831 11.1491 31.1831 11.5098C31.1831 11.6778 31.2498 11.8389 31.3686 11.9576C31.4873 12.0764 31.6484 12.1432 31.8164 12.1432H31.9452C31.987 12.4628 32.0135 12.7857 32.0208 13.1086C32.0227 13.1931 32.0414 13.2763 32.076 13.3534C32.1105 13.4305 32.1601 13.4999 32.2219 13.5575C32.6114 13.921 32.8259 14.414 32.8259 14.9456C32.8256 15.5617 32.5237 16.1424 32.0181 16.4986ZM35.5686 10.8764H32.3667C32.2756 10.5359 32.1113 10.2195 31.8853 9.94917C32.0152 9.61951 32.1086 9.2766 32.1638 8.9266C32.2036 8.67419 32.2235 8.41906 32.2234 8.16355C32.224 7.39827 32.0441 6.64365 31.6982 5.96098L31.7014 5.95723C31.9866 6.07036 32.2908 6.12821 32.5976 6.1277C33.6412 6.1277 34.5342 5.46973 34.8834 4.54692H35.5685C37.3135 4.54692 38.7333 5.96668 38.7333 7.71176C38.7333 9.45667 37.3137 10.8764 35.5686 10.8764Z" fill="white"/>
<path d="M33.8207 6.28613C33.5589 6.28613 33.3468 6.49832 33.3468 6.7602C33.3468 7.02207 33.559 7.23418 33.8207 7.23418C33.8829 7.23421 33.9446 7.22197 34.0021 7.19817C34.0596 7.17436 34.1119 7.13945 34.1559 7.09543C34.2 7.05141 34.2349 6.99915 34.2587 6.94163C34.2826 6.88411 34.2948 6.82246 34.2948 6.7602C34.2948 6.69793 34.2826 6.63628 34.2587 6.57875C34.2349 6.52122 34.2 6.46896 34.156 6.42493C34.1119 6.38091 34.0596 6.34599 34.0021 6.32218C33.9446 6.29836 33.8829 6.28611 33.8207 6.28613ZM28.9682 6.71348C28.8851 6.71347 28.8027 6.72984 28.7259 6.76167C28.649 6.7935 28.5792 6.84015 28.5204 6.89897C28.4616 6.95778 28.4149 7.02761 28.3831 7.10445C28.3513 7.1813 28.3349 7.26366 28.335 7.34684V9.38465C28.335 9.73449 28.6184 10.018 28.9682 10.018C29.3181 10.018 29.6016 9.73457 29.6016 9.38465V7.34684C29.6016 7.17886 29.5348 7.01778 29.4161 6.89901C29.2973 6.78023 29.1362 6.7135 28.9682 6.71348Z" fill="white"/>
</svg>
