<svg width="40" height="40" viewBox="0 0 40 40" fill="none" xmlns="http://www.w3.org/2000/svg">
<path d="M8.92421 19.4C8.15221 19.4 8.15221 20.6 8.92421 20.6C9.69621 20.6 9.69621 19.4 8.92421 19.4Z" fill="white"/>
<path d="M37.8921 9.72399C37.6601 8.99199 37.0161 8.49599 36.2361 8.52399C35.7681 8.53999 35.3601 8.75199 35.0961 9.13999C34.8081 9.57199 34.8201 10.112 34.8881 10.6C34.9321 10.912 35.3481 11.108 35.6281 11.02C35.9721 10.908 36.0881 10.616 36.0481 10.28C36.0001 9.87999 36.1881 9.72799 36.3681 9.72399C36.8601 9.71199 37.0641 10.556 36.5481 11.136C36.2521 11.472 35.7681 11.776 34.3201 11.188C33.3161 9.98799 32.0641 9.21599 30.5921 8.71599C27.0841 7.52399 23.1881 7.61999 19.5801 8.23599C17.5321 8.58799 15.5441 9.15199 13.7041 10.14C12.5636 10.753 11.5158 11.5247 10.5921 12.432C10.1801 11.828 7.64808 11.328 7.03608 10.156C6.84008 9.77999 6.09208 9.99199 6.03208 10.42C5.96008 10.944 5.98808 12.328 6.08808 13.044C5.62808 12.864 5.19608 12.636 4.82408 12.3C4.47608 11.988 3.74408 12.168 3.80008 12.724C3.93208 14.004 4.37608 15.168 5.12408 16.216C5.63608 16.936 6.26808 17.732 6.52408 18.596C6.40808 19.156 5.92008 19.592 5.01608 19.816C4.62408 19.916 3.30808 19.808 3.00008 19.744C2.66008 19.672 2.50008 19.928 2.42008 20.184C2.07208 21.304 1.80408 22.476 2.24808 23.616C2.44008 24.108 2.80008 24.484 3.32808 24.596C3.84008 24.704 4.43208 24.38 4.90408 24.644C5.22008 24.824 5.60008 25.192 5.99608 25.38C6.66008 25.696 7.38808 25.872 8.12808 25.872C8.48808 25.872 8.80008 25.852 9.13608 26.032C9.66408 26.308 9.61208 26.932 9.62808 27.36C9.64408 27.868 9.35608 30.508 9.19208 31.36C9.12008 31.736 9.35608 32.12 9.77208 32.12H12.0321C12.2801 32.12 12.5561 31.936 12.6121 31.68C12.7241 31.152 12.8881 29.66 13.2721 29.164C13.4801 29.928 13.4761 30.736 13.4441 31.52C13.4321 31.848 13.7281 32.116 14.0441 32.12C14.6201 32.124 15.2521 32.224 15.8121 32.052C16.3961 31.872 16.8121 31.376 17.1161 30.872C17.2921 30.58 17.7041 29.2 17.8841 29.108C18.2321 28.928 23.0921 28.784 24.3121 28.708C23.9481 29.596 23.3201 30.336 22.8641 31.2C22.6521 31.6 22.9121 32.1 23.3841 32.104C24.1321 32.112 24.9001 32.168 25.6441 32.116C26.2761 32.072 27.0161 31.836 27.1161 31.14C27.2121 30.488 27.7201 28.964 28.6641 28.592C29.1681 29.476 28.6041 30.792 28.5841 31.528C28.5761 31.852 28.8681 32.104 29.1841 32.128C29.9601 32.192 30.8121 32.276 31.6041 32.112C32.4521 31.94 32.8281 31.168 33.1801 30.448C33.8361 29.1 34.1121 27.704 34.1681 26.224C34.1881 25.616 34.6281 24.676 34.8481 24.256C35.2801 23.436 35.7481 22.636 36.0441 21.752C36.6801 19.876 36.6681 17.848 36.3281 15.916C36.1281 14.784 35.8161 13.688 35.3041 12.684C36.2241 12.764 37.1481 12.496 37.6561 11.644C37.9881 11.088 38.0961 10.344 37.9001 9.72399H37.8921ZM7.22808 11.968C7.70408 12.548 9.65208 12.984 9.78008 13.304C9.58408 13.528 9.39608 13.76 9.21608 14C8.84008 13.836 7.82408 13.564 7.25608 13.416C7.29208 12.98 7.23208 12.012 7.22808 11.964V11.968ZM11.5321 30.928H10.4721C10.5841 30.252 10.6841 29.572 10.7481 28.892C10.7921 28.412 10.8361 27.908 10.8361 27.412C11.0761 27.56 11.3201 27.7 11.5841 27.812C11.9041 27.948 12.2201 28.024 12.4921 28.148C11.8841 28.92 11.7121 29.968 11.5361 30.932L11.5321 30.928ZM26.5281 29.04C26.2481 29.448 26.1241 29.936 26.0161 30.416C25.9761 30.592 25.9721 30.888 25.5561 30.928C25.1881 30.964 24.8161 30.94 24.4441 30.932C24.5881 30.72 24.7321 30.508 24.8681 30.288C25.1881 29.772 25.4521 29.22 25.6121 28.636C25.7721 28.628 26.6481 28.572 26.9281 28.556C26.7881 28.708 26.6521 28.868 26.5321 29.04H26.5281ZM35.2441 19.984C35.1001 20.88 34.8201 21.74 34.4041 22.548C34.0241 23.288 33.5921 23.996 33.2881 24.772C32.8321 25.952 32.9281 27.236 32.6481 28.464C32.4361 29.404 31.8161 30.692 31.5201 30.892C31.2681 31.06 30.0441 30.968 29.8121 30.956C29.8561 30.456 29.9241 29.96 29.9801 29.456C30.0321 28.992 30.0321 28.5 29.7881 28.084C29.2441 27.156 28.1641 27.304 27.2441 27.34C25.6041 27.404 18.4721 27.876 17.9761 27.908C17.6001 27.936 17.2361 27.98 16.9681 28.272C16.6841 28.576 16.6081 29.04 16.4721 29.416C16.3241 29.832 16.1361 30.256 15.8521 30.596C15.5441 30.968 15.1041 30.988 14.6521 30.96C14.6721 29.76 14.5601 28.332 13.7121 27.492C13.2441 27.028 12.6281 26.96 12.0481 26.708C11.4361 26.44 10.9121 26.024 10.4201 25.58C9.90808 25.116 9.44808 24.708 8.72408 24.668C7.93608 24.624 7.26408 24.672 6.52808 24.316C6.12808 24.12 5.85208 23.816 5.47608 23.596C4.92408 23.276 4.38408 23.396 3.78408 23.432C3.31208 23.46 3.26808 22.984 3.22008 22.588C3.15208 22.06 3.29208 21.516 3.44008 20.996C4.68408 21.108 6.08008 21.16 6.97608 20.176C7.48008 19.624 7.80008 18.948 7.72408 18.444C7.58408 17.464 6.85208 16.6 6.28808 15.804C5.88008 15.228 5.53208 14.636 5.29608 14C6.10408 14.364 6.98408 14.572 7.84808 14.812C8.48808 14.992 9.18808 15.168 9.60808 15.724C10.0241 16.28 10.3081 17.06 10.1201 17.748C9.91608 18.492 11.0721 18.812 11.2761 18.068C11.5161 17.196 11.2961 16.292 10.8801 15.508C10.7041 15.168 10.4801 14.888 10.2241 14.652C12.2401 12.024 15.1881 10.416 18.4001 9.69199C21.7401 8.93999 25.3241 8.69999 28.6881 9.44399C30.0361 9.74399 31.5121 10.172 32.5641 11.112C33.6561 12.092 34.4081 13.268 34.8081 14.684C35.2921 16.388 35.5281 18.228 35.2401 19.992L35.2441 19.984Z" fill="white"/>
</svg>
