<svg width="61" height="50" viewBox="0 0 61 50" fill="none" xmlns="http://www.w3.org/2000/svg">
<path fill-rule="evenodd" clip-rule="evenodd" d="M32.8588 2.28526C36.2764 2.28526 40.4968 6.46246 43.888 9.81646C44.9476 10.8665 45.9352 11.8445 46.8124 12.6077C46.904 12.6893 47.0098 12.7536 47.1244 12.7973L51.4732 14.4809C53.4292 15.2393 57.004 18.6533 57.9352 21.8105C58.2604 22.9085 58.1908 23.7905 57.7276 24.4289C56.452 26.1965 52.4116 26.1413 49.9996 24.8477C49.2652 24.4553 48.7432 24.6233 48.4324 24.8405C47.698 25.3589 47.8216 26.2301 48.004 27.4397C48.3532 29.8145 48.9388 33.7889 44.6728 36.2537L43.4368 36.9665C43.2435 37.0781 43.0758 37.2291 42.9448 37.4098C42.8137 37.5905 42.7221 37.7968 42.676 38.0153C42.5788 38.4629 42.6808 38.9345 42.9532 39.3077L49.0948 47.7137H46.5628C46.4783 47.7155 46.3946 47.697 46.3187 47.6596C46.2429 47.6222 46.1772 47.5671 46.1272 47.4989L36.952 36.4097C36.1264 35.4101 34.4428 35.2421 33.6688 36.4025C31.6576 39.4061 29.0152 40.7837 25.1032 40.8725C24.1012 40.8941 23.3836 41.7113 23.3956 42.8141C23.4076 43.9637 24.1948 44.8301 25.2268 44.8301L34.7572 44.8445L34.7404 47.7137H11.7352C11.1352 47.7137 10.636 47.5061 10.2124 47.0849C9.81523 46.6853 7.75123 44.6861 6.23323 44.5325C4.06483 44.3153 2.36683 42.4337 2.36683 40.2545C2.36683 38.1533 3.72283 36.3677 5.66683 35.9177C6.24794 35.7827 6.76685 35.4563 7.14028 34.9911C7.5137 34.5258 7.71999 33.9486 7.72603 33.3521C7.83043 24.6161 15.0208 17.5073 23.752 17.5073L24.9484 17.4845C26.3368 17.4509 28.2424 17.4053 29.2192 17.7425L30.4156 18.1865C32.368 18.9341 34.5796 19.7789 36.7576 19.1981L39.2992 18.5201C40.0144 18.3305 40.4932 17.7017 40.4872 16.9589C40.4871 16.6035 40.3672 16.2586 40.1468 15.9799C39.9265 15.7012 39.6185 15.5049 39.2728 15.4229C32.6152 13.7801 27.466 10.3625 23.9368 5.25766H29.5876C33.4048 5.27086 37.5796 9.02566 41.2624 12.3425C42.1633 13.1646 43.0787 13.9707 44.008 14.7605C44.2247 14.9248 44.4963 14.9996 44.7666 14.9692C45.0368 14.9389 45.2851 14.8058 45.46 14.5975C45.6348 14.3891 45.7229 14.1216 45.7059 13.8501C45.6889 13.5787 45.5683 13.3242 45.3688 13.1393C44.4584 12.364 43.5615 11.5731 42.6784 10.7669C38.7376 7.22326 34.276 3.20806 29.686 3.14086C29.1088 3.00886 28.5496 2.72446 28 2.28406L32.8588 2.28526ZM51.3064 16.3733C50.9614 16.3733 50.6306 16.5103 50.3866 16.7543C50.1427 16.9982 50.0056 17.3291 50.0056 17.6741C50.0056 18.0191 50.1427 18.3499 50.3866 18.5939C50.6306 18.8378 50.9614 18.9749 51.3064 18.9749C51.6514 18.9749 51.9823 18.8378 52.2262 18.5939C52.4702 18.3499 52.6072 18.0191 52.6072 17.6741C52.6072 17.3291 52.4702 16.9982 52.2262 16.7543C51.9823 16.5103 51.6514 16.3733 51.3064 16.3733ZM45.376 8.31166C41.7076 4.68406 37.1464 0.168457 32.8576 0.168457H25.6036C25.409 0.168955 25.2182 0.223077 25.0522 0.324883C24.8863 0.426689 24.7516 0.572242 24.663 0.745568C24.5743 0.918894 24.5351 1.11329 24.5497 1.30742C24.5643 1.50156 24.6321 1.68792 24.7456 1.84606C25.0948 2.33086 25.4512 2.76166 25.8148 3.14206H22.006C21.8197 3.14289 21.6369 3.19273 21.476 3.28656C21.315 3.38039 21.1816 3.51491 21.089 3.67662C20.9965 3.83833 20.9481 4.02154 20.9488 4.20785C20.9495 4.39416 20.9991 4.57701 21.0928 4.73806C24.6124 10.7237 29.9284 14.8301 36.91 16.9685L36.2116 17.1545C34.6996 17.5673 32.902 16.8725 31.1728 16.2125L29.9128 15.7457C28.5688 15.2777 26.5336 15.3281 24.8956 15.3725L23.7508 15.3917C13.8652 15.3917 5.72563 23.4389 5.60923 33.3269C5.61005 33.4505 5.56826 33.5706 5.49088 33.667C5.41351 33.7633 5.30528 33.8301 5.18443 33.8561C2.28043 34.5305 0.250033 37.1597 0.250033 40.2557C0.244911 41.8472 0.833656 43.3834 1.90113 44.5638C2.9686 45.7442 4.43803 46.484 6.02203 46.6385C6.41923 46.6817 7.65523 47.5205 8.71723 48.5825C9.11115 48.9824 9.58137 49.2991 10.1 49.5139C10.6186 49.7287 11.1751 49.8372 11.7364 49.8329H34.7428C35.3089 49.8325 35.8517 49.6075 36.252 49.2072C36.6523 48.8069 36.8773 48.2641 36.8776 47.6981V44.8457C36.8764 44.2802 36.6509 43.7383 36.2507 43.3388C35.8506 42.9393 35.3083 42.7148 34.7428 42.7145H27.8596C31.0804 42.0977 33.5056 40.4573 35.3212 37.7609L44.4988 48.8501C44.7476 49.1582 45.0625 49.4065 45.4202 49.5766C45.7779 49.7467 46.1692 49.8343 46.5652 49.8329H50.116C50.7304 49.8329 51.28 49.4909 51.5488 48.9389C51.6817 48.6759 51.738 48.3808 51.7112 48.0874C51.6845 47.7939 51.5758 47.5139 51.3976 47.2793L44.9944 38.5145L45.7324 38.0873C51.1852 34.9397 50.4868 29.7677 50.1112 27.2141C53.3608 28.4333 57.6736 28.1141 59.4472 25.6697C60.2968 24.4889 60.478 22.9469 59.9668 21.2105C58.8952 17.5829 54.9352 13.5533 52.2376 12.5081L48.0664 10.8917C47.2528 10.1741 46.348 9.27526 45.376 8.31166Z" fill="white"/>
</svg>
