<svg width="61" height="60" viewBox="0 0 61 60" fill="none" xmlns="http://www.w3.org/2000/svg">
<mask id="path-1-outside-1_17378_1385" maskUnits="userSpaceOnUse" x="-0.750244" y="-0.932739" width="62" height="62" fill="black">
<rect fill="white" x="-0.750244" y="-0.932739" width="62" height="62"/>
<path d="M57.4342 34.1382C61.6037 32.2521 61.0019 25.9203 56.5593 24.8361C59.7365 20.8164 56.9306 14.2412 51.5285 14.7893C52.6837 12.3557 52.043 9.14868 49.8142 7.5439C47.4803 5.86357 44.1054 6.66409 42.8085 9.24652L37.1247 20.5643C32.4313 19.3474 27.3074 19.3017 22.8131 21.2858C19.8789 20.4053 21.4105 15.5575 21.6437 13.5325C21.7696 12.4386 20.0271 12.188 19.8956 13.3313C19.5831 16.0468 18.303 20.2289 20.9258 22.2634C16.9252 24.6714 14.3462 29.0987 16.0791 33.7811C17.4715 37.5432 21.1614 39.9349 25.9495 40.1785C29.05 40.3365 32.14 39.6452 34.9628 38.38C35.9674 37.9296 35.2936 36.304 34.2429 36.7742C31.4986 38.0045 28.7381 38.5582 26.0388 38.4211C22.5667 38.2444 19.0069 36.6217 17.7293 33.1702C15.922 28.2867 19.7836 24.41 23.9481 22.7148C26.6425 21.6181 31.1543 20.6815 37.3471 22.4476C40.3901 23.3153 43.2559 25.5883 44.9516 28.245C44.1252 29.2751 41.8934 31.8712 38.6891 34.1811C37.8017 34.8207 38.7728 36.29 39.718 35.6085C42.6275 33.5111 44.7516 31.2247 45.8598 29.9124C47.2462 32.9366 47.5332 36.438 46.6249 39.8141C45.2477 44.9329 40.4587 48.6488 35.0368 48.3027C34.8696 48.2932 34.7031 48.3315 34.557 48.4133C34.4108 48.4951 34.291 48.6168 34.2116 48.7643L31.7956 53.256H29.7022C27.8185 49.8221 23.5982 48.0078 20.0429 46.9063C14.4317 44.3663 10.7615 41.1168 9.116 37.2198C6.70919 31.5201 9.21912 25.9393 10.2908 23.556C10.6378 22.7845 10.983 22.0382 11.3914 21.2954C12.6068 19.0852 14.2714 16.058 13.3396 14.0007C12.9489 13.138 12.1813 12.5748 11.0582 12.3266C9.41502 11.9634 7.79839 10.8952 7.30957 9.21285C6.77042 7.3575 7.78467 6.00024 8.70824 4.52684C10.1569 2.84183 12.4465 1.62135 14.8903 1.85444C17.3308 2.08706 19.8598 3.06764 20.1151 8.57645C20.1659 9.67375 21.9261 9.64595 21.8728 8.49516C21.7471 5.78017 21.1187 3.78663 19.9519 2.40051C18.8242 1.06097 17.2231 0.30937 15.0572 0.102907C12.1057 -0.179337 9.18568 1.23939 7.30394 3.47588C6.85195 3.93831 2.33569 8.59827 0.371712 11.8887C0.00195518 12.508 0.525268 13.3037 1.23991 13.2121L7.31684 12.4272C8.63387 14.3744 6.64337 16.6884 5.27743 17.9339C3.57142 19.4893 2.9986 21.8356 3.818 23.9112C4.42918 25.4595 5.70209 26.4707 7.21525 26.6557C6.31034 29.6729 5.74702 33.7649 7.49492 37.9042C9.29114 42.1579 13.1742 45.6758 19.0593 48.3915L20.8844 54.4177C21.0618 55.0035 21.6971 55.1003 22.2127 55.044L21.7276 58.1725H17.4786C16.3775 58.1725 16.3274 59.9321 17.4786 59.9321H31.7274C32.8285 59.9321 32.8786 58.1725 31.7274 58.1725H31.0276L31.5591 55.0155C32.0653 55.0697 32.8181 55.0692 33.0961 54.5525L35.5097 50.0652C36.4347 50.0476 38.3624 49.9014 40.486 49.1023C41.8157 50.7471 43.1111 53.0121 45.499 53.0121C47.739 53.0121 49.5973 51.0377 49.4524 48.8034C53.0779 49.5033 56.0896 45.5907 54.5618 42.252C58.5686 41.9854 60.3777 36.875 57.4342 34.1382ZM5.38993 8.17115C5.38653 9.09953 5.61493 9.99295 6.07079 10.8142L2.93924 11.2187C3.67348 10.2155 4.54625 9.15032 5.38993 8.17115ZM7.75124 24.9298C6.72842 24.9449 5.87137 24.3207 5.45492 23.2655C5.03824 22.2099 5.05232 20.5209 6.46331 19.2345C8.49321 17.3837 9.51427 15.5469 9.49796 13.7754C9.49737 13.7183 11.4885 14.1786 11.7368 14.7269C12.3053 15.9821 10.7079 18.8872 9.84965 20.4478C9.62465 20.8569 7.96837 24.9253 7.75124 24.9298ZM21.1724 49.2981C21.6352 49.4826 22.1008 49.6601 22.5689 49.8306C23.5373 50.183 24.3498 50.5871 25.0319 51.0061L24.1416 53.2908L22.3801 53.2853L21.1724 49.2981ZM29.2434 58.173H23.5083L23.9926 55.05L24.7394 55.0523H24.7421C24.9192 55.0523 25.0923 54.9988 25.2385 54.8989C25.3848 54.7989 25.4975 54.6571 25.5618 54.492L26.4998 52.0852C27.8676 53.2927 28.2972 54.3683 28.3236 54.4373C28.3854 54.6069 28.4979 54.7534 28.6458 54.8569C28.7936 54.9604 28.9698 55.0159 29.1503 55.0159H29.775L29.2434 58.173ZM58.5471 29.51C58.5978 31.2261 57.2955 32.7215 55.5568 32.8147L48.6834 33.1832C48.4716 31.9095 48.1054 30.6663 47.5931 29.4811L50.4922 28.2544L54.0232 26.7604C56.0535 25.8582 58.4929 27.2148 58.5471 29.51ZM44.381 10.0364C46.5252 6.02957 52.7008 11.1569 49.2861 15.0233L42.2608 22.9777C41.2121 22.2195 40.0512 21.5578 38.83 21.09L44.381 10.0364ZM43.6351 24.0796L49.1211 17.868C53.5804 12.8194 59.8475 22.3803 53.3411 25.1385L46.8017 27.9052L46.7743 27.8576C46.7728 27.8552 46.7714 27.8526 46.7699 27.8502C46.5956 27.5492 46.4111 27.2541 46.2168 26.9655C45.5858 26.0311 44.6988 25.0217 43.6351 24.0796ZM47.6768 49.3849C47.4028 51.1859 45.0056 51.8939 43.8376 50.4495L42.1404 48.3502C43.2511 47.7493 44.4023 46.9164 45.4362 45.7621L47.1372 47.615C47.3545 47.8504 47.5158 48.1318 47.6092 48.4383C47.7026 48.7447 47.7258 49.0683 47.6768 49.3849ZM52.5313 46.0384C51.3793 47.3826 49.4018 47.4799 48.1902 46.1599L46.5252 44.3462C47.257 43.2365 47.8792 41.9068 48.3129 40.3107L51.373 41.4877C53.1751 42.1812 53.8149 44.5643 52.5313 46.0384ZM56.9853 38.573C56.4087 40.0728 54.7305 40.8939 53.2038 40.3065L52.0047 39.8453L52.0041 39.845L48.6898 38.5702C48.8853 37.3689 48.949 36.1499 48.8796 34.9347L54.0998 34.6549C56.1473 34.5432 57.7109 36.6501 56.9853 38.573Z"/>
</mask>
<path d="M57.4342 34.1382C61.6037 32.2521 61.0019 25.9203 56.5593 24.8361C59.7365 20.8164 56.9306 14.2412 51.5285 14.7893C52.6837 12.3557 52.043 9.14868 49.8142 7.5439C47.4803 5.86357 44.1054 6.66409 42.8085 9.24652L37.1247 20.5643C32.4313 19.3474 27.3074 19.3017 22.8131 21.2858C19.8789 20.4053 21.4105 15.5575 21.6437 13.5325C21.7696 12.4386 20.0271 12.188 19.8956 13.3313C19.5831 16.0468 18.303 20.2289 20.9258 22.2634C16.9252 24.6714 14.3462 29.0987 16.0791 33.7811C17.4715 37.5432 21.1614 39.9349 25.9495 40.1785C29.05 40.3365 32.14 39.6452 34.9628 38.38C35.9674 37.9296 35.2936 36.304 34.2429 36.7742C31.4986 38.0045 28.7381 38.5582 26.0388 38.4211C22.5667 38.2444 19.0069 36.6217 17.7293 33.1702C15.922 28.2867 19.7836 24.41 23.9481 22.7148C26.6425 21.6181 31.1543 20.6815 37.3471 22.4476C40.3901 23.3153 43.2559 25.5883 44.9516 28.245C44.1252 29.2751 41.8934 31.8712 38.6891 34.1811C37.8017 34.8207 38.7728 36.29 39.718 35.6085C42.6275 33.5111 44.7516 31.2247 45.8598 29.9124C47.2462 32.9366 47.5332 36.438 46.6249 39.8141C45.2477 44.9329 40.4587 48.6488 35.0368 48.3027C34.8696 48.2932 34.7031 48.3315 34.557 48.4133C34.4108 48.4951 34.291 48.6168 34.2116 48.7643L31.7956 53.256H29.7022C27.8185 49.8221 23.5982 48.0078 20.0429 46.9063C14.4317 44.3663 10.7615 41.1168 9.116 37.2198C6.70919 31.5201 9.21912 25.9393 10.2908 23.556C10.6378 22.7845 10.983 22.0382 11.3914 21.2954C12.6068 19.0852 14.2714 16.058 13.3396 14.0007C12.9489 13.138 12.1813 12.5748 11.0582 12.3266C9.41502 11.9634 7.79839 10.8952 7.30957 9.21285C6.77042 7.3575 7.78467 6.00024 8.70824 4.52684C10.1569 2.84183 12.4465 1.62135 14.8903 1.85444C17.3308 2.08706 19.8598 3.06764 20.1151 8.57645C20.1659 9.67375 21.9261 9.64595 21.8728 8.49516C21.7471 5.78017 21.1187 3.78663 19.9519 2.40051C18.8242 1.06097 17.2231 0.30937 15.0572 0.102907C12.1057 -0.179337 9.18568 1.23939 7.30394 3.47588C6.85195 3.93831 2.33569 8.59827 0.371712 11.8887C0.00195518 12.508 0.525268 13.3037 1.23991 13.2121L7.31684 12.4272C8.63387 14.3744 6.64337 16.6884 5.27743 17.9339C3.57142 19.4893 2.9986 21.8356 3.818 23.9112C4.42918 25.4595 5.70209 26.4707 7.21525 26.6557C6.31034 29.6729 5.74702 33.7649 7.49492 37.9042C9.29114 42.1579 13.1742 45.6758 19.0593 48.3915L20.8844 54.4177C21.0618 55.0035 21.6971 55.1003 22.2127 55.044L21.7276 58.1725H17.4786C16.3775 58.1725 16.3274 59.9321 17.4786 59.9321H31.7274C32.8285 59.9321 32.8786 58.1725 31.7274 58.1725H31.0276L31.5591 55.0155C32.0653 55.0697 32.8181 55.0692 33.0961 54.5525L35.5097 50.0652C36.4347 50.0476 38.3624 49.9014 40.486 49.1023C41.8157 50.7471 43.1111 53.0121 45.499 53.0121C47.739 53.0121 49.5973 51.0377 49.4524 48.8034C53.0779 49.5033 56.0896 45.5907 54.5618 42.252C58.5686 41.9854 60.3777 36.875 57.4342 34.1382ZM5.38993 8.17115C5.38653 9.09953 5.61493 9.99295 6.07079 10.8142L2.93924 11.2187C3.67348 10.2155 4.54625 9.15032 5.38993 8.17115ZM7.75124 24.9298C6.72842 24.9449 5.87137 24.3207 5.45492 23.2655C5.03824 22.2099 5.05232 20.5209 6.46331 19.2345C8.49321 17.3837 9.51427 15.5469 9.49796 13.7754C9.49737 13.7183 11.4885 14.1786 11.7368 14.7269C12.3053 15.9821 10.7079 18.8872 9.84965 20.4478C9.62465 20.8569 7.96837 24.9253 7.75124 24.9298ZM21.1724 49.2981C21.6352 49.4826 22.1008 49.6601 22.5689 49.8306C23.5373 50.183 24.3498 50.5871 25.0319 51.0061L24.1416 53.2908L22.3801 53.2853L21.1724 49.2981ZM29.2434 58.173H23.5083L23.9926 55.05L24.7394 55.0523H24.7421C24.9192 55.0523 25.0923 54.9988 25.2385 54.8989C25.3848 54.7989 25.4975 54.6571 25.5618 54.492L26.4998 52.0852C27.8676 53.2927 28.2972 54.3683 28.3236 54.4373C28.3854 54.6069 28.4979 54.7534 28.6458 54.8569C28.7936 54.9604 28.9698 55.0159 29.1503 55.0159H29.775L29.2434 58.173ZM58.5471 29.51C58.5978 31.2261 57.2955 32.7215 55.5568 32.8147L48.6834 33.1832C48.4716 31.9095 48.1054 30.6663 47.5931 29.4811L50.4922 28.2544L54.0232 26.7604C56.0535 25.8582 58.4929 27.2148 58.5471 29.51ZM44.381 10.0364C46.5252 6.02957 52.7008 11.1569 49.2861 15.0233L42.2608 22.9777C41.2121 22.2195 40.0512 21.5578 38.83 21.09L44.381 10.0364ZM43.6351 24.0796L49.1211 17.868C53.5804 12.8194 59.8475 22.3803 53.3411 25.1385L46.8017 27.9052L46.7743 27.8576C46.7728 27.8552 46.7714 27.8526 46.7699 27.8502C46.5956 27.5492 46.4111 27.2541 46.2168 26.9655C45.5858 26.0311 44.6988 25.0217 43.6351 24.0796ZM47.6768 49.3849C47.4028 51.1859 45.0056 51.8939 43.8376 50.4495L42.1404 48.3502C43.2511 47.7493 44.4023 46.9164 45.4362 45.7621L47.1372 47.615C47.3545 47.8504 47.5158 48.1318 47.6092 48.4383C47.7026 48.7447 47.7258 49.0683 47.6768 49.3849ZM52.5313 46.0384C51.3793 47.3826 49.4018 47.4799 48.1902 46.1599L46.5252 44.3462C47.257 43.2365 47.8792 41.9068 48.3129 40.3107L51.373 41.4877C53.1751 42.1812 53.8149 44.5643 52.5313 46.0384ZM56.9853 38.573C56.4087 40.0728 54.7305 40.8939 53.2038 40.3065L52.0047 39.8453L52.0041 39.845L48.6898 38.5702C48.8853 37.3689 48.949 36.1499 48.8796 34.9347L54.0998 34.6549C56.1473 34.5432 57.7109 36.6501 56.9853 38.573Z" fill="white"/>
<path d="M57.4342 34.1382C61.6037 32.2521 61.0019 25.9203 56.5593 24.8361C59.7365 20.8164 56.9306 14.2412 51.5285 14.7893C52.6837 12.3557 52.043 9.14868 49.8142 7.5439C47.4803 5.86357 44.1054 6.66409 42.8085 9.24652L37.1247 20.5643C32.4313 19.3474 27.3074 19.3017 22.8131 21.2858C19.8789 20.4053 21.4105 15.5575 21.6437 13.5325C21.7696 12.4386 20.0271 12.188 19.8956 13.3313C19.5831 16.0468 18.303 20.2289 20.9258 22.2634C16.9252 24.6714 14.3462 29.0987 16.0791 33.7811C17.4715 37.5432 21.1614 39.9349 25.9495 40.1785C29.05 40.3365 32.14 39.6452 34.9628 38.38C35.9674 37.9296 35.2936 36.304 34.2429 36.7742C31.4986 38.0045 28.7381 38.5582 26.0388 38.4211C22.5667 38.2444 19.0069 36.6217 17.7293 33.1702C15.922 28.2867 19.7836 24.41 23.9481 22.7148C26.6425 21.6181 31.1543 20.6815 37.3471 22.4476C40.3901 23.3153 43.2559 25.5883 44.9516 28.245C44.1252 29.2751 41.8934 31.8712 38.6891 34.1811C37.8017 34.8207 38.7728 36.29 39.718 35.6085C42.6275 33.5111 44.7516 31.2247 45.8598 29.9124C47.2462 32.9366 47.5332 36.438 46.6249 39.8141C45.2477 44.9329 40.4587 48.6488 35.0368 48.3027C34.8696 48.2932 34.7031 48.3315 34.557 48.4133C34.4108 48.4951 34.291 48.6168 34.2116 48.7643L31.7956 53.256H29.7022C27.8185 49.8221 23.5982 48.0078 20.0429 46.9063C14.4317 44.3663 10.7615 41.1168 9.116 37.2198C6.70919 31.5201 9.21912 25.9393 10.2908 23.556C10.6378 22.7845 10.983 22.0382 11.3914 21.2954C12.6068 19.0852 14.2714 16.058 13.3396 14.0007C12.9489 13.138 12.1813 12.5748 11.0582 12.3266C9.41502 11.9634 7.79839 10.8952 7.30957 9.21285C6.77042 7.3575 7.78467 6.00024 8.70824 4.52684C10.1569 2.84183 12.4465 1.62135 14.8903 1.85444C17.3308 2.08706 19.8598 3.06764 20.1151 8.57645C20.1659 9.67375 21.9261 9.64595 21.8728 8.49516C21.7471 5.78017 21.1187 3.78663 19.9519 2.40051C18.8242 1.06097 17.2231 0.30937 15.0572 0.102907C12.1057 -0.179337 9.18568 1.23939 7.30394 3.47588C6.85195 3.93831 2.33569 8.59827 0.371712 11.8887C0.00195518 12.508 0.525268 13.3037 1.23991 13.2121L7.31684 12.4272C8.63387 14.3744 6.64337 16.6884 5.27743 17.9339C3.57142 19.4893 2.9986 21.8356 3.818 23.9112C4.42918 25.4595 5.70209 26.4707 7.21525 26.6557C6.31034 29.6729 5.74702 33.7649 7.49492 37.9042C9.29114 42.1579 13.1742 45.6758 19.0593 48.3915L20.8844 54.4177C21.0618 55.0035 21.6971 55.1003 22.2127 55.044L21.7276 58.1725H17.4786C16.3775 58.1725 16.3274 59.9321 17.4786 59.9321H31.7274C32.8285 59.9321 32.8786 58.1725 31.7274 58.1725H31.0276L31.5591 55.0155C32.0653 55.0697 32.8181 55.0692 33.0961 54.5525L35.5097 50.0652C36.4347 50.0476 38.3624 49.9014 40.486 49.1023C41.8157 50.7471 43.1111 53.0121 45.499 53.0121C47.739 53.0121 49.5973 51.0377 49.4524 48.8034C53.0779 49.5033 56.0896 45.5907 54.5618 42.252C58.5686 41.9854 60.3777 36.875 57.4342 34.1382ZM5.38993 8.17115C5.38653 9.09953 5.61493 9.99295 6.07079 10.8142L2.93924 11.2187C3.67348 10.2155 4.54625 9.15032 5.38993 8.17115ZM7.75124 24.9298C6.72842 24.9449 5.87137 24.3207 5.45492 23.2655C5.03824 22.2099 5.05232 20.5209 6.46331 19.2345C8.49321 17.3837 9.51427 15.5469 9.49796 13.7754C9.49737 13.7183 11.4885 14.1786 11.7368 14.7269C12.3053 15.9821 10.7079 18.8872 9.84965 20.4478C9.62465 20.8569 7.96837 24.9253 7.75124 24.9298ZM21.1724 49.2981C21.6352 49.4826 22.1008 49.6601 22.5689 49.8306C23.5373 50.183 24.3498 50.5871 25.0319 51.0061L24.1416 53.2908L22.3801 53.2853L21.1724 49.2981ZM29.2434 58.173H23.5083L23.9926 55.05L24.7394 55.0523H24.7421C24.9192 55.0523 25.0923 54.9988 25.2385 54.8989C25.3848 54.7989 25.4975 54.6571 25.5618 54.492L26.4998 52.0852C27.8676 53.2927 28.2972 54.3683 28.3236 54.4373C28.3854 54.6069 28.4979 54.7534 28.6458 54.8569C28.7936 54.9604 28.9698 55.0159 29.1503 55.0159H29.775L29.2434 58.173ZM58.5471 29.51C58.5978 31.2261 57.2955 32.7215 55.5568 32.8147L48.6834 33.1832C48.4716 31.9095 48.1054 30.6663 47.5931 29.4811L50.4922 28.2544L54.0232 26.7604C56.0535 25.8582 58.4929 27.2148 58.5471 29.51ZM44.381 10.0364C46.5252 6.02957 52.7008 11.1569 49.2861 15.0233L42.2608 22.9777C41.2121 22.2195 40.0512 21.5578 38.83 21.09L44.381 10.0364ZM43.6351 24.0796L49.1211 17.868C53.5804 12.8194 59.8475 22.3803 53.3411 25.1385L46.8017 27.9052L46.7743 27.8576C46.7728 27.8552 46.7714 27.8526 46.7699 27.8502C46.5956 27.5492 46.4111 27.2541 46.2168 26.9655C45.5858 26.0311 44.6988 25.0217 43.6351 24.0796ZM47.6768 49.3849C47.4028 51.1859 45.0056 51.8939 43.8376 50.4495L42.1404 48.3502C43.2511 47.7493 44.4023 46.9164 45.4362 45.7621L47.1372 47.615C47.3545 47.8504 47.5158 48.1318 47.6092 48.4383C47.7026 48.7447 47.7258 49.0683 47.6768 49.3849ZM52.5313 46.0384C51.3793 47.3826 49.4018 47.4799 48.1902 46.1599L46.5252 44.3462C47.257 43.2365 47.8792 41.9068 48.3129 40.3107L51.373 41.4877C53.1751 42.1812 53.8149 44.5643 52.5313 46.0384ZM56.9853 38.573C56.4087 40.0728 54.7305 40.8939 53.2038 40.3065L52.0047 39.8453L52.0041 39.845L48.6898 38.5702C48.8853 37.3689 48.949 36.1499 48.8796 34.9347L54.0998 34.6549C56.1473 34.5432 57.7109 36.6501 56.9853 38.573Z" stroke="white" stroke-width="0.4" mask="url(#path-1-outside-1_17378_1385)"/>
<path d="M15.1508 5.86582L15.1508 5.86583C15.288 6.00278 15.3815 6.17736 15.4195 6.36747C15.4574 6.55757 15.4381 6.75466 15.364 6.9338C15.2899 7.11293 15.1644 7.26606 15.0032 7.37381C14.8421 7.48153 14.6526 7.53905 14.4588 7.53909C14.4588 7.53909 14.4587 7.53909 14.4587 7.53909L14.4587 7.43909C14.3433 7.43925 14.229 7.41663 14.1223 7.37252C14.0157 7.32842 13.9188 7.26369 13.8372 7.18207L15.1508 5.86582ZM15.1508 5.86582C14.049 4.76605 12.2564 4.76567 11.1544 5.86593C11.0634 5.95682 10.9911 6.06477 10.9417 6.1836M15.1508 5.86582L10.9417 6.1836M11.1533 7.25156C11.1533 7.25155 11.1532 7.25153 11.1532 7.25152L11.224 7.1809L11.1533 7.25156ZM11.1533 7.25156C11.0623 7.16051 10.9902 7.05245 10.9411 6.93353M11.1533 7.25156L10.9411 6.93353M10.9417 6.1836C10.8924 6.30244 10.8669 6.42983 10.8668 6.5585M10.9417 6.1836L10.8668 6.5585M10.8668 6.5585C10.8667 6.68718 10.8919 6.81461 10.9411 6.93353M10.8668 6.5585L10.9411 6.93353M12.5389 7.2527C12.8772 6.91504 13.4279 6.91491 13.7665 7.25276L15.0802 5.9366C14.0174 4.87578 12.288 4.87543 11.2251 5.93672C11.1433 6.01833 11.0784 6.11526 11.0341 6.22196C10.9898 6.32866 10.9669 6.44305 10.9668 6.55859C10.9667 6.67413 10.9894 6.78855 11.0335 6.89533C11.0776 7.00211 11.1424 7.09914 11.224 7.18089C11.3056 7.26269 11.4026 7.32761 11.5093 7.37193C11.616 7.41626 11.7303 7.43912 11.8459 7.43922C11.9614 7.43932 12.0759 7.41665 12.1826 7.37251C12.2894 7.32836 12.3865 7.26361 12.4682 7.18195L12.5388 7.25273C12.5389 7.25272 12.5389 7.25271 12.5389 7.2527Z" fill="white" stroke="white" stroke-width="0.2"/>
</svg>
