<svg xmlns="http://www.w3.org/2000/svg" xmlns:xlink="http://www.w3.org/1999/xlink"><symbol id="sprite-beef" fill="none" viewBox="0 0 40 40"><path fill="#fff" d="M33.24 39.49c-.23.52-.54.5-.94.5h-1.86c-1.1.01-1.4-.43-1-1.9l.3-1.08c.27-.95.63-2.35.74-3.36a9 9 0 0 0-1.23-5.15c-.93-1.65-1.98-2.84-3.6-2.85-.78 0-1.54.15-2.32.21l-3.59.02q-.35.01-.7-.04l-1.88-.2c-.43.4-.6 3.53-.55 4.2l.08.9c.19 2.6-.3 2.99-.72 5.3l-.31 2.14c-.23 2-.2 1.8-1.6 1.8h-3c-.24 0-.6.07-.83-.05l-.03-.02c-.53-.3-.5-.82-.35-1.42l.14-.59c.45-2.08.99-4.06.44-6.24-.27-1.1-.86-1.93-1.17-3a19 19 0 0 1-.44-2.04 13 13 0 0 0-1.09-3.65l-.63-1.32a16 16 0 0 1-1.52-5.94c-.58-.26-1.9-1.1-1.92-2.1-.02-.72.44-1.4.77-1.91l-.8-3.23c-.03-.03-.08.02-.11.03-1.43.36-2.5-.53-3.24-2.1q-.17-.31-.25-.67a18 18 0 0 1 0-2.06c.81-.49 1.61-.46 2.48-.46-.38-.82-1.3-2.73-.16-3.2.62-.09.67.43 1.03.96.24.36 1.15 1.2 1.52.94l.32-.21a3.6 3.6 0 0 1 3.9.07l.46.28c.42.25 1.4-.49 1.71-.83.34-.36.55-1.07.99-1.19.33-.08.7.15.76.63.08.69-.18 1.18-.44 1.74l-.46.92c.12.03.26 0 .39 0 1.4.02 2.14.34 1.7 2.51q-.03.17-.09.33l-.02.05c.64.05 1.3.01 1.94.01l10.8.05c.31 0 .61.06.92.06l3.96.02c1.29.07 2.7.45 3.55 1.85.12.2.08.23.26.24l.32.02c1.4.12 2.56 1.8 2.94 3.53q.21 1.1.2 2.22v1.55c0 2.58.79 1.67.95 2.51.32 1.62-1.56 1.66-2.1-.49-.67-2.58.54-5.38-1.53-7.29.23 2.03.1 3.17-.3 5.12l-.61 3.06-.8 5.6c-.23 2-.24 1.69.21 3.66.47 2.06.05 3.17-.45 5.07l-.45 1.97c-.22.93-.55 1.92-.61 2.9-.03.5.07 1.15-.07 1.62m-26.4-36.47c-1.63.24-2.29 1.69-2.11 3.8.08.9.79 3.87 1.18 4.76.5-.15.96-.27 1.47-.2l.8.24c.24-.48.39-1.06.55-1.6.57-1.89 1.5-5.04-.12-6.51-.53-.48-1.16-.54-1.78-.48m-5.51 2.03c.45 1.18.96 1.72 1.92 1.73l.03-1.6c-.26-.1-1.6-.14-1.95-.13m9.73.08-.12.04a7 7 0 0 0-.05 1.44c.54-.01 1 .02 1.43-.5a7 7 0 0 0 .53-.96zm4.78 2.91-1.4.05c-.15.13-.28.47-.39.67a12 12 0 0 0-1.52 3.98c-.23 1.73.3 2.63-.39 4.46a12 12 0 0 1-3.24 4.57l-.06.05q.38.78.7 1.6l.28.93c.03.12.06.3.12.4 1.83.1 4.49.33 4.36 3.63-.02.5-.1 1-.07 1.5q.05.73.13 1.47c.16 1.87-.14 3.02-.48 4.8l-.27 1.37c-.13.7-.22.7.17.7h.52c.07-1.21.27-2.45.55-3.61.35-1.38.64-2.1.5-3.6q-.09-.6-.13-1.2c-.06-1.43.14-4.58 1-5.55.45-.52 1.13-.46 1.69-.4q2.38.29 4.77.17l2.9-.23c1.58-.02 2.5.41 3.6 1.87 2.79 3.66 3.3 6.85 2.01 11.54l-.3.98 1.06-.03c.07-1.17.32-2.18.56-3.3l.5-2.22c.47-1.74.94-2.67.4-4.5-.55-1.88-.3-2.75-.08-4.72l.89-5.84.44-2.2c.37-1.75.77-3.74-.07-5.37-.75-1.46-1.84-1.84-3.07-1.85h-1.76c-.18-.01-.36-.07-.54-.08l-11.24-.01.12.83c.17.93.43 1.99.93 2.68.63.88 1.54 1.2 2.1 2.22.59 1.08.5 1.8.85 2.72a2.2 2.2 0 0 0 2.74 1.38c1.05-.35 1.19-1.22 1.8-2.12.9-1.33 2.1-.9 3.1-.1 1.13.9 1.9 2.48 2.22 4.18.8 4.35-1.25 3.64-1.3 2.68-.03-.56.1-1.12.02-1.84-.17-1.6-1.38-4-2.75-3.9-.38.02-1.15 2.7-3.25 3-1.05.14-2.13-.04-2.97-.95-1.27-1.4-.87-2.55-1.55-3.89-.3-.6-.8-.82-1.24-1.18-1.37-1.13-2.03-3.42-2.19-5.5q0-.12-.03-.22zm-3.21.03c-.8.36-1.26.43-2.1.43q-.06.26-.08.53l-.26 1.15c-.16.6-.6 1.59-.6 2.2.19.42.5.75.4 1.31a2.8 2.8 0 0 1-1.73 1.89q-.25.04-.5.02h-.83a13 13 0 0 0 1.2 4.67 11 11 0 0 0 2.73-3.78c.28-.69.26-1.05.26-1.82-.01-2.65.01-3.51 1.26-5.89.04-.08.5-.78.25-.7m-5.42 4.89c-.34.14-.76.78-1.08.56-1.27-.88-1.15.31-.09.37l1.17-.03c.46 0 .77-.03 1.19-.34-.39-.15-.8-.59-1.2-.56m2.95 13.62c.23 1.02.6 1.86 1.01 2.8 1.03 2.31 1 3.9.72 6.46-.06.54.27.67.17 1.03-.12.44-.7.03-.72 1.2l.58.05.1-.3.73-2.95c.2-.98.33-1.85.3-2.87-.02-.73-.18-1.43-.19-2.16-.01-.56.15-1.61.03-2.08l-.01-.04c-.27-.95-2.11-1.14-2.71-1.17z"/></symbol><use xlink:href="#sprite-beef" width="40" height="40"/><view id="sprite-beef-view" viewBox="0 0 40 40"/><symbol id="sprite-buffalo" fill="none" viewBox="0 0 42 40"><path fill="#fff" d="M9.3 14.15c-1.75.93-2.46 3.2-3.25 4.87a4 4 0 0 0-2.36-1.48c-1.09-.26-3.31.78-2.61 2.36.9 1.84 4.63 1.9 5.7.54.44-.55.85-1.66 1.22-2.47-.47 6.12-4.24 4.6-4.07 13.85a.7.7 0 0 0 .68.68h3.47a.7.7 0 0 0 .67-.63c.12-1.7.73-4.3 1.68-4.56l2.46-.4c.18 6.46-1.29 5.54 3.83 5.59 1.76-.09-1.05-3.48 1.3-6.05 1.43.02 2.72.21 3.68.7a27 27 0 0 1 1.02 4.75.7.7 0 0 0 .68.6c5.73.1 3.54.1 2.57-4.6a12 12 0 0 0 2.73-.34c2.5 5.66.62 4.91 5.27 4.94a.68.68 0 0 0 .64-.9l-2.19-6.46c1.02-1.39 1.14-3.44 2.06-4.66.57-.6 2.89 1.9 3.8 1.48 1.95-.7 3.21-4.3 2.58-5-.6-.92-1.3-1.86-1.92-3.14 2.48-2.65 1.53-4.78.26-6.1a.68.68 0 1 0-.98.93c.8.83 1.48 1.99.19 3.7-.43-1.19-1.6-2.02-2.44-2.49.36-.45 1.73-.79 1.5-1.63a.7.7 0 0 0-.68-.48c-2.19.11-3.83.8-4.9 1.74-4.78-1.97-8.31 2.66-12.76 3.5-2.57.44-7.85.15-9.83 1.16m-5.7 5.86c-1.75-.2-1.93-1.4-.23-1.31.96.14 1.52.66 1.64 1.24q-.7.16-1.42.07zm10.62 11.13c-.03-.81.06-3.53.03-4.42q1.05-.14 2.09-.21a6.8 6.8 0 0 0-.48 4.63zm17.35 0-1.58-4q.75-.32 1.4-.83l1.63 4.83zm-21.62-15.8c1.86-.83 7.02-.57 9.4-1 3.84-.44 7.67-5.03 11.58-3.72-1.27 2.1-.06 4.53 2.63 4.79a.68.68 0 1 0 .16-1.35c-3.22-.43-1.95-3.63.47-4.38-1.09 1.31-1.29 2.56.5 3.58.77.41 1.4-.82.62-1.2-.57-.28-.77-.63-.34-1.19.78.38 1.97 1.13 2.2 2.08.49 1.83 1.72 3.5 2.52 4.69.12.46-1.2 2.85-1.66 2.98-2.97-1.79-4.4-2.94-5.71 1.38-.85 3.77-3.68 4.53-6.43 4.54.45-1.9 1.3-5.95 1.32-6.13.18-.86-1.18-1.13-1.33-.26 0 .04-.76 3.85-1.25 5.76-.4 1.55.37 3.9.89 5.23h-1.53c-.17-1.16-.61-3.73-1.38-5.35-.88-1.86-1-4.38-1-4.4-.03-.89-1.38-.84-1.35.05 0 .1.09 2.11.75 4.02-2.41-.64-5.65-.31-8.55.14.69-.76 2.48-4.73 2.47-4.91.32-.82-.97-1.3-1.26-.48a30 30 0 0 1-1.28 2.86c-1.34 2.56-2.02 2.85-2.31 2.93-1.48.15-2.51 3.46-2.61 5.14h-2.17c.01-8.39 3.91-6.74 4.1-13.67.08-1.18.16-1.93.55-2.12"/></symbol><use xlink:href="#sprite-buffalo" width="42" height="40" y="40"/><view id="sprite-buffalo-view" viewBox="0 40 42 40"/><symbol id="sprite-burger-open" fill="none" viewBox="0 0 24 24"><g clip-path="url(#a)"><path fill="#fff" d="M3 4h18v2h-18zm6 7h12v2h-12zm-6 7h18v2h-18z"/></g><defs><clipPath id="a"><path fill="currentColor" d="M0 0h24v24h-24z"/></clipPath></defs></symbol><use xlink:href="#sprite-burger-open" width="24" height="24" y="80"/><view id="sprite-burger-open-view" viewBox="0 80 24 24"/><symbol id="sprite-chicken" fill="none" viewBox="0 0 40 40"><mask id="a" width="40" height="40" x="0" y="0" maskUnits="userSpaceOnUse" style="mask-type:luminance"><path fill="#fff" d="M0 0h40v40h-40z"/></mask><g stroke="#fff" stroke-linecap="round" stroke-linejoin="round" stroke-miterlimit="10" stroke-width="1.5" mask="url(#a)"><path d="M8.76 27.43c2.1 3.46 5.4 3.08 5.4 3.08 1.35 3.44 5.37 3.78 5.37 3.78l6-4.15c14.63-4.15 6.07-22.31 6.07-22.31 1.2 0 3.73.2 3.73-2.15q0-.59-.28-1.05a2.4 2.4 0 0 0-1.9-1.13c-7.56-.52-9.12 9.9-9.12 9.9s-7.16 2.39-11.86.98c-4.73-1.42-8.32-5.27-9.28-2.5-.47 1.35 1.26 2.87 1.12 3.86-.15 1.13-.54 2.81 1.25 4.1 0 0-.49 2.1 1.5 3.48 1.67 1.16.78 2.1 2 4.1m26.97-22.21 1.46.1m-21.3 27.51-.57 3.9m4.2-2.43 2.02 4.25m-8.33-1.14 2.11-.67.66 2.25 1.83.14m1.62.1 2.11-.68 3.74.28"/><path d="M36.05 3.32c0 1.28-.77 1.89-.77 1.89a2 2 0 0 0-.23-.58 2.4 2.4 0 0 0-1.9-1.13q-.67-.05-1.28.02a1.6 1.6 0 0 1-.49-1.15c0-.88.7-1.59 1.58-1.59.5 0 .85.16 1.08.35q.54.45 1.16.79a1.6 1.6 0 0 1 .85 1.4m-12.02 10.07s3.96.47 4.73 3.13-.48 6.58-5.85 6.58c-8.75 0-13.25-9.7-13.25-9.7m-5.97 1.22c.62 1.16 2.67 1.64 3.22 1.64m-1.65 3.59s1.26.3 3.03.2m-1.54 3.27s2 .95 3.99.31m3.41 6.88-.86-2.48m6.24 6.26a11.7 11.7 0 0 0 4.4-6.26"/></g></symbol><use xlink:href="#sprite-chicken" width="40" height="40" y="104"/><view id="sprite-chicken-view" viewBox="0 104 40 40"/><symbol id="sprite-duck" fill="none" viewBox="0 0 61 60"><mask id="a" width="58" height="59" x="1.659" y=".328" fill="#000" maskUnits="userSpaceOnUse"><path fill="#fff" d="M1.66.33h58v59h-58z"/><path d="M8 44.38c3.1 5.27 8.7 8.75 15 9.29q1.26.1 2.47.11l1.03 1.8a5.5 5.5 0 0 0-2.43 2 .7.7 0 0 0 .6 1.1h7.87a.7.7 0 0 0 0-1.42h-6.19q.65-.42 1.38-.63a.7.7 0 0 0 .42-1.03l-1.07-1.85q.66-.03 1.3-.08l.3.57a3.8 3.8 0 0 0 3.35 2.04h.38a1.7 1.7 0 0 1 1.63 1.23l.19.65a.7.7 0 0 0 1.35-.39l-.18-.65a3.1 3.1 0 0 0-2.99-2.25h-.38a2.4 2.4 0 0 1-2.1-1.28l-.04-.08a36 36 0 0 0 6.79-1.58l2.1 3.65a5.5 5.5 0 0 0-2.43 2 .7.7 0 0 0 .6 1.1h7.81a.7.7 0 1 0 0-1.42h-6.13q.64-.42 1.38-.63a.7.7 0 0 0 .41-1.03l-2.4-4.16q.65-.24 1.23-.49l1.7 3.3a3.8 3.8 0 0 0 3.35 2.03h.39a1.7 1.7 0 0 1 1.62 1.23l.13.45a.7.7 0 0 0 1.36-.39l-.13-.45a3.1 3.1 0 0 0-2.98-2.25h-.39a2.4 2.4 0 0 1-2.1-1.27l-1.66-3.23a27 27 0 0 0 3.27-1.78l.02-.01c8.71-6.27 9.68-13.85 8.96-19.1a25 25 0 0 0-3.68-9.92 12 12 0 0 1-1.59-3.82 2.3 2.3 0 0 1 .62-2.05 10.5 10.5 0 0 0 2.92-5.5v-.02c1.6 1.34 3.69 2.68 5.96 3.07a.5.5 0 0 1 .33.73c-.86 1.32-2.98 1.77-6.11 1.32-.02 0-.46-.07-1.12-.14a.7.7 0 0 0-.77.92.7.7 0 0 0 .63.49c.62.06 1.03.12 1.04.12q1.17.18 2.36.18c3.05 0 4.48-1.1 5.16-2.12a1.9 1.9 0 0 0 .14-1.78 1.9 1.9 0 0 0-1.42-1.12c-2.55-.43-4.94-2.37-6.22-3.59a5.6 5.6 0 0 0-1.94-3.3 7 7 0 0 0-5.23-1.58 7.7 7.7 0 0 0-4.17 1.9 11.6 11.6 0 0 0-3.74 6.6c-.76 3.87.19 8.4 2.82 13.46l.01.02c.1.18.56 1.16-.46 1.99a.7.7 0 0 0 .89 1.1 2.94 2.94 0 0 0 .8-3.77c-5.52-10.64-1.99-16.05.6-18.33a6.3 6.3 0 0 1 3.41-1.56 5.4 5.4 0 0 1 4.17 1.27 4.2 4.2 0 0 1 1.47 3.92 9 9 0 0 1-2.55 4.74 3.7 3.7 0 0 0-.98 3.3 13 13 0 0 0 1.8 4.33 24 24 0 0 1 3.45 9.33c.97 7.08-1.84 13.05-8.37 17.75-.32.2-8.94 5.78-19.9 4.84a17.8 17.8 0 0 1-13.9-8.6q-2.3-3.91-1.85-7.75a5 5 0 0 0 1.56.73.7.7 0 0 0 .34-1.37 6 6 0 0 1-1.92-1.15v-.01c-.04-.03-3.38-3.04-3.28-6.95a1.62 1.62 0 0 1 2.85-1.02q1.04 1.2 2.3 2.14a.7.7 0 1 0 .85-1.13 13 13 0 0 1-2.1-1.94 3 3 0 0 0-3.3-.86 3 3 0 0 0-2 2.77c-.11 3.87 2.52 6.84 3.43 7.76q-.9 4.71 1.9 9.5"/></mask><path fill="#fff" d="M8 44.38c3.1 5.27 8.7 8.75 15 9.29q1.26.1 2.47.11l1.03 1.8a5.5 5.5 0 0 0-2.43 2 .7.7 0 0 0 .6 1.1h7.87a.7.7 0 0 0 0-1.42h-6.19q.65-.42 1.38-.63a.7.7 0 0 0 .42-1.03l-1.07-1.85q.66-.03 1.3-.08l.3.57a3.8 3.8 0 0 0 3.35 2.04h.38a1.7 1.7 0 0 1 1.63 1.23l.19.65a.7.7 0 0 0 1.35-.39l-.18-.65a3.1 3.1 0 0 0-2.99-2.25h-.38a2.4 2.4 0 0 1-2.1-1.28l-.04-.08a36 36 0 0 0 6.79-1.58l2.1 3.65a5.5 5.5 0 0 0-2.43 2 .7.7 0 0 0 .6 1.1h7.81a.7.7 0 1 0 0-1.42h-6.13q.64-.42 1.38-.63a.7.7 0 0 0 .41-1.03l-2.4-4.16q.65-.24 1.23-.49l1.7 3.3a3.8 3.8 0 0 0 3.35 2.03h.39a1.7 1.7 0 0 1 1.62 1.23l.13.45a.7.7 0 0 0 1.36-.39l-.13-.45a3.1 3.1 0 0 0-2.98-2.25h-.39a2.4 2.4 0 0 1-2.1-1.27l-1.66-3.23a27 27 0 0 0 3.27-1.78l.02-.01c8.71-6.27 9.68-13.85 8.96-19.1a25 25 0 0 0-3.68-9.92 12 12 0 0 1-1.59-3.82 2.3 2.3 0 0 1 .62-2.05 10.5 10.5 0 0 0 2.92-5.5v-.02c1.6 1.34 3.69 2.68 5.96 3.07a.5.5 0 0 1 .33.73c-.86 1.32-2.98 1.77-6.11 1.32-.02 0-.46-.07-1.12-.14a.7.7 0 0 0-.77.92.7.7 0 0 0 .63.49c.62.06 1.03.12 1.04.12q1.17.18 2.36.18c3.05 0 4.48-1.1 5.16-2.12a1.9 1.9 0 0 0 .14-1.78 1.9 1.9 0 0 0-1.42-1.12c-2.55-.43-4.94-2.37-6.22-3.59a5.6 5.6 0 0 0-1.94-3.3 7 7 0 0 0-5.23-1.58 7.7 7.7 0 0 0-4.17 1.9 11.6 11.6 0 0 0-3.74 6.6c-.76 3.87.19 8.4 2.82 13.46l.01.02c.1.18.56 1.16-.46 1.99a.7.7 0 0 0 .89 1.1 2.94 2.94 0 0 0 .8-3.77c-5.52-10.64-1.99-16.05.6-18.33a6.3 6.3 0 0 1 3.41-1.56 5.4 5.4 0 0 1 4.17 1.27 4.2 4.2 0 0 1 1.47 3.92 9 9 0 0 1-2.55 4.74 3.7 3.7 0 0 0-.98 3.3 13 13 0 0 0 1.8 4.33 24 24 0 0 1 3.45 9.33c.97 7.08-1.84 13.05-8.37 17.75-.32.2-8.94 5.78-19.9 4.84a17.8 17.8 0 0 1-13.9-8.6q-2.3-3.91-1.85-7.75a5 5 0 0 0 1.56.73.7.7 0 0 0 .34-1.37 6 6 0 0 1-1.92-1.15v-.01c-.04-.03-3.38-3.04-3.28-6.95a1.62 1.62 0 0 1 2.85-1.02q1.04 1.2 2.3 2.14a.7.7 0 1 0 .85-1.13 13 13 0 0 1-2.1-1.94 3 3 0 0 0-3.3-.86 3 3 0 0 0-2 2.77c-.11 3.87 2.52 6.84 3.43 7.76q-.9 4.71 1.9 9.5"/><path stroke="#fff" stroke-width=".8" d="M8 44.38c3.1 5.27 8.7 8.75 15 9.29q1.26.1 2.47.11l1.03 1.8a5.5 5.5 0 0 0-2.43 2 .7.7 0 0 0 .6 1.1h7.87a.7.7 0 0 0 0-1.42h-6.19q.65-.42 1.38-.63a.7.7 0 0 0 .42-1.03l-1.07-1.85q.66-.03 1.3-.08l.3.57a3.8 3.8 0 0 0 3.35 2.04h.38a1.7 1.7 0 0 1 1.63 1.23l.19.65a.7.7 0 0 0 1.35-.39l-.18-.65a3.1 3.1 0 0 0-2.99-2.25h-.38a2.4 2.4 0 0 1-2.1-1.28l-.04-.08a36 36 0 0 0 6.79-1.58l2.1 3.65a5.5 5.5 0 0 0-2.43 2 .7.7 0 0 0 .6 1.1h7.81a.7.7 0 1 0 0-1.42h-6.13q.64-.42 1.38-.63a.7.7 0 0 0 .41-1.03l-2.4-4.16q.65-.24 1.23-.49l1.7 3.3a3.8 3.8 0 0 0 3.35 2.03h.39a1.7 1.7 0 0 1 1.62 1.23l.13.45a.7.7 0 0 0 1.36-.39l-.13-.45a3.1 3.1 0 0 0-2.98-2.25h-.39a2.4 2.4 0 0 1-2.1-1.27l-1.66-3.23a27 27 0 0 0 3.27-1.78l.02-.01c8.71-6.27 9.68-13.85 8.96-19.1a25 25 0 0 0-3.68-9.92 12 12 0 0 1-1.59-3.82 2.3 2.3 0 0 1 .62-2.05 10.5 10.5 0 0 0 2.92-5.5v-.02c1.6 1.34 3.69 2.68 5.96 3.07a.5.5 0 0 1 .33.73c-.86 1.32-2.98 1.77-6.11 1.32-.02 0-.46-.07-1.12-.14a.7.7 0 0 0-.77.92.7.7 0 0 0 .63.49c.62.06 1.03.12 1.04.12q1.17.18 2.36.18c3.05 0 4.48-1.1 5.16-2.12a1.9 1.9 0 0 0 .14-1.78 1.9 1.9 0 0 0-1.42-1.12c-2.55-.43-4.94-2.37-6.22-3.59a5.6 5.6 0 0 0-1.94-3.3 7 7 0 0 0-5.23-1.58 7.7 7.7 0 0 0-4.17 1.9 11.6 11.6 0 0 0-3.74 6.6c-.76 3.87.19 8.4 2.82 13.46l.01.02c.1.18.56 1.16-.46 1.99a.7.7 0 0 0 .89 1.1 2.94 2.94 0 0 0 .8-3.77c-5.52-10.64-1.99-16.05.6-18.33a6.3 6.3 0 0 1 3.41-1.56 5.4 5.4 0 0 1 4.17 1.27 4.2 4.2 0 0 1 1.47 3.92 9 9 0 0 1-2.55 4.74 3.7 3.7 0 0 0-.98 3.3 13 13 0 0 0 1.8 4.33 24 24 0 0 1 3.45 9.33c.97 7.08-1.84 13.05-8.37 17.75-.32.2-8.94 5.78-19.9 4.84a17.8 17.8 0 0 1-13.9-8.6q-2.3-3.91-1.85-7.75a5 5 0 0 0 1.56.73.7.7 0 0 0 .34-1.37 6 6 0 0 1-1.92-1.15v-.01c-.04-.03-3.38-3.04-3.28-6.95a1.62 1.62 0 0 1 2.85-1.02q1.04 1.2 2.3 2.14a.7.7 0 1 0 .85-1.13 13 13 0 0 1-2.1-1.94 3 3 0 0 0-3.3-.86 3 3 0 0 0-2 2.77c-.11 3.87 2.52 6.84 3.43 7.76q-.9 4.71 1.9 9.5Z" mask="url(#a)"/><path fill="#fff" stroke="#fff" stroke-width=".4" d="M22.42 40.14a10 10 0 0 0 4.01 4.67l-.1.17.1-.17q3.7 2.14 9.38.42a.9.9 0 0 1 1.08 1.29 1 1 0 0 1-.23.27l-.13-.15.13.15a1 1 0 0 1-.32.17q-2.52.82-5.19.85m-8.73-7.67-2.1-1.03m2.1 1.03q2.2.66 4.5.71h.02a.9.9 0 0 0 .03-1.81zm8.73 7.67v-.2zm0 0a11 11 0 0 1-5.64-1.44c-3.63-2.11-4.99-5.86-5.35-7.12m0 0 .08.04.08-.18m-.16.14-.03-.09.2-.05m-.17.14a15 15 0 0 1-3.24-2.14m3.4 2a15 15 0 0 1-3.4-2.27v.27m0 0c.07 2.24.78 5.82 4.41 7.66l-.09.17c-3.83-1.94-4.49-5.76-4.52-8zm-5.03-11.39a3.7 3.7 0 0 0-.3 2.29l15.38 11.03a15 15 0 0 1-5.73-1.27 13 13 0 0 1-4.82-3.77 15 15 0 0 1-2.7-4.95l-.01-.04a8 8 0 0 1-.34-1.32 1.92 1.92 0 0 1 3.21-1.72q1.25 1.23 2.65 2.28c.39.33 3.88 3.1 9.75 3.1l.6-.01a1 1 0 0 0 .63-.29l-.14-.13.14.13a.9.9 0 0 0-.69-1.52 15 15 0 0 1-8.17-2.01c5-3.4 11.44-3.86 14.99-3.8a.9.9 0 1 0 .02-1.82c-3.86-.05-11.07.46-16.57 4.5a27 27 0 0 1-1.94-1.73 3.73 3.73 0 0 0-5.96 1.05Zm33.32-18.63-.09-.16-.05-.17-.01-.18m.15.5 1.02-1.15m-1.02 1.16.11.13zm-.15-.5.01-.18v-.01l.05-.16.09-.16.1-.14h.01l.14-.11a1 1 0 0 1 .32-.14 1 1 0 0 1 .36 0q.09.02.17.06m-1.25.83h.2zm1.25-.83-.08.18m.08-.18-.08.18m.08-.18q.08.03.15.08m-.23.1.12.07m.11-.17-.1.17m.1-.17.14.11m-.14-.11-.1.17m0 0 .24-.06m0 0-.14.14zm0 0q.06.06.11.14m-.1-.14.04.78.2.04.02-.18-.02-.18a1 1 0 0 0-.14-.32m0 0-.16.11zm-1.1 1.34-.15-.08.11-.17-.1-.09zm0 0 .17.05.18.02q.1 0 .18-.02l.17-.05m-.7 0h.7m0 0 .15-.08m-.15.08.15-.08m0 0 .14-.12m-.14.12.14-.12m0 0 .11-.14zm-15.31 31.51v-.04l-.28.04-.43.08a.9.9 0 0 0 .13 1.8l.14-.01.46-.08a1 1 0 0 0 .33-.12l-.1-.17.1.17a.9.9 0 0 0-.35-1.67Zm-.58 1.68.1-.01zm16.09-33.48-.19-.08z"/></symbol><use xlink:href="#sprite-duck" width="61" height="60" y="144"/><view id="sprite-duck-view" viewBox="0 144 61 60"/><symbol id="sprite-line-mob" fill="none" viewBox="0 0 160 19"><path stroke="#E31E24" stroke-width="2" d="M0 1h63.7m0 0h1.6l15 16 15-16h1m0 0h63.7"/></symbol><use xlink:href="#sprite-line-mob" width="160" height="19" y="204"/><view id="sprite-line-mob-view" viewBox="0 204 160 19"/><symbol id="sprite-line" fill="none" viewBox="0 0 510 19"><path stroke="#E31E24" stroke-width="2" d="M0 1h239.89l15 16 15-16h240.07"/></symbol><use xlink:href="#sprite-line" width="510" height="19" y="223"/><view id="sprite-line-view" viewBox="0 223 510 19"/><symbol id="sprite-mutton" fill="none" viewBox="0 0 40 30"><path fill="#fff" d="M35.57 3.28h-.56a2.45 2.45 0 0 0-3.61-1.72 3.16 3.16 0 0 0-4.55.34 3 3 0 0 0-1.65-.22 3.2 3.2 0 0 0-4.13-.08 5 5 0 0 0-2.95-.99c-.86 0-1.7.22-2.43.65a3.2 3.2 0 0 0-1.91-.65 3.2 3.2 0 0 0-2.74 1.57 5 5 0 0 0-1.7-.3 4.9 4.9 0 0 0-3.88 1.92 2 2 0 0 0-.92-.06 1.9 1.9 0 0 0-2.44-.02 2.2 2.2 0 0 0-2.1 2.18c0 1.12.85 2.05 1.94 2.17v.08a5 5 0 0 0-1.56 3.57c0 1.1.37 2.17 1.06 3.03a4.88 4.88 0 0 0 3.86 6.35q.27.23.56.44v.67a3.5 3.5 0 0 0 1.86 3.08v3.47a.63.63 0 0 0 .63.63h1.98a.63.63 0 0 0 .63-.63v-3.47l.17-.1.17.1v3.47a.63.63 0 0 0 .63.63h1.97a.63.63 0 0 0 .64-.63v-3.47q.73-.38 1.2-1.05a5 5 0 0 0 2.16.47q1.36 0 2.55-.67.5.8 1.34 1.25v3.47a.63.63 0 0 0 .63.63h1.97a.63.63 0 0 0 .64-.63v-3.47l.17-.1.16.1v3.47a.63.63 0 0 0 .64.63h1.97a.63.63 0 0 0 .63-.63v-3.47a3.5 3.5 0 0 0 1.86-3.08v-.13a4.9 4.9 0 0 0 2.6-4.8 3.2 3.2 0 0 0 1.03-2.34c0-.78-.3-1.53-.81-2.11q-.02-.35-.06-.69h2.35a4.44 4.44 0 0 0 4.43-4.43 4.44 4.44 0 0 0-4.43-4.43m-25.88 24.84h-.7v-2.45a4 4 0 0 0 .7 0zm3.58 0h-.7v-2.45a4 4 0 0 0 .7 0zm-.36-3.7a2 2 0 0 1-.78-.14q.22-.29.37-.62a3 3 0 0 0 1.6-.18h.44l.12.1a2.2 2.2 0 0 1-1.75.84m10.85 3.7h-.7v-2.45a4 4 0 0 0 .7 0zm3.57 0h-.7v-2.45a4 4 0 0 0 .7 0zm-.35-3.7a2 2 0 0 1-.78-.14q.5-.68.63-1.5.27-.1.52-.22a5 5 0 0 0 1.82-.02 2.2 2.2 0 0 1-2.19 1.88m5.04-7.92a.6.6 0 0 0-.26.63q.05.31.05.62a3.62 3.62 0 0 1-4.4 3.53.6.6 0 0 0-.42.05q-.46.22-.95.4a.6.6 0 0 0-.43.57 2.2 2.2 0 0 1-2.2 2.12 2.2 2.2 0 0 1-2.1-1.52.63.63 0 0 0-1-.3 4 4 0 0 1-2.42.84 4 4 0 0 1-2.68-1.06.6.6 0 0 0-.43-.17h-.8l-.27.06c-.44.2-.95.21-1.4.05a.63.63 0 0 0-.83.44 2.2 2.2 0 0 1-2.14 1.66 2.2 2.2 0 0 1-2.21-2.2v-1a.6.6 0 0 0-.28-.53 9 9 0 0 1-.87-.67.6.6 0 0 0-.34-.15 3.62 3.62 0 0 1-2.9-5 .6.6 0 0 0-.12-.68 3.6 3.6 0 0 1-.98-2.47c0-1.08.48-2.1 1.31-2.79a.6.6 0 0 0 .23-.48q0-.45.21-.85a.63.63 0 0 0-.82-.86 1 1 0 0 1-.38.08.92.92 0 0 1 0-1.84h.1a.6.6 0 0 0 .55-.22.6.6 0 0 1 .96.04.6.6 0 0 0 .74.24 1 1 0 0 1 .8.08.63.63 0 0 0 .89-.2 3.6 3.6 0 0 1 3.1-1.78q.92 0 1.73.44a.63.63 0 0 0 .9-.37 1.9 1.9 0 0 1 1.82-1.33 2 2 0 0 1 1.38.6.63.63 0 0 0 .84.08 3.6 3.6 0 0 1 2.12-.68c.95 0 1.86.37 2.54 1.04a.63.63 0 0 0 .94-.05 1.9 1.9 0 0 1 2.27-.56 2 2 0 0 1 .64.47.6.6 0 0 0 .63.2 2 2 0 0 1 1.1.04 3 3 0 0 0-.12.9.63.63 0 0 0 1.22.24l.04-.25a1.9 1.9 0 0 1 1.9-1.9c.61 0 1.17.29 1.53.77a.63.63 0 0 0 .95.07 1.2 1.2 0 0 1 .84-.34 1.18 1.18 0 0 1 0 2.35q-.4 0-.71-.24a.63.63 0 0 0-.94.2 2 2 0 0 1-.45.55.63.63 0 0 0-.12.83 3.6 3.6 0 0 1 .18 3.6.6.6 0 0 0 .17.79c.29.22.45.56.45.92a.63.63 0 0 0 .63.63h.13q.07.48.08.97a.6.6 0 0 0 .2.45q.6.56.6 1.39c0 .61-.3 1.2-.8 1.55m3.55-5.62h-3.2a2.4 2.4 0 0 0-.49-.93 5 5 0 0 0 .34-1.79c0-.76-.18-1.52-.52-2.2a2.45 2.45 0 0 0 3.18-1.41h.69a3.17 3.17 0 0 1 3.16 3.16 3.17 3.17 0 0 1-3.16 3.17"/><path fill="#fff" d="M33.82 6.29a.47.47 0 1 0 0 .94.47.47 0 0 0 0-.94m-4.85.42a.63.63 0 0 0-.63.64v2.03a.63.63 0 1 0 1.26 0v-2.03a.63.63 0 0 0-.63-.64"/></symbol><use xlink:href="#sprite-mutton" width="40" height="30" y="242"/><view id="sprite-mutton-view" viewBox="0 242 40 30"/><symbol id="sprite-pig-number" fill="none" viewBox="0 0 588 319"><path stroke="#C3CAD4" stroke-width="2" d="m10.67 139.97-.02-.01-.02-.02-.87-.62-1.4-1.01-.02-.01-.01-.01-1.1-.71-.02-.01-.54-.34-.07-.05-.07-.03a1 1 0 0 1-.34-.25l-.01-.02a21 21 0 0 0-1.8-1.78l-.55-.48q-.57-.5-1.11-1.01l-.02-.02-.03-.02a5 5 0 0 1-1.17-1.42l-.07-.12-.1-.1c-.24-.24-.32-.44-.33-.63-.01-.22.07-.6.46-1.2.56-.83 1.68-1.39 3.33-1.82q1.2-.3 2.59-.55l.58-.1q1.1-.2 2.19-.42l.06-.01.05-.02 3.39-1.15.05-.02.05-.02q.3-.14.58-.31h.31l.15-.05c2.1-.66 4.5-1.37 7.23-2.05h.02l8.45-2.24h.02l4.65-1.3h.01l.01-.01q.35-.1.7-.15h.03l.63-.11 1.27-.19 2.63-.37q2.65-.3 5.43-.54l1.4-.08a68 68 0 0 0-1.33 15.72 47 47 0 0 0-30.92 8.76 59 59 0 0 1-4.35-3.1Z"/><path fill="#000" d="M493.3 24.45c-4.65-3.5 5.04 3 0 0m-426 219.78a1 1 0 0 0 0 .36l.08.32v.13c.08-.31.08-.96-.09-.8"/><path fill="#000" d="M67.3 244.23a.4.4 0 0 0 0 .36 1 1 0 0 1 0-.36"/><path fill="red" d="M67.21 244.65q.03.17.1.33z"/><path fill="#000" d="M67.28 245.2a.3.3 0 0 0 .09-.16v-.13a1 1 0 0 1-.1.28m107.91 36.6q.3-1.21.45-2.46c0-.14.17-2.44-.45 2.47m334.23-29.18c0-.14-.07-.27-.12-.4-.1.69-.19 1.75.12.4m21.17 50"/><mask id="a" fill="#fff"><path d="M539.86 230.46a9 9 0 0 1-.44-.84 6 6 0 0 1-.26-.77c-.17-.6-5.85-6.9-7.46-14.78-1.93-9.31 1.81-18.5 1.84-18.92 1.91-22.2 25.05-60.15 17.3-103.46-12.74-54.14-60.02-69.07-60.84-69.68-7.85-5.15-27.3-27.94-156.72-19.8-25.62 1.56-70.12-4.04-95.9-1.25-25.04 2.72-49.29 7.62-70.87 21.24a24 24 0 0 1-4.88 2.32c-15.8 10.98-24.82 10.23-34.75 24.45-12.5-1.88-32.26 16.84-26.38 27.55q-3.1.26-6.41.8a53 53 0 0 0-11.44 3.18 31 31 0 0 0-10.72 7.19 31 31 0 0 0-3.5 4.54 36 36 0 0 1-2.52 3.84l-1.77 1.69a67 67 0 0 0-1.81 1.83 72 72 0 0 0-3.33 3.71 88 88 0 0 0-3.43 4.43 61 61 0 0 0-5.18 28.26c2.7.6 5.82 5.85 3.85 4.66-2.2-1.24-2.54-.84-5.26-1.37a1.7 1.7 0 0 1-1.33-.23c-12.8-1.9-29.14 3.52-36.27 13.86a45 45 0 0 0-2.6 9.1 58 58 0 0 0-1.83 10v1.33q.08.67.26 1.32.23 1.04.39 2.06.3 2.04.45 3.96l.45 7.05q.2 2.72.88 5.37.27 1 .8 1.9a1.6 1.6 0 0 0 1.42.79h.16c2.2.74 5.21-1.32 4.14-5.13l.39-.63a8 8 0 0 1 2.12-1.23 16 16 0 0 1 2.1-.54l.71-.14q.44-.15.85-.34.59-.25 1.18-.47a45 45 0 0 1 5.25-1.55 53 53 0 0 1 8.9-1.38c0 .09-.07.18-.12.3a38 38 0 0 0-2.6 7.46 17 17 0 0 0-.36 3.24v1.72a10 10 0 0 0 .1 1.79q.21 1.27.78 2.42l-.2.16a8.5 8.5 0 0 0-2.68 4.34 8.4 8.4 0 0 0 0 4.26s0-.1.14-.19q.05.17.15.33a3 3 0 0 1-.71 0 2 2 0 0 0-.6-.24 5 5 0 0 0-2.15-.12 8 8 0 0 0-1.97.54c-1.29.5-2.3 1.15-3.54 1.56-2.1.97-5.1 1.3-8.36 2.63q-.64.27-1.24.6a10 10 0 0 0-1.24.8q-.43.29-.76.68t-.58.86a6 6 0 0 0-.56 1.55 17 17 0 0 0 0 5.5 34 34 0 0 0 1.18 5.3 22 22 0 0 0 2.24 5.47 23 23 0 0 0 4.31 4.65c.8.69 1.55 1.34 2.42 1.98l1.27.93 1.23.84.34.32.73.58q.74.55 1.55 1a25 25 0 0 0 3.01 1.56l2.75 1.12 1.25.55.48.22.56.17.73.23a22 22 0 0 0 6.49 1.01 12 12 0 0 0 1.55-.1 19 19 0 0 0 4.66-1.2c3.29-1.07 6.64-2.28 9.55-3.54 1.56-.64 2.87-1.29 4.21-1.94l.98-.48.28-.16.65-.4.12-.08 1.72-1.16a50 50 0 0 1 10.54-6.4q.59-.22 1.2-.35a50 50 0 0 1-2.69 4.27q-.73.3-1.41.7a19 19 0 0 0-5.45 4.56c.1-.16.16.5 0 .8 1.65 2.9 16.37 8.82 37.94-2.59 3.57-3.1 5.65-3.54 8.68-6.5 1.8-1.56 3.44-3.1 5.1-4.35a59 59 0 0 0 3.4-2.6v.09l.22-.19.88-.75c4.16-3.41 8.18-8.04 13.38-11.84.7-.46 1.36-.96 2.1-1.4a19 19 0 0 1 1.91-.97c1.3-.53 18.4-4.26 21.08-4.55a52 52 0 0 0 10.18 18.38c1.27 1.81 6.62 10.4 6.62 10.4l.31.51q.2.32.5.56.46.5.93 1.08l.91 1.17.61.87q-.14.56-.2.88v.14l-.62 1.24q-.67 1.24-1.41 2.53l-.38.66-.18.34a3 3 0 0 0-.27.56c-.18.5-.37.94-.52 1.41q-.51 1.42-.87 2.8a43 43 0 0 0-1.15 5.44 57 57 0 0 0-.53 9.8 68 68 0 0 1-.2 10.99c.37-.64-.75 3.7-.48 2.67-6.81 9.71-7.43 19.59-14.36 28.3-.32 1.3 1.73 2.4 3.78 2.3 7.01-7.4 1.22 2.24 3.58 2.97 4.83 1.55 12.21-.4 14.5-2.33.23-.23.72-.62 1.03-.93a22 22 0 0 0 1.86-2.03 15 15 0 0 0 2.25-3.8c1.4-1.56 2.6-4.16 3.91-4.99 0 .36-.09 3.93-.09 4.49v1.47h.31a3.7 3.7 0 0 0 2.42-.45 7 7 0 0 0 1.91-1.66 12 12 0 0 0 1.65-2.92q.35-.92.66-1.97l.45-1.55a56 56 0 0 0 1.17-6.2q.44-3.3.63-6.84.06-3.45.73-6.83a45 45 0 0 1 6.1-13.63c1.78-2.85 3.74-5.59 5.71-8.22.53-.69.9-1.23 1.46-1.85a17 17 0 0 0 1.55-2 29 29 0 0 0 2.73-4.33 26 26 0 0 0 2.6-9.02c.29-2.98.13-5.44.6-7.62q.32-1.61.96-3.1l.16-.35.12-.28.08-.19.3-.73.3-.71.31-.67c0-.1-.12.28-.3.67l-.32.71c5.48-4.98 12.42-13.07 21.85-11.75q4.39.32 8.6 1.63l.42.24a55 55 0 0 0 9.15 3.78c17.07 7.76 59.62 17.08 68.85 18.27q5.75.79 11.54.95c3.87.11 7.76.08 11.73 0 2.9-.08 46.17 1.26 97.48-21.06a86 86 0 0 0 9.31-5.1h2.34c5.7 4.2 24.63 16.96 40.74 27.42 3.1 2.06 1.24 4.66 3.1 10.43.08-.56.19-.88.12.39-.21 7.46-.93 22.1-.1 27.4-.4.85-1.32 9.4-1.79 10.23-1 7.17-7.91 12.96-12.72 23.08a17 17 0 0 0 3.57 2.3c4.39-2.7 9.3-1.45 10.61-8.25-1.04 5.17-1.46 3.2-3.62 10.34 3.82.61 7.73.44 11.47-.53.8-.39 6.2-2.1 6.77-2.64a82 82 0 0 0 4.34-7.07c1-1.56 1.55-3.45 2.64-4.85l-.56 6.55c0 .13.23 0 .39-.07l.5-.2a38 38 0 0 0 1.86-.88 11 11 0 0 0 3.4-2.71 9 9 0 0 0 1.28-1.97q.42-.85.72-1.76.53-1.79.66-3.65a54 54 0 0 0 0-7.26q-.12-1.8-.12-3.57v-3.71c0-1.55-4.53-13.37 3.29-43.59a10 10 0 0 0 0-5.01 19 19 0 0 0-2-4.43"/></mask><path fill="#C3CAD4" d="m224.96 227.91.31-.71-1.83-.8-.31.72zm314.9 2.55-1.73 1.02.02.02v.02zm-.44-.84-1.84.78.01.03.01.02zm-.26-.77 1.94-.5-.01-.02v-.02zm-7.46-14.78 1.96-.4zm1.84-18.92-1.99-.17v.02zm17.3-103.46 1.97-.35v-.06l-.02-.05zm-60.84-69.68 1.19-1.61-.04-.03-.05-.03zm-156.72-19.8.12 2zm-95.9-1.25-.22-1.99zm-70.87 21.24 1.06 1.69zm-4.88 2.32-.65-1.89-.26.1-.23.15zm-34.75 24.45-.3 1.98 1.23.18.7-1.01zm-26.38 27.55.16 2 3.07-.26-1.48-2.7zm-6.41.8.32 1.97zm-11.44 3.18.74 1.86h.01zm-10.72 7.19-1.44-1.4-.01.02-.01.01zm-3.5 4.54-1.7-1.07-.02.04-.02.05zm-2.52 3.84 1.38 1.44.12-.11.1-.13zm-1.77 1.69-1.38-1.44h-.01zm-1.81 1.83 1.44 1.39v-.01zm-6.75 8.14-1.62-1.18-.13.17-.08.2zm-5.19 28.26-2 .11.1 1.51 1.47.33zm3.85 4.66 1.04-1.71-.03-.02-.03-.01zm-5.26-1.37.38-1.96-.42-.08-.41.1zm-1.33-.23 1.08-1.68-.36-.24-.43-.06zm-36.27 13.86-1.64-1.13-.13.18-.08.2zm-2.6 9.1 1.93.53.02-.1.02-.09zm-1.83 10-2-.2v.2zm0 1.33h-2v.13l.01.13zm.26 1.32 1.95-.43v-.05l-.02-.04zm.39 2.06-1.98.31v.01zm.45 3.96 2-.13v-.02l-.01-.02zm.45 7.05-2 .13v.01zm.88 5.37-1.93.5v.02zm.8 1.9 1.75-.98-.01-.03-.02-.03zm1.42.79v-2h-.07zm.16 0 .64-1.9-.31-.1h-.33zm4.14-5.13-1.7-1.04-.46.75.23.84zm.39-.63-1.26-1.56-.27.22-.18.3zm2.12-1.23-.63-1.9-.04.02-.04.01zm2.1-.54.37 1.96h.01zm.71-.14.39 1.96.13-.03.13-.04zm.86-.34-.75-1.86-.05.02-.05.02zm1.18-.47.65 1.89h.03zm5.24-1.55.45 1.95h.02zm8.9-1.38h2v-2.15l-2.13.15zm-.12.3 1.81.84.02-.03.01-.03zm-2.6 7.46-1.95-.46v.02l-.01.03zm-.36 3.24-2-.02v.02zm0 1.72 2 .07v-.07zm.1 1.79 1.98-.3zm.78 2.42 1.22 1.59 1.31-1.01-.74-1.48zm-.2.16-1.22-1.59-.04.04-.05.03zm-2.68 4.34 1.93.5zm0 4.26-1.94.5.4 1.5h1.54zm.14-.19 1.89-.64-.84-2.47-2.16 1.45zm.15.33.22 1.98 3.17-.34-1.7-2.7zm-.71 0-.97 1.75.35.2.4.03zm-.6-.24-.53 1.93h.02l.03.01zm-2.15-.12.29 1.98h.03zm-1.97.54.72 1.87.02-.01.03-.01zm-3.54 1.56-.62-1.9-.11.03-.11.05zm-8.36 2.63-.76-1.85h-.01l-.01.01zm-1.24.6.94 1.77h.02v-.01zm-1.24.8 1.11 1.66.05-.03.04-.03zm-.76.68-1.53-1.28h-.01zm-.58.86-1.76-.95-.01.02v.01zm-.56 1.55-1.95-.43-.01.05-.01.05zm0 5.5 1.98-.28v-.05zm1.18 5.3 1.94-.5-.01-.04-.02-.04zm2.24 5.47-1.74 1 .05.07.05.07zm4.31 4.65 1.3-1.51-.01-.02-.02-.01zm2.42 1.98-1.18 1.6v.01zm1.27.93-1.18 1.61.03.02.02.02zm1.23.84 1.38-1.45-.12-.11-.13-.1zm.34.32-1.38 1.45.07.06.07.06zm.73.58-1.24 1.57.03.02.02.01zm1.55 1 1.04-1.7-.03-.02-.02-.01zm3.01 1.56-.79 1.83.02.01.02.01zm2.75 1.12.81-1.83-.03-.02h-.03zm1.26.55.82-1.82h-.01zm.48.22-.83 1.82.12.06.12.03zm.56.17.6-1.9-.02-.01zm.72.23-.6 1.91zm6.49 1.01v2h.01zm1.55-.1-.25-1.99h-.02zm4.66-1.2-.62-1.9-.06.02-.06.02zm9.56-3.54-.76-1.85h-.02l-.02.01zm4.2-1.94.88 1.8zm.98-.48.88 1.8.05-.03.04-.02zm.28-.16.97 1.75.04-.02.04-.03zm.65-.4 1.05 1.7zm.12-.08 1.06 1.7h.01l.01-.01zm1.73-1.16 1.13 1.65.05-.04.06-.04zm10.53-6.4-.7-1.87-.06.02-.06.03zm1.2-.35 1.74.97 2.2-3.91-4.38.99zm-2.69 4.27.79 1.84.52-.23.33-.47zm-1.41.7.97 1.76.02-.01.03-.02zm-5.45 4.56-1.71-1.03 3.26 2.29zm0 .8-1.79-.89-.47.96.53.92zm37.94-2.59.94 1.77.2-.1.18-.16zm8.68-6.5-1.31-1.52-.05.05-.04.04zm5.1-4.35-1.15-1.64-.02.02-.03.02zm3.4-2.6h2v-4.2l-3.26 2.66zm0 .09h-2v4.35l3.3-2.84zm.22-.19-1.3-1.53v.01zm.88-.75-1.27-1.54-.02.02zm13.38-11.84-1.11-1.66-.04.02-.04.03zm2.1-1.4-1.02-1.72h-.01zm1.92-.97-.76-1.85h-.02l-.03.01zm21.07-4.55 1.9-.6-.48-1.57-1.64.18zm10.18 18.38 1.63-1.15-.05-.08-.07-.08zm6.62 10.4 1.71-1.04v-.01l-.01-.01zm.31.51 1.72-1.02v-.01zm.5.56 1.45-1.38-.11-.11-.12-.1zm.93 1.08 1.57-1.23v-.01zm.92 1.17 1.64-1.14-.04-.05-.03-.05zm.6.87 1.94.48.22-.88-.52-.74zm-.2.88-1.96-.42-.04.21v.21zm0 .14 1.79.9.2-.43v-.47zm-.62 1.24 1.77.94v-.02l.02-.02zm-1.41 2.53 1.73 1zm-.38.66-1.73-1-.01.02-.01.02zm-.18.34 1.71 1.03.02-.04.02-.03zm-.27.56 1.88.7v-.03zm-.52 1.41 1.89.65v-.02zm-.87 2.8 1.92.55.01-.03v-.03zm-1.15 5.44-1.98-.28zm-.53 9.8-2 .06v.06zm-.2 10.99-2-.2 3.73 1.2zm-.48 2.67 1.94.5-3.58-1.65zm-14.35 28.3-1.57-1.25-.27.34-.1.42zm3.77 2.3.1 1.99.8-.04.55-.58zm3.58 2.97.61-1.9h-.02zm14.5-2.33 1.3 1.54.09-.08.08-.1zm1.03-.93-1.39-1.44v.02h-.02zm1.87-2.03-1.56-1.26zm2.25-3.8-1.5-1.34-.23.26-.13.32zm3.9-4.99h2v-3.6l-3.05 1.9zm-.09 5.96h-2v2h2zm.31 0 .3-1.97-.15-.03h-.15zm2.42-.45 1 1.74zm1.91-1.66 1.58 1.23zm1.65-2.92 1.86.72v-.01zm.66-1.97-1.92-.55zm.45-1.55 1.92.56.02-.04v-.04zm1.17-6.2-1.98-.28v.02zm.63-6.84 2 .12v-.09zm.73-6.83-1.93-.5-.02.06v.05zm6.1-13.63 1.66 1.11.02-.02.02-.03zm5.71-8.22-1.58-1.23-.01.02-.01.01zm3.01-3.85-1.59-1.22-.04.06-.04.06zm2.73-4.33 1.78.9h.01zm2.6-9.02-2-.2zm.6-7.62 1.96.41v-.03zm.96-3.1-1.82-.84v.02l-.02.02zm.16-.35 1.82.83v-.01zm.12-.28 1.83.81v-.02l.02-.02zm.08-.19 1.84.77.01-.02zm.3-.73-1.35-1.47-.34.3-.17.42zm.3-.71-1.81-.84 3.62 1.7zm.31-.67 1.82.85.18-.4v-.45zm21.23-10.37-.28 1.98.07.01h.07zm8.6 1.63.97-1.74-.18-.1-.2-.06zm.42.24-.98 1.75h.03l.02.02zm9.15 3.78.83-1.82-.11-.05-.12-.04zm68.85 18.27.27-1.98h-.01zm11.54.95.06-2zm11.74 0 .03 2h.01zm97.47-21.06.8 1.83.03-.01.02-.01zm9.31-5.1v-2h-.58l-.48.31zm2.35 0 1.18-1.6-.53-.4h-.65zm40.73 27.42 1.1-1.67h-.01zm3.1 10.43-1.9.61 3.88-.33zm.12.39-2-.1v.04zm-.1 27.4 1.82.82.24-.54-.09-.6zm-1.79 10.23-1.74-.99-.19.33-.05.38zm-12.72 23.08-1.8-.86-.67 1.4 1.18.99zm3.57 2.3-.86 1.8.97.47.93-.57zm10.61-8.25 1.96.38-3.92-.77zm-3.62 10.34-1.91-.58-.66 2.2 2.26.35zm11.47-.53.5 1.94.2-.05.18-.1zm6.77-2.64 1.4 1.44.13-.14.12-.17zm4.34-7.07-1.68-1.08-.04.06-.03.06zm2.64-4.85 2 .17.57-6.73-4.15 5.33zm-.56 6.55-2-.17v.17zm.39-.07-.7-1.88-.1.04-.1.05zm.5-.2.7 1.88.05-.02.06-.02zm1.86-.88.9 1.79zm3.4-2.71-1.52-1.3h-.01l-.01.02zm1.28-1.97-1.79-.9v.02zm.72-1.76 1.9.62v-.03l.02-.02zm.66-3.65 2 .15v-.01zm0-7.26-2 .13zm3.17-50.87-1.93-.51v.01zm0-5.01 1.93-.52v-.03l-.02-.04zm-.28-5.44-.33-.65-3.65 1.65q.24.53.53 1.03zm-.31-.6-.17-.5-3.88 1q.14.54.36 1.06zm-.18-.54c-.1-.36-.3-.65-.33-.7l-.27-.4-.72-1a51 51 0 0 1-2.1-3.08 30 30 0 0 1-4.01-9.46l-3.92.8a34 34 0 0 0 4.53 10.78 55 55 0 0 0 2.26 3.32l.7.96q.11.17.15.2c.06.12-.07-.06-.14-.34zm-7.43-14.64c-.9-4.3-.48-8.63.19-12a43 43 0 0 1 1.03-4.11l.4-1.24.18-.6c0-.02.06-.2.08-.42l-4-.3.06-.3-.01.04-.11.34-.42 1.31a47 47 0 0 0-1.13 4.5c-.73 3.65-1.23 8.57-.2 13.59zm1.88-18.35c.45-5.3 2.19-11.65 4.5-19.01 2.3-7.28 5.16-15.56 7.7-24.42 5.08-17.8 9.02-38.46 5.07-60.55l-3.93.7c3.79 21.22.03 41.19-4.99 58.75-2.52 8.8-5.32 16.89-7.66 24.32-2.31 7.35-4.18 14.08-4.68 19.87zm17.25-104.09c-6.5-27.6-21.81-45.24-35.6-56.03a105 105 0 0 0-18.24-11.46 95 95 0 0 0-5.86-2.63q-1.07-.45-1.67-.67l-.43-.18-.06-.02.05.03q.04 0 .2.13l-2.36 3.22c.19.14.38.23.4.24l.22.1.5.2 1.63.65a91 91 0 0 1 5.61 2.52 101 101 0 0 1 17.54 11.02c13.24 10.36 27.93 27.26 34.18 53.8zm-61.69-70.9c-1.65-1.07-4.74-3.73-9.73-6.48-5.12-2.83-12.5-5.97-23.67-8.67-22.3-5.39-59.73-9.04-124.54-4.96l.25 4c64.61-4.07 101.6-.4 123.35 4.85 10.86 2.62 17.9 5.64 22.68 8.28 4.9 2.71 7.19 4.84 9.46 6.33zm-157.94-20.1c-12.67.76-30.06-.24-47.67-1.1-17.51-.86-35.25-1.57-48.33-.16l.43 3.98c12.7-1.38 30.11-.69 47.7.17 17.5.86 35.16 1.88 48.11 1.1zm-96-1.26c-25.13 2.73-49.75 7.67-71.72 21.53l2.13 3.39c21.2-13.37 45.08-18.23 70.02-20.94zm-71.72 21.53a22 22 0 0 1-4.46 2.13l1.3 3.79a26 26 0 0 0 5.29-2.53zm-4.95 2.38c-7.78 5.4-13.73 7.83-19.4 10.9s-10.67 6.62-15.85 14.05l3.28 2.29c4.74-6.8 9.21-9.98 14.48-12.83 5.28-2.86 11.75-5.55 19.77-11.12zm-33.32 24.12c-3.65-.55-7.64.42-11.36 2.17a38 38 0 0 0-10.43 7.45c-3.02 3.03-5.52 6.54-6.87 10.11s-1.61 7.4.23 10.76l3.51-1.93c-1.1-2-1.1-4.52 0-7.42s3.22-5.95 5.96-8.7 6.01-5.1 9.3-6.65c3.32-1.56 6.48-2.23 9.07-1.84zm-26.84 27.53a85 85 0 0 0-6.56.81l.64 3.95a81 81 0 0 1 6.25-.77zm-6.56.81a55 55 0 0 0-11.86 3.3l1.49 3.71a51 51 0 0 1 11-3.06zm-11.86 3.3a33 33 0 0 0-11.42 7.66l2.88 2.78a29 29 0 0 1 10.02-6.72zm-11.44 7.68a33 33 0 0 0-3.74 4.85l3.38 2.13a29 29 0 0 1 3.28-4.25zm-3.78 4.93a34 34 0 0 1-2.38 3.62l3.2 2.4a38 38 0 0 0 2.65-4.05zm-2.16 3.37-1.77 1.7 2.76 2.89 1.77-1.7zm-1.78 1.7a69 69 0 0 0-1.87 1.9l2.9 2.75a65 65 0 0 1 1.76-1.78zm-1.87 1.89a74 74 0 0 0-3.4 3.8l3.06 2.58a70 70 0 0 1 3.23-3.61zm-3.4 3.8a90 90 0 0 0-3.52 4.54l3.23 2.35a86 86 0 0 1 3.35-4.31zm-3.73 4.9a63 63 0 0 0-5.35 29.2l3.99-.23a59 59 0 0 1 5.01-27.34zm-3.8 31.03c.21.05.61.25 1.15.71a9 9 0 0 1 1.72 2.13c.1.2.08.2.06.07-.01-.05-.06-.34.06-.72a1.9 1.9 0 0 1 1.22-1.22c.52-.16.92-.04 1-.01.12.03.17.07.12.04l-2.08 3.42q.3.19.74.35c.26.08.79.2 1.4.02a2.1 2.1 0 0 0 1.42-1.43c.15-.48.1-.9.06-1.13-.08-.47-.27-.9-.44-1.23a10 10 0 0 0-.68-1.1 13 13 0 0 0-1.98-2.2 7 7 0 0 0-2.89-1.6zm5.27.97a9 9 0 0 0-3.08-1.18c-.4-.07-.86-.12-1.25-.17-.42-.05-.9-.12-1.53-.24l-.76 3.93q1.1.2 1.8.28c.5.06.78.09 1.06.14.43.07.85.19 1.8.72zm-6.69-1.57h.1l-.68 3.93q.75.14 1.48-.04zm.1 0 .1.03-2.17 3.36q.64.41 1.39.54zm-.7-.27c-6.76-1-14.38-.06-21.23 2.45-6.84 2.5-13.1 6.65-16.96 12.26l3.3 2.27c3.25-4.74 8.72-8.46 15.03-10.78 6.3-2.3 13.25-3.13 19.28-2.24zm-38.4 15.1a47 47 0 0 0-2.72 9.5l3.94.69a43 43 0 0 1 2.49-8.7zm-2.68 9.3a60 60 0 0 0-1.9 10.35l3.99.37a56 56 0 0 1 1.77-9.65zm-1.9 10.54v1.33h4v-1.33zm.01 1.59q.1.8.32 1.58l3.86-1.04a8 8 0 0 1-.21-1.06zm.3 1.5q.21.96.36 1.93l3.96-.61a34 34 0 0 0-.42-2.2zm.36 1.94q.29 1.9.44 3.81l3.98-.34a55 55 0 0 0-.47-4.1zm.43 3.77.45 7.05 4-.26-.46-7.04zm.45 7.06q.21 2.92.95 5.74l3.87-1.01a28 28 0 0 1-.83-5.01zm.95 5.75q.34 1.28 1.03 2.4l3.42-2.06a5 5 0 0 1-.59-1.38zm1 2.35q.5.87 1.36 1.36l1.95-3.49q.11.07.17.18zm1.36 1.36q.87.49 1.87.45l-.15-4 .23.06zm1.8.46h.15v-4h-.16zm-.5-.1c1.9.63 3.98.04 5.36-1.35 1.46-1.47 2.06-3.7 1.36-6.22l-3.85 1.09c.36 1.28-.01 1.98-.34 2.3-.4.42-.93.49-1.24.38zm6.5-5.99.39-.63-3.42-2.08-.39.63zm-.06-.12a6 6 0 0 1 1.58-.91l-1.43-3.74q-1.46.57-2.67 1.54zm1.5-.88q.9-.3 1.83-.48l-.74-3.93q-1.2.23-2.36.61zm1.84-.48.72-.14-.77-3.92-.72.14zm.98-.2a11 11 0 0 0 1.05-.43l-1.69-3.63-.65.26zm.95-.39c.47-.19.74-.31 1.09-.43l-1.3-3.78c-.47.16-.97.38-1.28.5zm1.12-.44a43 43 0 0 1 5.01-1.48l-.9-3.9a47 47 0 0 0-5.48 1.62zm5.03-1.49a51 51 0 0 1 8.57-1.33l-.27-3.99a55 55 0 0 0-9.24 1.43zm6.44-3.32a2 2 0 0 1 .18-.79l-.03.05-.12.24 3.68 1.58-.04.09.01-.03.05-.08q.06-.1.15-.35c.05-.17.12-.41.12-.71zm.06-.56a40 40 0 0 0-2.74 7.86l3.9.92a36 36 0 0 1 2.46-7.08zm-2.75 7.9a19 19 0 0 0-.4 3.64l4 .05q.01-1.44.31-2.86zm1.6 3.66h-2v.36h4v-.36zm-2 .36v.45h4v-.45zm0 .45v.92h4v-.92zm0 .85q-.03 1.08.13 2.16l3.95-.61a8 8 0 0 1-.08-1.42zm.13 2.15a10 10 0 0 0 .97 3.03l3.57-1.81a6 6 0 0 1-.59-1.82zm1.53.54-.2.15 2.44 3.17.2-.15zm-.29.23a10.5 10.5 0 0 0-3.31 5.36l3.88.99a6.5 6.5 0 0 1 2.05-3.33zm-3.3 5.35a10.4 10.4 0 0 0 0 5.26l3.86-1a6.4 6.4 0 0 1 0-3.25zm1.93 4.76h2v.04a2 2 0 0 1-.2.8q-.25.44-.55.63l-2.22-3.32a2.3 2.3 0 0 0-.8.9 2 2 0 0 0-.23.92v.02zm-1.76.46q.14.4.36.75l3.39-2.13.04.1zm1.84-2.3q-.14.01-.28 0l-.44 3.97q.57.07 1.15 0zm.47.24a4 4 0 0 0-1.07-.43l-.98 3.88.1.05zm-1.02-.41a7 7 0 0 0-3.01-.18l.63 3.95q.66-.1 1.3.08zm-2.99-.18q-1.26.18-2.45.68l1.54 3.69a6 6 0 0 1 1.49-.41zm-2.4.66c-.74.28-1.4.61-1.94.87-.56.28-1.02.49-1.5.64l1.24 3.8c.76-.24 1.43-.56 2-.84.6-.29 1.1-.53 1.64-.74zm-3.66 1.6c-.85.4-1.92.68-3.4 1.06a38 38 0 0 0-4.88 1.54l1.52 3.7c1.49-.6 2.94-1 4.36-1.36 1.36-.36 2.84-.73 4.09-1.31zm-8.3 2.61q-.73.31-1.43.7l1.94 3.5q.5-.29 1.05-.51zm-1.4.69q-.8.42-1.5.95l2.4 3.2a8 8 0 0 1 .98-.63zm-1.42.9q-.66.43-1.17 1.05l3.06 2.57q.15-.18.34-.31zm-1.18 1.06a7 7 0 0 0-.8 1.18l3.53 1.9q.15-.29.35-.53zm-.82 1.21a8 8 0 0 0-.73 2.04l3.9.86q.13-.56.39-1.07zm-.75 2.14a19 19 0 0 0 0 6.15l3.95-.65a15 15 0 0 1 0-4.84zm0 6.1a36 36 0 0 0 1.24 5.62l3.83-1.17a32 32 0 0 1-1.11-5zm1.22 5.54a24 24 0 0 0 2.43 5.95l3.47-1.99a20 20 0 0 1-2.03-4.97zm2.53 6.1a25 25 0 0 0 4.68 5.06l2.54-3.1a21 21 0 0 1-3.94-4.25zm4.64 5.03c.8.68 1.6 1.38 2.55 2.07l2.36-3.23c-.8-.58-1.5-1.18-2.3-1.87zm2.55 2.07 1.27.93 2.37-3.23-1.28-.93zm1.33.97 1.22.84 2.26-3.3-1.23-.84zm.97.63.34.33 2.76-2.9-.34-.32zm.48.45.73.58 2.48-3.15-.73-.57zm.78.61q.84.63 1.76 1.14l1.97-3.48a13 13 0 0 1-1.35-.87zm1.7 1.11a27 27 0 0 0 3.26 1.68l1.58-3.67a23 23 0 0 1-2.76-1.43zm3.3 1.7 2.75 1.12 1.5-3.7-2.74-1.13zm2.69 1.1 1.25.55 1.63-3.65-1.26-.56zm1.24.55.48.21 1.65-3.64-.48-.22zm.72.3.56.17 1.17-3.82-.56-.17zm.54.17.73.23 1.21-3.81-.73-.23zm.73.23a24 24 0 0 0 7.09 1.1v-4a20 20 0 0 1-5.88-.91zm7.1 1.1q.91 0 1.81-.12l-.54-3.97q-.64.09-1.29.1zm1.8-.12a21 21 0 0 0 5.14-1.32l-1.48-3.72q-2.02.8-4.17 1.07zm5.02-1.28a115 115 0 0 0 9.73-3.6l-1.59-3.68a112 112 0 0 1-9.38 3.48zm9.7-3.59c1.62-.67 3-1.35 4.32-2l-1.76-3.59c-1.34.66-2.6 1.28-4.08 1.89zm4.33-2 .97-.48-1.77-3.59-.97.49zm1.06-.52.28-.16-1.94-3.5-.28.16zm.36-.2.65-.41-2.1-3.4-.66.4zm.66-.41.12-.08-2.12-3.4-.12.08zm.14-.1c.64-.4 1.26-.84 1.78-1.2l-2.26-3.3c-.57.4-1.1.77-1.68 1.14zm1.89-1.27a48 48 0 0 1 10.11-6.14l-1.64-3.65a52 52 0 0 0-10.95 6.65zm10-6.1q.45-.17.93-.27l-.88-3.9q-.75.16-1.46.43zm-1.26-3.2a48 48 0 0 1-2.58 4.1l3.28 2.3a52 52 0 0 0 2.8-4.45zm-1.72 3.4q-.85.37-1.65.84l2.04 3.44q.57-.34 1.18-.6zm-1.6.8a21 21 0 0 0-6.03 5.04l3.1 2.53a17 17 0 0 1 4.87-4.06zm-2.76 7.33a2 2 0 0 1-.6.62 2 2 0 0 1-2.7-.5 2 2 0 0 1-.23-.43 2 2 0 0 1-.1-.4l.01-.07s.02-.14.11-.33l3.58 1.79c.3-.6.32-1.25.3-1.56a3 3 0 0 0-.15-.83 2 2 0 0 0-1.25-1.23 2 2 0 0 0-1.78.23 2 2 0 0 0-.62.66zm-3.45.77c.41.74 1.1 1.35 1.81 1.84q1.13.78 2.77 1.45c2.16.87 5.04 1.56 8.53 1.78 6.98.45 16.41-1.02 27.5-6.88l-1.87-3.54c-10.49 5.55-19.2 6.82-25.38 6.43-3.1-.2-5.56-.8-7.3-1.5q-1.3-.54-1.97-1.03c-.5-.34-.63-.54-.62-.53zm40.99-2.07c1.66-1.45 2.96-2.26 4.3-3.13a26 26 0 0 0 4.46-3.45l-2.8-2.86a22 22 0 0 1-3.82 2.95c-1.34.86-2.86 1.81-4.77 3.47zm8.66-6.5c1.9-1.64 3.41-3.07 5-4.26l-2.4-3.2c-1.73 1.3-3.5 2.96-5.2 4.43zm4.95-4.22a62 62 0 0 0 3.51-2.68l-2.52-3.1a57 57 0 0 1-3.29 2.5zm.25-4.23v.08h4v-.08zm3.3 1.6.22-.2-2.6-3.03-.22.19zm.2-.18.89-.75-2.58-3.05-.88.74zm.87-.73c2.15-1.77 4.27-3.85 6.4-5.87a71 71 0 0 1 6.89-5.9l-2.36-3.23a75 75 0 0 0-7.27 6.23c-2.22 2.1-4.19 4.03-6.2 5.68zm13.22-11.73c.82-.54 1.33-.93 2-1.34l-2.04-3.43c-.78.46-1.6 1.06-2.18 1.45zm1.99-1.33a17 17 0 0 1 1.72-.87l-1.6-3.67q-1.1.48-2.14 1.09zm1.67-.85.22-.07.69-.18q.87-.23 2.25-.55c1.81-.42 4.14-.95 6.52-1.46a190 190 0 0 1 10.86-2.15l-.44-3.98c-1.47.16-6.55 1.2-11.27 2.22a431 431 0 0 0-6.58 1.48q-1.4.32-2.34.56c-.54.14-1.1.3-1.42.43zm18.4-5.8a54 54 0 0 0 10.58 19.08l3.03-2.6a50 50 0 0 1-9.78-17.68zm10.46 18.92c.6.86 2.22 3.41 3.74 5.8l1.97 3.15.62 1 .18.27.06.1 1.7-1.06 1.69-1.06-.02-.03-.04-.07-.17-.28-.63-1-1.98-3.15c-1.48-2.35-3.17-5-3.84-5.96zm6.55 10.3.31.5 3.42-2.07-.3-.5zm.3.5q.4.65 1 1.11l2.44-3.17zm.77.9q.37.4.82.96l3.12-2.5a19 19 0 0 0-1.04-1.21zm.8.95.92 1.17 3.15-2.48-.92-1.16zm.85 1.07.61.87 3.28-2.28-.6-.87zm.31-.76-.22.95 3.91.84q.06-.32.2-.82zm-.26 1.37v.14h4v-.14zm.21-.75-.62 1.24 3.58 1.79.62-1.24zm-.6 1.2q-.62 1.18-1.38 2.47l3.47 1.99q.76-1.3 1.45-2.6zm-1.38 2.47-.37.65 3.47 1.99.37-.65zm-.4.69-.18.34 3.51 1.92.2-.35zm-.14.27a5 5 0 0 0-.43.92l3.77 1.34.1-.2zm-.42.88c-.15.42-.38.98-.55 1.49l3.8 1.26c.14-.42.28-.76.5-1.34zm-.54 1.47a33 33 0 0 0-.92 2.97l3.88.97c.2-.84.5-1.7.82-2.64zm-.9 2.92a45 45 0 0 0-1.21 5.69l3.96.57a40 40 0 0 1 1.1-5.18zm-1.21 5.7a59 59 0 0 0-.55 10.13l4-.13q-.15-4.75.51-9.45zm-.54 10.2a66 66 0 0 1-.2 10.66l3.98.4q.56-5.65.2-11.32zm3.52 11.87a2 2 0 0 1-.43.48 2 2 0 0 1-2.96-.55 2 2 0 0 1-.26-.99v-.05.07l-.23 1.06-.26 1.09-.06.23v.05l-.01.03-.01.06-.03.4c1.03 1.68 3.48 1.28 3.82.76l.08-.2.02-.05v-.04l.01-.02.01-.04.04-.13-3.88-1-.03.13v-.01l.01-.04.02-.05c0-.03.05-.13.08-.2.33-.52 2.79-.93 3.82.76l-.03.4-.02.09v.04-.02l.01-.04.04-.16a79 79 0 0 0 .54-2.46l.04-.32c.01-.07.03-.28 0-.52 0-.08-.04-.44-.26-.83a2 2 0 0 0-3.02-.56 2 2 0 0 0-.28.29l-.23.32zm-3.85.5c-3.56 5.1-5.5 10.22-7.36 14.95-1.87 4.78-3.67 9.17-6.92 13.26l3.13 2.49c3.67-4.62 5.65-9.52 7.52-14.29 1.88-4.8 3.66-9.47 6.9-14.1zm-14.65 28.97c-.5 1.97.94 3.31 1.92 3.89a7 7 0 0 0 3.9.89l-.22-4c-.67.04-1.3-.13-1.66-.34-.18-.1-.19-.16-.14-.1a.8.8 0 0 1 .08.63zm7.16 4.16q1.27-1.33 1.92-1.88.32-.28.45-.35c.1-.07.04-.01-.14.03-.19.05-.76.14-1.34-.25a1.7 1.7 0 0 1-.7-1.02c-.05-.2 0-.23-.07.2-.06.34-.15.72-.27 1.24a17 17 0 0 0-.27 1.6c-.06.5-.1 1.2.07 1.88.2.76.73 1.7 1.89 2.06l1.18-3.82c.58.18.78.66.8.78.02.04-.01-.08.03-.45q.06-.52.22-1.21l.28-1.4c.07-.36.18-1.05.05-1.69a2.4 2.4 0 0 0-.96-1.48 2.3 2.3 0 0 0-1.9-.3c-.74.18-1.41.7-1.92 1.14q-.9.75-2.22 2.17zm1.52 3.5c2.86.93 6.3.77 9.2.2 2.85-.55 5.67-1.6 7.2-2.9l-2.57-3.06c-.76.64-2.78 1.53-5.4 2.04-2.57.5-5.25.55-7.2-.08zm16.58-2.86.09-.08.24-.21c.17-.15.43-.38.65-.6l-2.83-2.82-.44.4-.3.26-.33.32zm.95-.86a24 24 0 0 0 2.03-2.21l-3.11-2.52a20 20 0 0 1-1.7 1.85zm2.03-2.21a17 17 0 0 0 2.55-4.3l-3.7-1.52a13 13 0 0 1-1.96 3.3zm2.18-3.73c.82-.9 1.59-2.13 2.16-2.98q.46-.7.83-1.15c.26-.32.43-.45.5-.49l-2.12-3.4a6 6 0 0 0-1.45 1.33c-.39.47-.75.99-1.08 1.47-.7 1.05-1.24 1.91-1.81 2.55zm.43-6.32-.05 2.12-.05 2.37h4l.05-2.27.05-2.22zm-.1 4.49v1.47h4v-1.47zm2 3.47h.31v-4h-.3zm.01-.02a5.7 5.7 0 0 0 3.72-.69l-1.99-3.47a1.7 1.7 0 0 1-1.12.2zm3.72-.7a9 9 0 0 0 2.5-2.16l-3.17-2.45q-.55.7-1.32 1.15zm2.5-2.16a14 14 0 0 0 1.92-3.43l-3.73-1.43a10 10 0 0 1-1.36 2.4zm1.93-3.44q.38-.96.72-2.12l-3.85-1.11a24 24 0 0 1-.61 1.82zm.72-2.12.45-1.55-3.85-1.12-.45 1.56zm.47-1.63q.78-3.19 1.2-6.43l-3.97-.51a54 54 0 0 1-1.12 5.98zm1.2-6.42q.44-3.38.65-6.98l-4-.24a90 90 0 0 1-.61 6.68zm.65-7.07a36 36 0 0 1 .7-6.46l-3.93-.8a40 40 0 0 0-.76 7.2zm.67-6.36a43 43 0 0 1 5.83-13.02l-3.33-2.22a47 47 0 0 0-6.37 14.24zm5.86-13.07c1.74-2.79 3.66-5.47 5.62-8.09l-3.21-2.39a122 122 0 0 0-5.8 8.36zm5.6-8.06c.6-.78.87-1.19 1.36-1.73l-2.98-2.68c-.62.7-1.1 1.38-1.55 1.96zm1.36-1.73a19 19 0 0 0 1.73-2.24l-3.34-2.2a15 15 0 0 1-1.37 1.76zm1.65-2.13a31 31 0 0 0 2.92-4.63l-3.56-1.83a27 27 0 0 1-2.54 4.03zm2.93-4.65a28 28 0 0 0 2.8-9.72l-3.99-.38a24 24 0 0 1-2.38 8.3zm2.8-9.72c.15-1.56.19-3 .24-4.21.06-1.25.13-2.27.33-3.19l-3.92-.83a24 24 0 0 0-.4 3.84c-.06 1.3-.1 2.58-.24 4zm.57-7.43q.28-1.39.84-2.7l-3.68-1.58a18 18 0 0 0-1.08 3.5zm.82-2.66.16-.34-3.64-1.66-.16.34zm.17-.36.12-.28-3.66-1.62-.12.28zm.14-.32.08-.19-3.7-1.54-.07.2zm.08-.2.3-.74-3.71-1.5-.3.73zm.57-1.36.3-.66-3.62-1.69-.31.67zm.5-1.5c0-.05 0-.31-.1-.62a2 2 0 0 0-2.41-1.34 2 2 0 0 0-1.12.75l-.16.26-.15.33-.18.41 3.6 1.73c.13-.25.23-.51.28-.62l-.02.04a2 2 0 0 1-.4.5 2 2 0 0 1-3.25-.86c-.1-.3-.1-.56-.1-.59zm-1.28 2.85c2.89-2.62 5.78-5.69 9.23-8.07 3.37-2.32 6.96-3.74 11-3.18l.55-3.96c-5.4-.75-10 1.21-13.82 3.85-3.75 2.58-7.06 6.05-9.65 8.4zm20.36-11.23c2.76.2 5.5.71 8.14 1.54l1.2-3.82a40 40 0 0 0-9.06-1.71zm7.77 1.38.42.23 1.94-3.5-.42-.23zm.46.26a57 57 0 0 0 9.49 3.92l1.19-3.82a53 53 0 0 1-8.82-3.65zm9.25 3.83c8.73 3.97 23.8 8.28 37.71 11.72 13.94 3.45 26.98 6.1 31.71 6.72l.52-3.97c-4.5-.58-17.35-3.19-31.26-6.63-13.94-3.45-28.67-7.68-37.02-11.48zm69.4 18.44q5.86.8 11.77.96l.11-4q-5.69-.15-11.33-.93zm11.77.96c3.9.11 7.84.08 11.83 0l-.08-4q-5.92.13-11.64 0zm11.84 0c2.88-.08 46.51 1.26 98.22-21.23l-1.6-3.67c-50.92 22.15-93.84 20.82-96.73 20.9zm98.27-21.25a88 88 0 0 0 9.53-5.21l-2.13-3.39a84 84 0 0 1-9.1 4.98zm8.46-4.9h2.35v-4h-2.35zm1.16-.4c5.75 4.24 24.72 17.02 40.83 27.49l2.18-3.36c-16.11-10.46-35-23.2-40.64-27.35zm40.81 27.47c.51.35.71.63.83.87.14.3.23.72.3 1.48.14 1.49.16 3.88 1.18 7.03l3.8-1.22c-.84-2.63-.83-4.42-1-6.19a8 8 0 0 0-.66-2.79q-.7-1.49-2.24-2.5zm6.2 9.04.01-.13.01-.04v-.02.04l-.05.13c-.01.03-.08.21-.22.42a2 2 0 0 1-3.5-.47l-.09-.36v-.09l-.02.54 4 .2q.02-.5.01-.82l-.03-.4a2 2 0 0 0-.37-.93 2 2 0 0 0-3.27.02 2 2 0 0 0-.25.47q-.1.25-.1.38l-.1.51zm-3.86.06c-.11 3.69-.35 9.27-.45 14.53-.1 5.21-.08 10.38.36 13.23l3.95-.61c-.38-2.44-.41-7.24-.3-12.54.1-5.25.32-10.72.43-14.5zm.07 26.63c-.17.35-.26.82-.31 1.08q-.11.55-.23 1.27l-.49 3.31-.49 3.23-.2 1.08-.07.27.08-.17 3.48 1.97c.15-.26.23-.52.27-.65l.14-.54q.12-.55.24-1.28c.17-.96.34-2.16.51-3.33l.48-3.26.2-1.11c.07-.37.1-.36.03-.22zm-1.95 10.78c-.42 3.07-2.13 5.96-4.6 9.59-2.41 3.53-5.46 7.67-7.95 12.9l3.61 1.72c2.32-4.88 5.14-8.7 7.64-12.38 2.45-3.58 4.7-7.18 5.26-11.28zm-12.03 24.89a19 19 0 0 0 4 2.57l1.72-3.61a15 15 0 0 1-3.15-2.02zm5.9 2.47c.9-.55 1.86-.92 2.92-1.27.99-.33 2.23-.7 3.32-1.2a9 9 0 0 0 3.3-2.44 10 10 0 0 0 2-4.66l-3.93-.76a6.4 6.4 0 0 1-1.19 2.9 4.6 4.6 0 0 1-1.82 1.32c-.85.39-1.74.64-2.95 1.04a18 18 0 0 0-3.74 1.66zm7.6-10.34c-.48 2.42-.79 3.06-1.22 3.95-.54 1.12-1.23 2.51-2.34 6.2l3.83 1.16c1.04-3.45 1.64-4.65 2.11-5.62.58-1.2 1-2.16 1.55-4.9zm-1.96 12.7c4.09.66 8.27.47 12.28-.56l-1-3.88a26 26 0 0 1-10.65.5zm12.66-.7.08-.03.24-.1.78-.28 2.16-.77a61 61 0 0 0 2.2-.82l.89-.39c.18-.09.6-.3.93-.61l-2.79-2.87c.2-.18.33-.22.1-.11l-.64.28c-.55.22-1.27.49-2.03.76l-2.16.76c-.57.2-1.2.43-1.52.59zm7.54-3.3a84 84 0 0 0 4.45-7.26l-3.51-1.91a80 80 0 0 1-4.24 6.9zm4.38-7.14c.58-.9 1.03-1.91 1.4-2.7.4-.84.73-1.48 1.13-2l-3.16-2.45c-.7.9-1.18 1.9-1.58 2.74-.43.9-.75 1.61-1.16 2.26zm-1.04-6.09-.56 6.55 3.98.34.56-6.55zm-.57 6.72a2.05 2.05 0 0 0 1.67 2.02c.56.1 1.01-.05 1.08-.08l.37-.14.16-.09-1.79-3.57c-.15.08-.08.03.03 0a2 2 0 0 1 .9-.05 1.95 1.95 0 0 1 1.58 1.91zm3.1 1.8.49-.19-1.4-3.74-.5.18zm.6-.23a41 41 0 0 0 1.95-.93l-1.81-3.57q-.87.44-1.76.84zm1.96-.94a13 13 0 0 0 4.02-3.21l-3.07-2.56a9 9 0 0 1-2.77 2.21zm4-3.2a11 11 0 0 0 1.57-2.4l-3.6-1.73a7 7 0 0 1-1 1.54zm1.57-2.38q.48-.98.82-2.02l-3.8-1.23a11 11 0 0 1-.6 1.48zm.83-2.07q.6-2 .75-4.07l-3.99-.3a15 15 0 0 1-.6 3.23zm.75-4.08a56 56 0 0 0 0-7.53l-4 .26a52 52 0 0 1 0 7zm0-7.53a44 44 0 0 1-.12-3.41l-4-.06q-.01 1.9.13 3.73zm-.12-3.41c.02-1.2 0-2.55 0-3.74h-4c0 1.26.02 2.52 0 3.68zm0-3.74q-.02-.46-.08-.76l-.14-.72-.4-2.07a52 52 0 0 1-.67-7.54c-.15-6.71.65-17.04 4.52-32l-3.88-1c-3.95 15.26-4.8 25.96-4.64 33.1.08 3.56.42 6.22.73 8.1q.25 1.41.42 2.21l.12.61c.03.17.02.16.02.07zm3.22-43.07a12 12 0 0 0 0-6.05l-3.86 1.03a8 8 0 0 1 0 3.99zm-.02-6.12a21 21 0 0 0-2.21-4.89l-3.4 2.1a17 17 0 0 1 1.79 3.96z" mask="url(#a)"/><path fill="#000" d="M175.66 279.17v.16zm0-.04v.15a24 24 0 0 1-.45 2.47c-.3 1.07.87-3.26.45-2.62"/><path stroke="#C3CAD4" stroke-width="2" d="M427.64 235.53c7.67-2.28 15.13-4.89 22.2-8.35-5.72 5.1-9.62 10.42-14.02 16.44l-2.39 3.24c-3.45 4.61-8.02 8.08-12.73 11.59l-.47.35c-4.53 3.37-9.16 6.81-12.75 11.32-3.3 4.14-4.73 9.15-6.07 13.86l-.36 1.26c-1.5 5.15-3.07 9.8-6.88 13.13-3.25 2.82-9.16 4.65-15.4 5.33-5.76.63-11.56.26-15.47-1.03.8-1.96 1.94-3.83 3.19-5.7q.55-.84 1.13-1.68a64 64 0 0 0 3.16-4.93l-1.52-1.26c-3.2 2.69-6.56 5.42-10.28 6.64 2.23-4.99 5.4-8.63 8.96-12.06a172 172 0 0 1 3.64-3.37c2.95-2.69 6.03-5.49 8.84-8.86 1.83-2.21 3.02-4.9 3.92-7.64.6-1.8 1.1-3.7 1.57-5.53l.74-2.75c1.52-5.4 3.33-9.57 7.88-10.91a488 488 0 0 1 16.73-4.6l.48-.14c5.37-1.4 10.69-2.8 15.9-4.35Zm-175.86 27.62c-2.1 5.22-1.75 9.47-1.38 13.97q.19 2 .28 4.1c.06 1.7.48 3.34.89 4.89l.02.08c.42 1.6.81 3.15.9 4.82.17 3.22-.79 7.1-5.68 12.42l-.24.08q-.39.12-.67.04c-.13-.04-.32-.13-.49-.52a6 6 0 0 1-.23-2.68l.19-2.4-1.83 1.56c-5.62 4.77-10.9 7.68-17.4 7.07l.01-.04c.17-.86.35-1.77.44-2.62.13-1.25.1-2.6-.52-3.82l-.87-1.74-.9 1.72a18 18 0 0 1-4 5.1 30 30 0 0 1-1.83-.75q.34-1.01 1.15-2.12c.47-.65.99-1.28 1.57-1.99q.56-.65 1.17-1.43a27 27 0 0 0 5.67-11.86c.74-3.45 1.9-6 3.06-8.55l.61-1.35a28 28 0 0 0 2.8-10.94l.08-1.92c.27-5.65.55-11.62-.12-17.3-.73-6.12-2.57-12-6.78-16.89 2.22-3.61 4.73-6.02 7.45-7.52a18 18 0 0 1 9.51-2.09c6.7.22 14.31 3.13 22.47 6.8-2.97 4.92-5.66 11-8.12 17.14a579 579 0 0 0-3.76 9.78l-.07.18c-1.18 3.12-2.3 6.09-3.38 8.78Zm292.2-203.84a10 10 0 0 1-3.48-2.94l-21.04-22.6a44 44 0 0 1 17.35-9.43 27.4 27.4 0 0 1 20.2 2.47 25 25 0 0 1 8.12 7.33l.23.32.38.08a31 31 0 0 1 12.2 5.45 23 23 0 0 1 3.43 3.25 23 23 0 0 0-4.12-3.15 29 29 0 0 0-8.79-3.43l-1.93-.4.81 1.8a20 20 0 0 1 1.35 4.09 15 15 0 0 1-1.25 9.9 14.6 14.6 0 0 1-6.98 6.45 24 24 0 0 1-8.07 1.99h-.07a15.3 15.3 0 0 1-8.34-1.18Zm5.3-3.94h.01a22 22 0 0 0 3.1-.37 17 17 0 0 0 5.9-2.1 7.85 7.85 0 0 0 3.4-9.8 15.6 15.6 0 0 0-4.88-6.92l-.32-.26-.4.04q-.94.1-1.87.23h-.01a13 13 0 0 0-4.82 1.88 14.6 14.6 0 0 0-6.23 8.7 9 9 0 0 0 .1 5.22v.01l.01.02a4.8 4.8 0 0 0 3.36 3.06q1.3.33 2.65.3Z"/><path fill="#C3CAD4" d="M529.68 192.57a2.34 2.34 0 0 0-1.68 4 2.4 2.4 0 0 0 2.56.51 2.34 2.34 0 0 0-.88-4.5m-7.43 5.61a2.4 2.4 0 0 0-2.18 1.44 2.4 2.4 0 0 0 .5 2.56 2.34 2.34 0 0 0 4-1.67 2.33 2.33 0 0 0-2.32-2.33m-8.23 4.33a2.3 2.3 0 0 0-2.15 1.44 2.33 2.33 0 0 0 4.09 2.19 2.33 2.33 0 0 0-1.94-3.63m-8.34 4.13a2.32 2.32 0 0 0-2.27 2.8 2.3 2.3 0 0 0 1.83 1.81 2.3 2.3 0 0 0 2.39-.99 2.33 2.33 0 0 0-1.95-3.62m-8.4 3.94a2.33 2.33 0 1 0 .91 4.48 2.3 2.3 0 0 0 1.43-2.15 2.3 2.3 0 0 0-1.44-2.15 2 2 0 0 0-.9-.18m-8.89 2.84a2.34 2.34 0 0 0-2.3 2.81 2.34 2.34 0 0 0 3.2 1.7 2.3 2.3 0 0 0 1.44-2.18 2.33 2.33 0 0 0-2.34-2.32m-8.86 2.85a2.33 2.33 0 0 0-1.65 3.98 2.33 2.33 0 0 0 3.98-1.65 2.33 2.33 0 0 0-2.33-2.33m-22.8-10.58a2.4 2.4 0 0 0-2.17 1.44 2.34 2.34 0 1 0 2.17-1.44m-5.25-7.53a2.3 2.3 0 0 0-2.18 1.43 2.35 2.35 0 0 0 3.05 3.08 2.4 2.4 0 0 0 1.45-2.17 2.35 2.35 0 0 0-2.33-2.34m-1.07-6.3a2.33 2.33 0 1 0-4.65 0 2.33 2.33 0 0 0 4.66 0m-3.4-8.7a2.4 2.4 0 0 0-1.44-2.18 2.34 2.34 0 1 0 1.44 2.18m-3.4-8.68a2.4 2.4 0 0 0-1.44-2.17 2.3 2.3 0 0 0-2.56.5 2.4 2.4 0 0 0-.51 2.55 2.4 2.4 0 0 0 2.16 1.45 2.34 2.34 0 0 0 2.35-2.33m-1.82-9.12a2.3 2.3 0 0 0-1.43-2.18 2.35 2.35 0 0 0-3.2 1.7 2.34 2.34 0 1 0 4.63.48m-4.16-6.82a2.3 2.3 0 0 0 2.16-1.43 2.33 2.33 0 1 0-4.48-.9 2.34 2.34 0 0 0 2.32 2.33m-1.81-9.12a2.4 2.4 0 0 0 2.18-1.44 2.34 2.34 0 1 0-2.18 1.44m.53-11.48a2.4 2.4 0 0 0-1.44-2.17 2.34 2.34 0 1 0-.9 4.5 2.33 2.33 0 0 0 2.34-2.33m-3.14-6.94a2.33 2.33 0 0 0 1.63-3.98 2.32 2.32 0 0 0-3.58.36 2.33 2.33 0 0 0 1.95 3.62m-.62-9.28a2.3 2.3 0 0 0 2.18-1.43 2.35 2.35 0 0 0-1.7-3.2 2.34 2.34 0 0 0-2.8 2.29 2.3 2.3 0 0 0 1.43 2.16q.42.18.9.18m-.63-9.3a2.33 2.33 0 0 0 1.65-3.97 2.32 2.32 0 0 0-3.58.35 2.33 2.33 0 0 0 1.93 3.63m-.6-9.3a2.3 2.3 0 0 0 2.14-1.45 2.33 2.33 0 0 0-1.71-3.17 2.33 2.33 0 1 0-.44 4.62m-.34-9.29a2.35 2.35 0 0 0 2.41-1.37 2.35 2.35 0 0 0-.58-2.7 2.34 2.34 0 1 0-1.83 4.07m.6-13.97a2.34 2.34 0 0 0-2.3 2.8 2.3 2.3 0 0 0 1.84 1.85 2.34 2.34 0 0 0 2.8-2.3 2.34 2.34 0 0 0-2.35-2.35m.6-4.62a2.33 2.33 0 1 0-2.34-2.33 2.35 2.35 0 0 0 2.33 2.33m.6-9.3a2.3 2.3 0 0 0 2.15-1.45 2.33 2.33 0 0 0-1.7-3.16 2.3 2.3 0 0 0-2.4.99 2.3 2.3 0 0 0 .3 2.94 2.3 2.3 0 0 0 1.66.68m-1.75-11.63a2.4 2.4 0 0 0 1.43 2.18 2.34 2.34 0 0 0 3.07-3.05 2.34 2.34 0 0 0-4.5.87m1.47-9.16a2.4 2.4 0 0 0 1.44 2.18 2.34 2.34 0 0 0 2.2-4.11 2.3 2.3 0 0 0-1.31-.4 2.33 2.33 0 0 0-2.33 2.33m2.1-9.08a2.33 2.33 0 1 0 2.34-2.32 2.34 2.34 0 0 0-2.33 2.32m2.13-9.06a2.4 2.4 0 0 0 1.43 2.18 2.34 2.34 0 0 0 3.07-3.06 2.4 2.4 0 0 0-2.16-1.45 2.34 2.34 0 0 0-2.35 2.33m2.08-9.02a2.33 2.33 0 1 0 2.33-2.33 2.35 2.35 0 0 0-2.33 2.33m7.24-8.96a2.4 2.4 0 0 0-1.44-2.17 2.34 2.34 0 0 0-3.07 3.06 2.4 2.4 0 0 0 2.18 1.44 2.33 2.33 0 0 0 2.32-2.33m-225.58 210.41a2.3 2.3 0 0 0-2.15 1.44 2.33 2.33 0 1 0 2.15-1.44m-4.06-8.35a2.3 2.3 0 0 0-1.3.4 2.3 2.3 0 0 0-.97 2.4 2.33 2.33 0 0 0 4.22.82 2.33 2.33 0 0 0-1.95-3.62m-5.87-6.44a2.4 2.4 0 0 0-2.18 1.44 2.4 2.4 0 0 0 .5 2.56 2.4 2.4 0 0 0 2.57.5 2.3 2.3 0 0 0 1.44-2.17 2.34 2.34 0 0 0-2.33-2.33m-8.8-3.06a2.33 2.33 0 0 0-1.64 3.98 2.32 2.32 0 0 0 3.58-.36 2.33 2.33 0 0 0-1.94-3.62m-8.61 1.12a2.33 2.33 0 0 0-1.65 3.98 2.33 2.33 0 0 0 3.98-1.65 2.34 2.34 0 0 0-2.33-2.33m-8.64 3.57a2.3 2.3 0 0 0-2.18 1.44 2.4 2.4 0 0 0 .5 2.56 2.4 2.4 0 0 0 2.55.51 2.4 2.4 0 0 0 1.46-2.17 2.35 2.35 0 0 0-2.33-2.34m-5.91 6.61a2.33 2.33 0 1 0 1.93 3.63 2.33 2.33 0 0 0-1.93-3.63m-2.22 10.45a2.4 2.4 0 0 0-.4-1.3 2.4 2.4 0 0 0-2.4-1.02 2.35 2.35 0 0 0-.85 4.25 2.34 2.34 0 0 0 3.65-1.93m-48.32-171.2a2.33 2.33 0 1 0 0 4.66 2.33 2.33 0 0 0 0-4.66m-1.32 11.6a2.4 2.4 0 0 0 1.44 2.17 2.34 2.34 0 0 0 3.06-3.06 2.4 2.4 0 0 0-2.18-1.44 2.33 2.33 0 0 0-2.32 2.32m6.56 9.12a2.3 2.3 0 0 0-1.45-2.14 2.33 2.33 0 1 0 1.45 2.14m1.91 9.13a2.3 2.3 0 0 0-1.44-2.18 2.4 2.4 0 0 0-2.56.5 2.34 2.34 0 0 0 .37 3.61 2.34 2.34 0 0 0 2.94-.3 2.4 2.4 0 0 0 .69-1.64m-.44 6.79a2.3 2.3 0 0 0-2.13 1.45 2.3 2.3 0 0 0 .51 2.53 2.32 2.32 0 0 0 3.58-.36 2.33 2.33 0 0 0-1.96-3.62m-.4 11.5a2.33 2.33 0 1 0 4.66 0 2.33 2.33 0 0 0-4.66 0m6.7 9.02a2.33 2.33 0 1 0-4.47.9 2.3 2.3 0 0 0 2.15 1.44 2.3 2.3 0 0 0 2.15-1.45q.18-.42.17-.9m2.05 9.1a2.33 2.33 0 0 0-4.6-.45 2.33 2.33 0 1 0 4.6.46m-.28 6.72a2.33 2.33 0 0 0-1.64 3.97 2.3 2.3 0 0 0 2.54.5 2.33 2.33 0 0 0-.9-4.47m-.32 11.45a2.33 2.33 0 1 0 4.65 0 2.33 2.33 0 0 0-4.65 0m7.65 18.38a2.3 2.3 0 0 0-1.45-2.14 2.3 2.3 0 0 0-2.53.52 2.3 2.3 0 0 0-.63 1.19 2.32 2.32 0 0 0 3.93 2.09 2.3 2.3 0 0 0 .68-1.66m1.5 9.2a2.33 2.33 0 1 0-4.65.02 2.33 2.33 0 0 0 4.65-.03m1.77 9.1a2.33 2.33 0 1 0-4.65 0 2.33 2.33 0 0 0 4.65 0m2.14 9.1a2.33 2.33 0 1 0-4.65 0 2.33 2.33 0 0 0 4.65 0m2.14 9.07q0-.7-.39-1.29a2.3 2.3 0 0 0-2.39-.99 2.33 2.33 0 0 0-1.7 3.18 2.3 2.3 0 0 0 2.16 1.43 2.33 2.33 0 0 0 2.32-2.33m2.16 9.07a2.3 2.3 0 0 0-1.43-2.18 2.3 2.3 0 0 0-2.56.5 2.35 2.35 0 0 0 .35 3.61 2.35 2.35 0 0 0 3.64-1.93m.98 6.27a2.3 2.3 0 0 0-2.18 1.44 2.35 2.35 0 0 0 3.06 3.07 2.4 2.4 0 0 0 1.45-2.17 2.35 2.35 0 0 0-2.33-2.34m69.8-197.3a2.3 2.3 0 0 0 2.14-1.45 2.33 2.33 0 0 0-4.08-2.18 2.3 2.3 0 0 0-.4 1.3 2.34 2.34 0 0 0 2.33 2.32m-6.08 6.09a2.33 2.33 0 1 0 3.62-1.94 2.3 2.3 0 0 0-1.3-.4 2.34 2.34 0 0 0-2.32 2.34m-1.41 9.22a2.4 2.4 0 0 0 1.45 2.16 2.34 2.34 0 1 0-1.45-2.16m-1.4 9.2a2.33 2.33 0 0 0 2.8 2.27 2.33 2.33 0 0 0 1.68-3.18 2.33 2.33 0 0 0-4.48.91m-1.4 9.2a2.4 2.4 0 0 0 1.43 2.18 2.34 2.34 0 0 0 2.2-4.1 2.34 2.34 0 0 0-2.95.28 2.3 2.3 0 0 0-.69 1.65m4.94 9.28a2.33 2.33 0 1 0-3.62 1.94 2.33 2.33 0 0 0 3.62-1.94m-1.84 11.64a2.34 2.34 0 1 0 .54-4.65 2.34 2.34 0 0 0-.54 4.65m.5 9.3a2.35 2.35 0 1 0 .03-4.69 2.35 2.35 0 0 0-.03 4.69m.64 9.28a2.33 2.33 0 1 0 0-4.66 2.33 2.33 0 0 0 0 4.66m.79 9.28a2.3 2.3 0 0 0 2.14-1.44 2.3 2.3 0 0 0-.52-2.54 2.33 2.33 0 1 0-1.62 3.98m.77 9.29a2.3 2.3 0 0 0 2.15-1.44 2.33 2.33 0 0 0-4.08-2.18 2.3 2.3 0 0 0-.4 1.29 2.34 2.34 0 0 0 2.33 2.33m.8 4.6a2.3 2.3 0 0 0-2.18 1.44 2.35 2.35 0 0 0 1.7 3.2 2.3 2.3 0 0 0 2.4-.99 2.35 2.35 0 0 0-1.92-3.64m-.08 9.31a2.33 2.33 0 1 0 0 4.66 2.33 2.33 0 0 0 0-4.66m.1 9.35a3 3 0 0 0-.5 0 2.33 2.33 0 0 0-1.92 3.86c.41.47.99.75 1.6.8q.25.02.5 0a2.33 2.33 0 0 0 .31-4.66m-.51 9.28a2.33 2.33 0 1 0 0 4.65 2.33 2.33 0 0 0 0-4.65m-.22 9.31a2.33 2.33 0 0 0-2.28 2.79 2.33 2.33 0 0 0 3.17 1.7 2.3 2.3 0 0 0 1.44-2.16 2.33 2.33 0 0 0-2.33-2.33m-.22 9.3a2.35 2.35 0 0 0-2.3 2.8 2.35 2.35 0 0 0 3.2 1.7 2.34 2.34 0 0 0 .76-3.81 2.3 2.3 0 0 0-1.66-.69m-.2 9.31a2.34 2.34 0 0 0-2.31 2.8 2.34 2.34 0 1 0 2.31-2.8m-.3 9.32a2.33 2.33 0 1 0 2.32 2.33 2.34 2.34 0 0 0-2.33-2.33m-.94 18.6a2.34 2.34 0 0 0-2.32 2.8 2.34 2.34 0 1 0 2.32-2.8m-.49 9.3a2.34 2.34 0 0 0-1.67 3.99 2.34 2.34 0 0 0 4-1.65 2.35 2.35 0 0 0-2.33-2.35m-.46 9.32q-.7 0-1.3.39a2.3 2.3 0 0 0-.98 2.39 2.33 2.33 0 0 0 3.17 1.7 2.3 2.3 0 0 0 1.44-2.16 2.34 2.34 0 0 0-2.33-2.33"/><path fill="#C3CAD4" d="M142.25 138.59a2.32 2.32 0 0 0-2.26 2.79 2.33 2.33 0 1 0 2.26-2.8m-8.42 3.96a2.3 2.3 0 0 0-2.14 1.45 2.3 2.3 0 0 0 .51 2.53 2.3 2.3 0 0 0 2.54.5 2.33 2.33 0 0 0-.91-4.48m-8.41 3.96a2.3 2.3 0 0 0-2.18 1.44 2.4 2.4 0 0 0 .5 2.56 2.4 2.4 0 0 0 2.57.5 2.4 2.4 0 0 0 1.44-2.17 2.34 2.34 0 0 0-2.33-2.33m-7.12 5.53a2.33 2.33 0 0 0-1.65 3.97 2.3 2.3 0 0 0 2.54.5 2.33 2.33 0 0 0 .75-3.8 2.3 2.3 0 0 0-1.64-.67m-5.33 7.63a2.33 2.33 0 0 0-1.64 3.98 2.33 2.33 0 0 0 3.97-1.65 2.4 2.4 0 0 0-.68-1.64 2.3 2.3 0 0 0-1.65-.68m-5.33 7.63a2.33 2.33 0 0 0-2.29 2.78 2.34 2.34 0 0 0 3.18 1.7 2.33 2.33 0 0 0-.9-4.48m-2.3 9.05a2.35 2.35 0 0 0-.45 4.65 2.3 2.3 0 0 0 2.4-1.01 2.3 2.3 0 0 0 .39-1.31 2.3 2.3 0 0 0-1.45-2.16 2 2 0 0 0-.9-.17m-2.17 8.99a2.35 2.35 0 0 0-2.3 2.8 2.35 2.35 0 0 0 3.2 1.7 2.3 2.3 0 0 0 1.44-2.16 2.4 2.4 0 0 0-1.44-2.16 2 2 0 0 0-.9-.18m-1.78 9.14a2.33 2.33 0 0 0-1.65 3.98 2.3 2.3 0 0 0 2.54.5 2.3 2.3 0 0 0 1.44-2.15 2.4 2.4 0 0 0-.7-1.64 2.4 2.4 0 0 0-1.63-.69m-1.07 9.25a2.33 2.33 0 0 0-2.29 2.79 2.3 2.3 0 0 0 1.83 1.83 2.3 2.3 0 0 0 2.4-1 2.3 2.3 0 0 0-.3-2.93 2.3 2.3 0 0 0-1.64-.69m-1.07 9.26a2.3 2.3 0 0 0-2.15 1.43 2.33 2.33 0 0 0 1.7 3.18 2.33 2.33 0 1 0 .45-4.61m-1.62 9.17a2.33 2.33 0 0 0-2.28 2.78 2.3 2.3 0 0 0 1.83 1.83 2.33 2.33 0 0 0 2.78-2.28 2.33 2.33 0 0 0-2.33-2.33m-1.74 9.14a2.4 2.4 0 0 0-2.17 1.44 2.34 2.34 0 0 0 3.06 3.07 2.3 2.3 0 0 0 1.44-2.18 2.33 2.33 0 0 0-2.33-2.33m-2.59 8.85a2.33 2.33 0 0 0-2.28 2.78 2.3 2.3 0 0 0 1.83 1.83 2.33 2.33 0 0 0 2.78-2.28 2.33 2.33 0 0 0-2.33-2.33m122.59-113.38a2.33 2.33 0 1 0 0-4.65 2.33 2.33 0 0 0 0 4.65m-6.46-5.48a2.34 2.34 0 1 0-4.07 1.83 2.4 2.4 0 0 0 1.74.79 2.35 2.35 0 0 0 2.33-2.62m-11.64 1.77a2.33 2.33 0 1 0 0-4.66 2.33 2.33 0 0 0 0 4.66m-9.28-4.66a2.3 2.3 0 0 0-2.13 1.45 2.3 2.3 0 0 0 .51 2.54 2.32 2.32 0 0 0 3.58-.36 2.33 2.33 0 0 0-1.95-3.63m-8.97 5.27a2.3 2.3 0 0 0-1.44-2.15 2.33 2.33 0 1 0 1.44 2.15m-10.94 1.2a2.33 2.33 0 1 0 2.32 2.32 2.34 2.34 0 0 0-2.32-2.33m-6 6.24a2.4 2.4 0 0 0-1.43-2.17 2.34 2.34 0 1 0-.89 4.5 2.33 2.33 0 0 0 2.33-2.33m-7.92 9.8a2.35 2.35 0 0 0 2.32-2.8 2.4 2.4 0 0 0-.64-1.2 2.4 2.4 0 0 0-2.57-.5 2.35 2.35 0 0 0-.75 3.82 2.3 2.3 0 0 0 1.64.68m-7.91 7.51a2.3 2.3 0 0 0 2.28-1.86 2.3 2.3 0 0 0-1.37-2.61 2.3 2.3 0 0 0-1.35-.43 2.49 2.49 0 0 0 .44 4.9m286.9 23.28a2.3 2.3 0 0 0-2.16 1.44 2.33 2.33 0 0 0 4.09 2.19q.38-.6.39-1.3a2.34 2.34 0 0 0-2.33-2.33m-7.68 5.24a2.4 2.4 0 0 0-2.18 1.43 2.4 2.4 0 0 0 .5 2.56 2.3 2.3 0 0 0 2.56.52 2.4 2.4 0 0 0 1.45-2.17 2.3 2.3 0 0 0-.68-1.66 2.3 2.3 0 0 0-1.65-.68m-7.74 5.18a2.33 2.33 0 0 0-1.65 3.98 2.33 2.33 0 0 0 3.58-.36 2.3 2.3 0 0 0-.29-2.94 2.3 2.3 0 0 0-1.64-.68m-8.63 3.2a2.33 2.33 0 1 0 2.33 2.33 2.34 2.34 0 0 0-2.33-2.33m-9 2.39a2.3 2.3 0 0 0-2.18 1.44 2.4 2.4 0 0 0 .5 2.56 2.34 2.34 0 0 0 4-1.67c0-.62-.24-1.21-.67-1.65a2.3 2.3 0 0 0-1.65-.68m-9 2.4a2.33 2.33 0 0 0-1.65 3.98 2.33 2.33 0 1 0 1.65-3.98m-9 2.41a2.3 2.3 0 0 0-2.14 1.45 2.33 2.33 0 1 0 4.48.88 2 2 0 0 0-.17-.9 2.3 2.3 0 0 0-1.27-1.26 2 2 0 0 0-.9-.17m-9.2 1.04a2.33 2.33 0 1 0 0 4.65 2.33 2.33 0 0 0 0-4.65m-9.3.45a2.4 2.4 0 0 0-2.17 1.44 2.4 2.4 0 0 0 .5 2.56 2.3 2.3 0 0 0 2.55.51 2.4 2.4 0 0 0 1.45-2.16 2.3 2.3 0 0 0-.67-1.66 2.3 2.3 0 0 0-1.65-.69m-9.3.47a2.33 2.33 0 0 0-1.64 3.97 2.33 2.33 0 1 0 3.28-3.29 2.3 2.3 0 0 0-1.64-.68m-9.31.5a2.33 2.33 0 0 0-2.28 2.8 2.34 2.34 0 0 0 3.17 1.69 2.33 2.33 0 0 0-.89-4.48m-9.3.39a2.4 2.4 0 0 0-2.17 1.43 2.4 2.4 0 0 0 .5 2.56 2.34 2.34 0 0 0 4-1.65 2.34 2.34 0 0 0-2.32-2.34m-9.27-.6a2.33 2.33 0 0 0-2.28 2.79 2.33 2.33 0 0 0 3.17 1.7 2.3 2.3 0 0 0 1.44-2.16 2.34 2.34 0 0 0-2.33-2.32m-9.26-1.03a2.33 2.33 0 1 0 .9 4.48 2.3 2.3 0 0 0 1.44-2.15 2.33 2.33 0 0 0-2.34-2.33m-9.25-1.02a2.33 2.33 0 0 0-2.28 2.78 2.3 2.3 0 0 0 1.83 1.83 2.33 2.33 0 1 0 .45-4.61m-9.25-1.03a2.33 2.33 0 0 0-1.64 3.98 2.3 2.3 0 0 0 2.53.5 2.3 2.3 0 0 0 1.44-2.15 2.35 2.35 0 0 0-2.33-2.33m-9.26-1.02a2.3 2.3 0 0 0-2.14 1.45 2.33 2.33 0 0 0 1.7 3.16 2.33 2.33 0 0 0 2.78-2.28 2.3 2.3 0 0 0-.68-1.65 2.3 2.3 0 0 0-1.66-.68m-9.25-1.03a2.33 2.33 0 1 0 0 4.66 2.33 2.33 0 0 0 0-4.66m-9.12-1.83a2.4 2.4 0 0 0-1.31.4 2.4 2.4 0 0 0-1 2.4 2.3 2.3 0 0 0 1.84 1.85 2.3 2.3 0 0 0 2.4-1.01q.4-.6.4-1.3a2.33 2.33 0 0 0-2.33-2.34m-9.08-2.01a2.33 2.33 0 0 0-1.65 3.97 2.3 2.3 0 0 0 2.54.5 2.3 2.3 0 0 0 1.44-2.15 2.34 2.34 0 0 0-2.33-2.33m-9.1-2.03a2.34 2.34 0 0 0-1.67 4 2.4 2.4 0 0 0 2.55.51 2.3 2.3 0 0 0 1.45-2.17 2.35 2.35 0 0 0-2.32-2.34m-9.14-1.78a2.3 2.3 0 0 0-2.18 1.43 2.4 2.4 0 0 0 .5 2.56 2.4 2.4 0 0 0 2.55.52 2.34 2.34 0 0 0-.87-4.51m-9.2-1.74a2.4 2.4 0 0 0-1.83.58 2.4 2.4 0 0 0-.79 1.75 2.35 2.35 0 0 0 1.64 2.23 2.35 2.35 0 0 0 3.05-2.23 2.34 2.34 0 0 0-2.08-2.33m-9.09-1.74a2.34 2.34 0 0 0-2.32 2.3 2.32 2.32 0 0 0-.25 3.49 2.3 2.3 0 0 0 3.29 0 2.3 2.3 0 0 0 .68-1.65 2.3 2.3 0 0 0 .81-2.6 2.3 2.3 0 0 0-2.2-1.59zm197.15-54.07a2.33 2.33 0 0 0 4.6.46 2.33 2.33 0 1 0-4.6-.46m-4.86 4.74a2.3 2.3 0 0 0-1.45-2.14 2.3 2.3 0 0 0-2.53.51 2.3 2.3 0 0 0-.63 1.2 2.33 2.33 0 0 0 2.28 2.77 2.3 2.3 0 0 0 2.15-1.45q.18-.43.18-.9m-10.18 3.72a2.35 2.35 0 0 0-2.33-2.08 2.34 2.34 0 1 0 2.33 2.08m-11.48-.96a2.34 2.34 0 1 0 2.32 2.32c0-.61-.24-1.2-.68-1.64a2.3 2.3 0 0 0-1.64-.68m-10.52 1.38a2.33 2.33 0 1 0 .89 4.48 2.3 2.3 0 0 0 1.43-2.16 2.33 2.33 0 0 0-2.32-2.32m-9.08.48a2.33 2.33 0 1 0 2.33 2.33 2.34 2.34 0 0 0-2.33-2.33m-10.63-1.09a2.3 2.3 0 0 0-2.18 1.44 2.3 2.3 0 0 0 .5 2.56 2.34 2.34 0 1 0 3.32-3.3 2.4 2.4 0 0 0-1.64-.7m-9.25-.91a2.33 2.33 0 0 0-1.64 3.97 2.3 2.3 0 0 0 2.53.5 2.3 2.3 0 0 0 1.44-2.15 2.33 2.33 0 0 0-2.33-2.32m-9.22-1.3a2.3 2.3 0 0 0-2.17 1.43 2.34 2.34 0 1 0 4.5.89 2.33 2.33 0 0 0-2.33-2.33m-9.21-1.3a2.34 2.34 0 0 0-1.68 4 2.4 2.4 0 0 0 2.55.5 2.3 2.3 0 0 0 1.45-2.16 2.35 2.35 0 0 0-2.32-2.34m-9.19-1.43a2.34 2.34 0 1 0-.03 4.69 2.34 2.34 0 0 0 .03-4.69m-8.87-2.81a2.33 2.33 0 1 0 0 4.66 2.33 2.33 0 0 0 0-4.66m-8.88-2.83a2.33 2.33 0 0 0-1.65 3.98 2.33 2.33 0 0 0 3.98-1.65c0-.61-.25-1.2-.68-1.64a2.3 2.3 0 0 0-1.65-.69m-8.88-2.82a2.34 2.34 0 0 0-1.67 4 2.4 2.4 0 0 0 2.55.51 2.3 2.3 0 0 0 1.45-2.17 2.35 2.35 0 0 0-2.33-2.34m-8.84-2.81a2.33 2.33 0 0 0-1.65 3.98 2.32 2.32 0 0 0 3.58-.36 2.33 2.33 0 0 0-1.93-3.62m-8.9-2.83a2.4 2.4 0 0 0-2.17 1.45 2.4 2.4 0 0 0 .5 2.56 2.35 2.35 0 0 0 4-1.66 2.35 2.35 0 0 0-2.34-2.34m-8.87-2.81a2.33 2.33 0 0 0-1.63 3.98 2.33 2.33 0 0 0 3.8-2.55 2.3 2.3 0 0 0-2.17-1.43m-8.86-2.8a2.34 2.34 0 0 0-2.32 2.8 2.34 2.34 0 1 0 2.32-2.8m-6.32-1.04a2.34 2.34 0 0 0-4.64-.47 2.34 2.34 0 0 0 2.31 2.8 2.33 2.33 0 0 0 2.33-2.33m-8.08-4.62a2.35 2.35 0 0 0-2.33-2.08 2.35 2.35 0 0 0-.96 4.48 2.4 2.4 0 0 0 1.92 0 2.4 2.4 0 0 0 1.27-1.43q.15-.48.1-.97m-8.2-4.38a2.3 2.3 0 0 0-1.44-2.18 2.34 2.34 0 0 0-2.2 4.12q.6.38 1.32.39a2.33 2.33 0 0 0 2.32-2.33m-8.8-3.06a2.33 2.33 0 1 0-3.61 1.94 2.3 2.3 0 0 0 2.93-.3 2.3 2.3 0 0 0 .69-1.64m191.77-64.42a2.34 2.34 0 0 0-2.3 2.8 2.3 2.3 0 0 0 1.84 1.84 2.3 2.3 0 0 0 2.4-1 2.35 2.35 0 0 0-.28-2.95 2.4 2.4 0 0 0-1.66-.69m-9.51-1.85a2.33 2.33 0 1 0 0 4.66 2.33 2.33 0 0 0 0-4.66m-7.85 1.85a2.3 2.3 0 0 0-1.45-2.14 2.33 2.33 0 1 0 1.45 2.14m-10.52 0a2.4 2.4 0 0 0-1.45-2.16 2.34 2.34 0 0 0-3.2 1.7 2.34 2.34 0 1 0 4.65.46m-9.16 1.34a2.33 2.33 0 0 0-2.78-2.29 2.3 2.3 0 0 0-1.83 1.83 2.33 2.33 0 0 0 2.28 2.78 2.34 2.34 0 0 0 2.33-2.32m-9.08 2.04a2.33 2.33 0 1 0-4.65 0 2.33 2.33 0 0 0 4.65 0m-9.07 2.05a2.4 2.4 0 0 0-1.44-2.17 2.34 2.34 0 0 0-3.07 3.06 2.4 2.4 0 0 0 2.18 1.44 2.33 2.33 0 0 0 2.33-2.33m-9.13 1.79a2.4 2.4 0 0 0-1.43-2.18 2.34 2.34 0 0 0-2.21 4.11 2.34 2.34 0 0 0 2.95-.28 2.3 2.3 0 0 0 .7-1.65m-9.24 1.23a2.3 2.3 0 0 0-1.44-2.18 2.4 2.4 0 0 0-2.56.5 2.34 2.34 0 0 0 .37 3.62q.59.38 1.3.38a2.33 2.33 0 0 0 2.33-2.32m-9.23 1.22a2.4 2.4 0 0 0-1.44-2.18 2.34 2.34 0 0 0-2.2 4.12q.6.4 1.31.39a2.33 2.33 0 0 0 2.33-2.33m-9.24 1.23a2.33 2.33 0 1 0-4.65 0 2.33 2.33 0 0 0 4.66 0m-9.24.08a2.33 2.33 0 0 0-2.78-2.29 2.3 2.3 0 0 0-1.83 1.83 2.33 2.33 0 0 0 2.28 2.78 2.33 2.33 0 0 0 2.33-2.32m-9.21-1.18a2.33 2.33 0 0 0-2.79-2.29 2.3 2.3 0 0 0-1.82 1.83 2.33 2.33 0 0 0 2.28 2.78 2.33 2.33 0 0 0 2.33-2.32m-9.31-1.23a2.33 2.33 0 0 0-2.79-2.28 2.3 2.3 0 0 0-1.82 1.83 2.33 2.33 0 0 0 2.28 2.78 2.33 2.33 0 0 0 2.33-2.33m-9.13-1.46a2.3 2.3 0 0 0-1.44-2.18 2.34 2.34 0 1 0-.89 4.5 2.33 2.33 0 0 0 2.33-2.32m-11.53.89a2.35 2.35 0 1 0 .03-4.7 2.35 2.35 0 0 0-.03 4.7m-9.2-1.4a2.34 2.34 0 0 0 1.68-4 2.34 2.34 0 0 0-3.61.35 2.35 2.35 0 0 0 1.93 3.65m-6.98-2.62a2.33 2.33 0 1 0-4.66 0 2.33 2.33 0 0 0 4.66 0m-9.3-.28a2.4 2.4 0 0 0-1.44-2.18 2.34 2.34 0 0 0-2.2 4.12q.6.38 1.32.38a2.33 2.33 0 0 0 2.32-2.32m-11.63 2.05a2.3 2.3 0 0 0 2.14-1.45 2.33 2.33 0 0 0-1.71-3.17 2.3 2.3 0 0 0-2.39 1 2.3 2.3 0 0 0 .3 2.94 2.3 2.3 0 0 0 1.66.67m-6.6.04a2.4 2.4 0 0 0-1.45-2.17 2.35 2.35 0 1 0 1.45 2.17m-8.86 2.88a2.33 2.33 0 1 0-4.65 0 2.33 2.33 0 0 0 4.65 0"/><path fill="#E31E24" d="M271.2 137.9v17.1h-3.1v-13.49l-4.12 1.36v-2.5l6.87-2.48zm-69.41 37.66v2.44h-11.56v-2.09l5.54-5.98a19 19 0 0 0 1.37-1.72q.5-.72.72-1.3.22-.6.22-1.14 0-.79-.28-1.38a2 2 0 0 0-.82-.92q-.53-.33-1.3-.33-.86 0-1.46.4a2.5 2.5 0 0 0-.92 1.08q-.3.69-.3 1.58h-3.1q0-1.51.7-2.76t2-2 3.13-.75q1.75 0 2.97.59 1.22.57 1.86 1.64t.63 2.54q0 .82-.27 1.62a8 8 0 0 1-.76 1.58 14 14 0 0 1-1.15 1.57 28 28 0 0 1-1.49 1.63l-3.33 3.7zm138.83-86.46h1.74q.93 0 1.53-.32.6-.33.9-.89t.3-1.32q0-.74-.27-1.28a2 2 0 0 0-.82-.85q-.53-.3-1.38-.3-.68 0-1.25.27t-.9.77-.33 1.19h-3.1q0-1.38.72-2.43.74-1.05 1.99-1.65t2.8-.6q1.69 0 2.95.56 1.28.55 1.98 1.63.72 1.08.72 2.68 0 .76-.36 1.52-.35.75-1.05 1.36-.68.6-1.67.97-.99.36-2.26.36h-2.24zm0 2.39v-1.65h2.24q1.44 0 2.5.34 1.06.32 1.75.93.7.6 1.02 1.4.34.8.34 1.7 0 1.2-.45 2.14a4.4 4.4 0 0 1-1.25 1.57 6 6 0 0 1-1.87.99 8 8 0 0 1-2.34.32 8 8 0 0 1-2.12-.29 6 6 0 0 1-1.84-.9 4.5 4.5 0 0 1-1.3-1.52q-.48-.93-.48-2.15h3.1q0 .7.35 1.25t.96.87a3 3 0 0 0 1.4.3q.85 0 1.46-.3a2.2 2.2 0 0 0 .94-.89q.33-.59.33-1.4 0-.95-.36-1.55a2 2 0 0 0-1.04-.88q-.67-.28-1.6-.28zm-166.54 6.29v2.44h-12.3l-.12-1.88 7.23-11.4h2.47l-2.67 4.53-3.88 6.3zm-2.03-10.84v17.06h-3.1v-17.06zm-100.75 76.2-2.47-.59.95-8.61h9.38v2.56h-6.82l-.44 3.99q.36-.23 1.05-.45a5 5 0 0 1 1.59-.23q1.21 0 2.17.4a4.4 4.4 0 0 1 1.63 1.12q.68.74 1.02 1.8.35 1.06.35 2.4 0 1.17-.35 2.2a5 5 0 0 1-1.04 1.82q-.7.78-1.77 1.24-1.06.44-2.5.44a7 7 0 0 1-2.1-.31 6 6 0 0 1-1.8-.95 5 5 0 0 1-1.28-1.55q-.46-.91-.51-2.1h3.06q.08.79.42 1.34t.89.84q.56.3 1.3.3.67 0 1.15-.25.5-.26.8-.71t.48-1.08a6 6 0 0 0 .15-1.36q0-.72-.18-1.3a3 3 0 0 0-.54-1.03 2.4 2.4 0 0 0-.9-.67q-.55-.24-1.28-.24-.97 0-1.5.3a4 4 0 0 0-.9.69m256.53-147.35h.43v2.5h-.2q-1.42 0-2.5.43a5 5 0 0 0-1.78 1.21 5 5 0 0 0-1.07 1.84 7 7 0 0 0-.36 2.31v2.77q0 .97.2 1.71.2.73.57 1.23.38.5.87.74.5.24 1.1.24t1.08-.24.82-.7q.35-.45.53-1.06.19-.6.19-1.34 0-.7-.18-1.32a3 3 0 0 0-.52-1.07 2 2 0 0 0-.84-.71 2.4 2.4 0 0 0-1.12-.26q-.82 0-1.47.39-.64.37-1.02.98a3 3 0 0 0-.41 1.3l-1.04-.52q.06-1 .42-1.83.37-.83 1-1.45a4 4 0 0 1 1.48-.96 5 5 0 0 1 1.93-.34q1.22 0 2.13.46t1.51 1.26.91 1.84.3 2.18q0 1.23-.39 2.3a5 5 0 0 1-1.12 1.86 5 5 0 0 1-1.79 1.24q-1.04.44-2.34.44-1.37 0-2.46-.51a5.5 5.5 0 0 1-1.85-1.43 7 7 0 0 1-1.19-2.13 8 8 0 0 1-.4-2.64v-1.24q0-2 .54-3.73.55-1.72 1.63-3.01a7.4 7.4 0 0 1 2.7-2.02q1.6-.72 3.71-.72m142.85 80.14v1.68l-6.7 15.38h-3.27l6.7-14.62h-8.67v-2.44zm55.86 138.4q0 1.59-.75 2.7-.74 1.08-2.03 1.64-1.27.55-2.9.55t-2.92-.55-2.05-1.65-.75-2.7q0-1.06.42-1.93a4.5 4.5 0 0 1 1.2-1.49 5 5 0 0 1 1.8-.96 7 7 0 0 1 2.27-.34q1.64 0 2.93.6 1.3.59 2.04 1.65t.74 2.48m-3.12-.2q0-.81-.32-1.41a2.2 2.2 0 0 0-.9-.94q-.6-.32-1.37-.32t-1.37.32a2.3 2.3 0 0 0-.9.94q-.32.6-.32 1.42 0 .83.32 1.43.33.59.91.9.6.32 1.39.32.8 0 1.37-.32a2 2 0 0 0 .88-.9q.31-.6.31-1.43m2.75-7.71q0 1.29-.68 2.3-.68.99-1.9 1.55-1.19.57-2.73.57t-2.77-.57q-1.2-.56-1.9-1.56-.68-1-.68-2.3 0-1.52.7-2.57a4.4 4.4 0 0 1 1.88-1.62q1.2-.55 2.74-.55 1.56 0 2.77.55 1.2.55 1.89 1.62.68 1.05.68 2.58m-3.1.13q0-.73-.27-1.27a2 2 0 0 0-.77-.85q-.5-.3-1.2-.3-.68 0-1.17.28a2 2 0 0 0-.76.85q-.27.54-.27 1.29 0 .74.27 1.29t.76.86q.5.3 1.2.3t1.18-.3a2 2 0 0 0 .76-.87q.27-.55.27-1.28m-144.52-1.97h.23q1.5 0 2.55-.39t1.7-1.09a4 4 0 0 0 .95-1.7 8 8 0 0 0 .3-2.2v-3.1q0-.98-.2-1.72-.2-.75-.56-1.25a2.3 2.3 0 0 0-.83-.75 2 2 0 0 0-1.03-.26q-.61 0-1.08.28a2.5 2.5 0 0 0-.8.78 4 4 0 0 0-.49 1.1 5 5 0 0 0-.16 1.34q0 .69.15 1.3.16.63.48 1.1.33.49.82.77a2.4 2.4 0 0 0 1.15.27 3 3 0 0 0 1.12-.24q.52-.24.9-.64.37-.41.57-.9.21-.5.23-1.02l1.1.47q0 .85-.37 1.68a5 5 0 0 1-1 1.51 5 5 0 0 1-1.47 1.08 4 4 0 0 1-1.82.4q-1.2 0-2.13-.44a4.4 4.4 0 0 1-1.56-1.23 6 6 0 0 1-.94-1.83 8 8 0 0 1-.31-2.23q0-1.23.38-2.3a6 6 0 0 1 1.12-1.92 5 5 0 0 1 1.78-1.3q1.04-.48 2.34-.48 1.35 0 2.4.53 1.06.53 1.8 1.46.73.93 1.12 2.2.4 1.26.4 2.76v1.09q0 1.58-.32 3a10 10 0 0 1-.97 2.59 7 7 0 0 1-1.68 2.03q-1 .85-2.41 1.32-1.4.46-3.19.46h-.27zm-183.36-3.7v17.1h-3.1v-13.49l-4.12 1.36v-2.5l6.87-2.48zm17.04 7.1v2.87q0 1.97-.4 3.37t-1.15 2.28a4.6 4.6 0 0 1-1.8 1.3q-1.03.41-2.31.41-1.02 0-1.9-.25a5 5 0 0 1-1.58-.82 5 5 0 0 1-1.2-1.43q-.49-.87-.76-2.08-.26-1.2-.26-2.78v-2.87q0-1.97.4-3.35t1.16-2.26a4.4 4.4 0 0 1 1.8-1.28q1.04-.4 2.32-.4 1.03 0 1.9.25a5 5 0 0 1 1.56.81q.7.54 1.2 1.4t.75 2.07q.27 1.2.27 2.76m-3.1 3.3v-3.73q0-.98-.11-1.71a5 5 0 0 0-.32-1.26 3 3 0 0 0-.53-.83 2 2 0 0 0-.72-.48 3 3 0 0 0-.9-.15q-.61 0-1.1.25a2 2 0 0 0-.8.75q-.33.51-.5 1.37-.17.84-.17 2.06v3.73q0 .98.1 1.72.12.74.33 1.27.22.52.53.86t.73.5q.4.15.9.15.62 0 1.09-.25.48-.24.8-.77.33-.54.5-1.4.18-.86.18-2.08m201.05-79.4v17.1h-3.1v-13.49l-4.12 1.36v-2.5l6.87-2.48zm13.71 0v17.1h-3.1v-13.49l-4.12 1.36v-2.5l6.87-2.48zm98.29-6v17.1h-3.1v-13.49l-4.12 1.36v-2.5l6.87-2.48zm17.3 14.66v2.44h-11.56v-2.09l5.54-5.98a19 19 0 0 0 1.38-1.72q.5-.72.71-1.3.22-.6.22-1.14 0-.79-.28-1.38a2 2 0 0 0-.82-.92q-.53-.33-1.3-.33-.85 0-1.46.4a2.5 2.5 0 0 0-.92 1.08q-.3.69-.3 1.58h-3.1q0-1.51.7-2.76t2.01-2 3.12-.75q1.76 0 2.97.59 1.22.57 1.86 1.64t.63 2.54q0 .82-.27 1.62a8 8 0 0 1-.76 1.58 14 14 0 0 1-1.15 1.57 27 27 0 0 1-1.49 1.63l-3.33 3.7z"/></symbol><use xlink:href="#sprite-pig-number" width="588" height="319" y="272"/><view id="sprite-pig-number-view" viewBox="0 272 588 319"/><symbol id="sprite-pig" fill="none" viewBox="0 0 40 40"><path fill="#fff" d="M8.92 19.4c-.77 0-.77 1.2 0 1.2s.78-1.2 0-1.2"/><path fill="#fff" d="M37.9 9.72a1.66 1.66 0 0 0-1.66-1.2 1.4 1.4 0 0 0-1.14.62c-.3.43-.28.97-.21 1.46.04.31.46.5.74.42.34-.11.46-.4.42-.74-.05-.4.14-.55.32-.56.49 0 .7.84.18 1.42-.3.33-.78.64-2.23.05a8 8 0 0 0-3.73-2.47c-3.5-1.2-7.4-1.1-11.01-.48-2.05.35-4.04.91-5.88 1.9a14 14 0 0 0-3.1 2.3c-.42-.61-2.95-1.11-3.56-2.28-.2-.38-.95-.17-1 .26-.08.52-.05 1.9.05 2.62q-.7-.25-1.27-.74c-.34-.31-1.08-.13-1.02.42a7 7 0 0 0 1.32 3.5c.52.72 1.15 1.51 1.4 2.38-.11.56-.6 1-1.5 1.22-.4.1-1.71-.01-2.02-.08-.34-.07-.5.19-.58.44-.35 1.12-.62 2.3-.17 3.44.19.49.55.86 1.08.98.51.1 1.1-.22 1.57.04.32.18.7.55 1.1.74a5 5 0 0 0 2.13.5c.36 0 .67-.03 1 .15.53.28.48.9.5 1.33.01.5-.27 3.15-.44 4-.07.38.17.76.58.76h2.26c.25 0 .53-.18.58-.44.11-.53.28-2.02.66-2.52.21.77.2 1.58.17 2.36 0 .33.29.6.6.6.58 0 1.21.1 1.77-.07.59-.18 1-.67 1.3-1.18.18-.29.6-1.67.77-1.76.35-.18 5.21-.33 6.43-.4-.36.89-.99 1.63-1.45 2.49-.2.4.05.9.52.9.75.01 1.52.07 2.26.02.64-.05 1.38-.28 1.48-.98.1-.65.6-2.18 1.54-2.55.5.89-.06 2.2-.08 2.94 0 .32.29.57.6.6.78.06 1.63.15 2.42-.02.85-.17 1.23-.94 1.58-1.66.66-1.35.93-2.75.99-4.23.02-.6.46-1.54.68-1.96.43-.82.9-1.62 1.2-2.5.63-1.88.62-3.91.28-5.84-.2-1.14-.51-2.23-1.03-3.24.92.08 1.85-.18 2.36-1.04.33-.55.44-1.3.24-1.92m-30.67 2.25c.47.58 2.42 1.01 2.55 1.33q-.3.34-.56.7a20 20 0 0 0-1.96-.58c.03-.44-.03-1.4-.03-1.46zm4.3 18.96h-1.06a29 29 0 0 0 .37-3.52q.36.23.74.4c.32.14.64.21.91.34-.6.77-.78 1.82-.95 2.78zm15-1.89c-.28.4-.4.9-.51 1.38-.04.17-.05.47-.46.5q-.55.04-1.12.01.23-.31.43-.64.49-.78.74-1.65l1.32-.08q-.21.22-.4.48m8.71-9.06a9 9 0 0 1-.84 2.57c-.38.74-.8 1.45-1.11 2.22-.46 1.18-.36 2.47-.64 3.7-.21.93-.83 2.22-1.13 2.42-.25.17-1.48.08-1.7.07q.06-.75.16-1.5c.05-.47.05-.96-.2-1.38-.54-.92-1.62-.78-2.54-.74-1.64.06-8.77.54-9.26.57-.38.03-.74.07-1.01.36-.29.3-.36.77-.5 1.15-.15.41-.33.84-.62 1.18-.3.37-.75.39-1.2.36.02-1.2-.09-2.63-.94-3.47-.47-.46-1.08-.53-1.66-.78a6 6 0 0 1-1.63-1.13c-.51-.46-.97-.87-1.7-.91-.78-.05-1.46 0-2.2-.35-.4-.2-.67-.5-1.04-.72-.56-.32-1.1-.2-1.7-.17-.47.03-.51-.45-.56-.84-.07-.53.07-1.07.22-1.6 1.24.12 2.64.17 3.54-.81.5-.56.82-1.23.74-1.74-.14-.98-.87-1.84-1.43-2.64a8 8 0 0 1-1-1.8c.81.36 1.7.57 2.56.81.64.18 1.34.36 1.76.91.41.56.7 1.34.51 2.03-.2.74.95 1.06 1.16.32a3.5 3.5 0 0 0-.4-2.56 3 3 0 0 0-.66-.86 14 14 0 0 1 8.18-4.96c3.34-.75 6.92-.99 10.29-.25 1.35.3 2.82.73 3.87 1.67a7.4 7.4 0 0 1 2.25 3.57c.48 1.7.72 3.55.43 5.31z"/></symbol><use xlink:href="#sprite-pig" width="40" height="40" y="591"/><view id="sprite-pig-view" viewBox="0 591 40 40"/><symbol id="sprite-rabbit" fill="none" viewBox="0 0 61 50"><path fill="#fff" fill-rule="evenodd" d="M32.86 2.29c3.42 0 7.64 4.17 11.03 7.53a76 76 0 0 0 2.92 2.79q.14.12.31.19l4.35 1.68c1.96.76 5.53 4.17 6.47 7.33q.48 1.66-.21 2.62c-1.28 1.77-5.32 1.71-7.73.42-.73-.4-1.26-.23-1.57-.01-.73.52-.6 1.39-.43 2.6.35 2.37.94 6.35-3.33 8.81l-1.23.72a1.6 1.6 0 0 0-.76 1.05c-.1.44 0 .92.27 1.29l6.15 8.4h-2.54a.5.5 0 0 1-.43-.21l-9.18-11.1c-.82-.99-2.5-1.16-3.28 0-2.01 3-4.66 4.38-8.57 4.47-1 .02-1.72.84-1.7 1.94 0 1.15.8 2.02 1.83 2.02l9.53.01-.02 2.87h-23q-.9 0-1.53-.63c-.4-.4-2.46-2.4-3.98-2.55a4.34 4.34 0 0 1-3.86-4.27c0-2.1 1.35-3.9 3.3-4.34a2.66 2.66 0 0 0 2.06-2.57 16.1 16.1 0 0 1 16.02-15.84l1.2-.03c1.39-.03 3.3-.07 4.27.26l1.2.45c1.95.74 4.16 1.59 6.34 1l2.54-.67a1.6 1.6 0 0 0 1.19-1.56 1.6 1.6 0 0 0-1.22-1.54c-6.65-1.64-11.8-5.06-15.33-10.16h5.65c3.82.01 7.99 3.77 11.67 7.08q1.35 1.24 2.75 2.42a1.06 1.06 0 0 0 1.36-1.62q-1.37-1.16-2.7-2.37c-3.93-3.55-8.4-7.56-12.98-7.63a4 4 0 0 1-1.69-.86zm18.45 14.08a1.3 1.3 0 1 0 0 2.6 1.3 1.3 0 0 0 0-2.6m-5.93-8.06c-3.67-3.63-8.23-8.14-12.52-8.14h-7.26a1.06 1.06 0 0 0-.85 1.68q.52.72 1.06 1.3h-3.8a1.06 1.06 0 0 0-.92 1.59c3.52 5.98 8.84 10.09 15.82 12.23l-.7.18c-1.51.42-3.3-.28-5.04-.94l-1.26-.46c-1.34-.47-3.38-.42-5.01-.38l-1.15.02a18.2 18.2 0 0 0-18.14 17.94.54.54 0 0 1-.43.53 6.5 6.5 0 0 0-4.93 6.4 6.4 6.4 0 0 0 5.77 6.38c.4.04 1.64.88 2.7 1.94a4.2 4.2 0 0 0 3.02 1.25h23a2.14 2.14 0 0 0 2.14-2.13v-2.85a2.14 2.14 0 0 0-2.14-2.14h-6.88a11 11 0 0 0 7.46-4.95l9.18 11.09a2.6 2.6 0 0 0 2.07.98h3.55c.61 0 1.16-.34 1.43-.9a1.6 1.6 0 0 0-.15-1.65l-6.4-8.77.73-.42c5.46-3.15 4.76-8.32 4.38-10.88 3.25 1.22 7.57.9 9.34-1.54.85-1.18 1.03-2.72.52-4.46-1.07-3.63-5.03-7.66-7.73-8.7l-4.17-1.62c-.82-.72-1.72-1.62-2.7-2.58" clip-rule="evenodd"/></symbol><use xlink:href="#sprite-rabbit" width="61" height="50" y="631"/><view id="sprite-rabbit-view" viewBox="0 631 61 50"/><symbol id="sprite-turkey" fill="none" viewBox="0 0 61 60"><mask id="a" width="62" height="62" x="-.75" y="-.933" fill="#000" maskUnits="userSpaceOnUse"><path fill="#fff" d="M-.75-.93h62v62h-62z"/><path d="M57.43 34.14c4.17-1.89 3.57-8.22-.87-9.3 3.18-4.02.37-10.6-5.03-10.05 1.15-2.43.51-5.64-1.72-7.25a4.77 4.77 0 0 0-7 1.7l-5.69 11.32c-4.69-1.21-9.81-1.26-14.3.73-2.94-.88-1.4-5.73-1.18-7.76.13-1.1-1.61-1.34-1.74-.2-.32 2.72-1.6 6.9 1.03 8.93-4 2.41-6.58 6.84-4.85 11.52 1.4 3.76 5.08 6.16 9.87 6.4 3.1.16 6.19-.53 9.01-1.8 1-.45.33-2.08-.72-1.6a18 18 0 0 1-8.2 1.64c-3.47-.18-7.03-1.8-8.31-5.25-1.8-4.88 2.05-8.76 6.22-10.46 2.7-1.1 7.2-2.03 13.4-.26 3.04.87 5.9 3.14 7.6 5.8a34 34 0 0 1-6.26 5.93c-.89.64.08 2.11 1.03 1.43a35 35 0 0 0 6.14-5.7 14.6 14.6 0 0 1 .77 9.9 11.4 11.4 0 0 1-11.6 8.5.9.9 0 0 0-.82.45l-2.41 4.5h-2.1c-1.88-3.44-6.1-5.25-9.66-6.35-5.6-2.54-9.28-5.8-10.92-9.69-2.41-5.7.1-11.28 1.17-13.66q.51-1.16 1.1-2.26c1.22-2.21 2.88-5.24 1.95-7.3q-.6-1.3-2.28-1.67c-1.64-.37-3.26-1.44-3.75-3.12-.54-1.85.48-3.21 1.4-4.68a7.4 7.4 0 0 1 6.18-2.68c2.44.24 4.97 1.22 5.23 6.73.05 1.1 1.8 1.07 1.75-.08-.12-2.72-.75-4.71-1.92-6.1-1.13-1.34-2.73-2.1-4.9-2.3a9.2 9.2 0 0 0-7.75 3.38c-.45.46-4.96 5.12-6.93 8.4a.89.89 0 0 0 .87 1.33l6.08-.78c1.31 1.94-.68 4.26-2.04 5.5a5.4 5.4 0 0 0-1.46 5.98 4.2 4.2 0 0 0 3.4 2.75c-.91 3.01-1.47 7.1.28 11.24 1.8 4.26 5.68 7.78 11.56 10.49l1.82 6.03c.18.58.82.68 1.33.62l-.48 3.13h-4.25c-1.1 0-1.15 1.76 0 1.76h14.25c1.1 0 1.15-1.76 0-1.76h-.7l.53-3.16c.5.06 1.26.06 1.54-.46l2.41-4.49a15 15 0 0 0 4.98-.96c1.33 1.65 2.62 3.91 5 3.91 2.25 0 4.1-1.97 3.96-4.2 3.63.7 6.64-3.22 5.11-6.56 4-.27 5.82-5.38 2.87-8.11m-52.04-25.97a5.4 5.4 0 0 0 .68 2.64l-3.13.4a51 51 0 0 1 2.45-3.04m2.36 16.76c-1.02.02-1.88-.61-2.3-1.66a3.6 3.6 0 0 1 1.01-4.03q3.05-2.8 3.04-5.46c0-.06 1.99.4 2.24.95.56 1.25-1.03 4.16-1.9 5.72-.22.4-1.87 4.47-2.09 4.48m13.42 24.37q.7.28 1.4.53 1.45.54 2.46 1.18l-.89 2.28h-1.76zm8.07 8.87h-5.73l.48-3.12h.75a.9.9 0 0 0 .82-.56l.94-2.4a7 7 0 0 1 1.82 2.35.9.9 0 0 0 .83.58h.62zm29.3-28.66a3.2 3.2 0 0 1-2.98 3.3l-6.88.37a16 16 0 0 0-1.09-3.7l2.9-1.23 3.53-1.49c2.03-.9 4.47.46 4.53 2.75m-14.17-19.47c2.14-4.01 8.32 1.12 4.9 4.98l-7.02 7.96a15 15 0 0 0-3.43-1.89zm-.75 14.04 5.5-6.21c4.45-5.05 10.72 4.51 4.21 7.27l-6.54 2.76-.03-.04v-.01l-.55-.89a16 16 0 0 0-2.58-2.88m4.04 25.3c-.28 1.8-2.67 2.51-3.84 1.07l-1.7-2.1c1.11-.6 2.26-1.43 3.3-2.59l1.7 1.85a2.1 2.1 0 0 1 .54 1.77m4.85-3.34a2.86 2.86 0 0 1-4.34.12l-1.66-1.81a14 14 0 0 0 1.78-4.04l3.06 1.18a2.9 2.9 0 0 1 1.16 4.55m4.46-7.47a2.94 2.94 0 0 1-3.79 1.74l-1.2-.46-3.31-1.28q.3-1.8.19-3.63l5.22-.28a2.93 2.93 0 0 1 2.88 3.91"/></mask><path fill="#fff" d="M57.43 34.14c4.17-1.89 3.57-8.22-.87-9.3 3.18-4.02.37-10.6-5.03-10.05 1.15-2.43.51-5.64-1.72-7.25a4.77 4.77 0 0 0-7 1.7l-5.69 11.32c-4.69-1.21-9.81-1.26-14.3.73-2.94-.88-1.4-5.73-1.18-7.76.13-1.1-1.61-1.34-1.74-.2-.32 2.72-1.6 6.9 1.03 8.93-4 2.41-6.58 6.84-4.85 11.52 1.4 3.76 5.08 6.16 9.87 6.4 3.1.16 6.19-.53 9.01-1.8 1-.45.33-2.08-.72-1.6a18 18 0 0 1-8.2 1.64c-3.47-.18-7.03-1.8-8.31-5.25-1.8-4.88 2.05-8.76 6.22-10.46 2.7-1.1 7.2-2.03 13.4-.26 3.04.87 5.9 3.14 7.6 5.8a34 34 0 0 1-6.26 5.93c-.89.64.08 2.11 1.03 1.43a35 35 0 0 0 6.14-5.7 14.6 14.6 0 0 1 .77 9.9 11.4 11.4 0 0 1-11.6 8.5.9.9 0 0 0-.82.45l-2.41 4.5h-2.1c-1.88-3.44-6.1-5.25-9.66-6.35-5.6-2.54-9.28-5.8-10.92-9.69-2.41-5.7.1-11.28 1.17-13.66q.51-1.16 1.1-2.26c1.22-2.21 2.88-5.24 1.95-7.3q-.6-1.3-2.28-1.67c-1.64-.37-3.26-1.44-3.75-3.12-.54-1.85.48-3.21 1.4-4.68a7.4 7.4 0 0 1 6.18-2.68c2.44.24 4.97 1.22 5.23 6.73.05 1.1 1.8 1.07 1.75-.08-.12-2.72-.75-4.71-1.92-6.1-1.13-1.34-2.73-2.1-4.9-2.3a9.2 9.2 0 0 0-7.75 3.38c-.45.46-4.96 5.12-6.93 8.4a.89.89 0 0 0 .87 1.33l6.08-.78c1.31 1.94-.68 4.26-2.04 5.5a5.4 5.4 0 0 0-1.46 5.98 4.2 4.2 0 0 0 3.4 2.75c-.91 3.01-1.47 7.1.28 11.24 1.8 4.26 5.68 7.78 11.56 10.49l1.82 6.03c.18.58.82.68 1.33.62l-.48 3.13h-4.25c-1.1 0-1.15 1.76 0 1.76h14.25c1.1 0 1.15-1.76 0-1.76h-.7l.53-3.16c.5.06 1.26.06 1.54-.46l2.41-4.49a15 15 0 0 0 4.98-.96c1.33 1.65 2.62 3.91 5 3.91 2.25 0 4.1-1.97 3.96-4.2 3.63.7 6.64-3.22 5.11-6.56 4-.27 5.82-5.38 2.87-8.11m-52.04-25.97a5.4 5.4 0 0 0 .68 2.64l-3.13.4a51 51 0 0 1 2.45-3.04m2.36 16.76c-1.02.02-1.88-.61-2.3-1.66a3.6 3.6 0 0 1 1.01-4.03q3.05-2.8 3.04-5.46c0-.06 1.99.4 2.24.95.56 1.25-1.03 4.16-1.9 5.72-.22.4-1.87 4.47-2.09 4.48m13.42 24.37q.7.28 1.4.53 1.45.54 2.46 1.18l-.89 2.28h-1.76zm8.07 8.87h-5.73l.48-3.12h.75a.9.9 0 0 0 .82-.56l.94-2.4a7 7 0 0 1 1.82 2.35.9.9 0 0 0 .83.58h.62zm29.3-28.66a3.2 3.2 0 0 1-2.98 3.3l-6.88.37a16 16 0 0 0-1.09-3.7l2.9-1.23 3.53-1.49c2.03-.9 4.47.46 4.53 2.75m-14.17-19.47c2.14-4.01 8.32 1.12 4.9 4.98l-7.02 7.96a15 15 0 0 0-3.43-1.89zm-.75 14.04 5.5-6.21c4.45-5.05 10.72 4.51 4.21 7.27l-6.54 2.76-.03-.04v-.01l-.55-.89a16 16 0 0 0-2.58-2.88m4.04 25.3c-.28 1.8-2.67 2.51-3.84 1.07l-1.7-2.1c1.11-.6 2.26-1.43 3.3-2.59l1.7 1.85a2.1 2.1 0 0 1 .54 1.77m4.85-3.34a2.86 2.86 0 0 1-4.34.12l-1.66-1.81a14 14 0 0 0 1.78-4.04l3.06 1.18a2.9 2.9 0 0 1 1.16 4.55m4.46-7.47a2.94 2.94 0 0 1-3.79 1.74l-1.2-.46-3.31-1.28q.3-1.8.19-3.63l5.22-.28a2.93 2.93 0 0 1 2.88 3.91"/><path stroke="#fff" stroke-width=".4" d="M57.43 34.14c4.17-1.89 3.57-8.22-.87-9.3 3.18-4.02.37-10.6-5.03-10.05 1.15-2.43.51-5.64-1.72-7.25a4.77 4.77 0 0 0-7 1.7l-5.69 11.32c-4.69-1.21-9.81-1.26-14.3.73-2.94-.88-1.4-5.73-1.18-7.76.13-1.1-1.61-1.34-1.74-.2-.32 2.72-1.6 6.9 1.03 8.93-4 2.41-6.58 6.84-4.85 11.52 1.4 3.76 5.08 6.16 9.87 6.4 3.1.16 6.19-.53 9.01-1.8 1-.45.33-2.08-.72-1.6a18 18 0 0 1-8.2 1.64c-3.47-.18-7.03-1.8-8.31-5.25-1.8-4.88 2.05-8.76 6.22-10.46 2.7-1.1 7.2-2.03 13.4-.26 3.04.87 5.9 3.14 7.6 5.8a34 34 0 0 1-6.26 5.93c-.89.64.08 2.11 1.03 1.43a35 35 0 0 0 6.14-5.7 14.6 14.6 0 0 1 .77 9.9 11.4 11.4 0 0 1-11.6 8.5.9.9 0 0 0-.82.45l-2.41 4.5h-2.1c-1.88-3.44-6.1-5.25-9.66-6.35-5.6-2.54-9.28-5.8-10.92-9.69-2.41-5.7.1-11.28 1.17-13.66q.51-1.16 1.1-2.26c1.22-2.21 2.88-5.24 1.95-7.3q-.6-1.3-2.28-1.67c-1.64-.37-3.26-1.44-3.75-3.12-.54-1.85.48-3.21 1.4-4.68a7.4 7.4 0 0 1 6.18-2.68c2.44.24 4.97 1.22 5.23 6.73.05 1.1 1.8 1.07 1.75-.08-.12-2.72-.75-4.71-1.92-6.1-1.13-1.34-2.73-2.1-4.9-2.3a9.2 9.2 0 0 0-7.75 3.38c-.45.46-4.96 5.12-6.93 8.4a.89.89 0 0 0 .87 1.33l6.08-.78c1.31 1.94-.68 4.26-2.04 5.5a5.4 5.4 0 0 0-1.46 5.98 4.2 4.2 0 0 0 3.4 2.75c-.91 3.01-1.47 7.1.28 11.24 1.8 4.26 5.68 7.78 11.56 10.49l1.82 6.03c.18.58.82.68 1.33.62l-.48 3.13h-4.25c-1.1 0-1.15 1.76 0 1.76h14.25c1.1 0 1.15-1.76 0-1.76h-.7l.53-3.16c.5.06 1.26.06 1.54-.46l2.41-4.49a15 15 0 0 0 4.98-.96c1.33 1.65 2.62 3.91 5 3.91 2.25 0 4.1-1.97 3.96-4.2 3.63.7 6.64-3.22 5.11-6.56 4-.27 5.82-5.38 2.87-8.11Zm-52.04-25.97a5.4 5.4 0 0 0 .68 2.64l-3.13.4a51 51 0 0 1 2.45-3.04Zm2.36 16.76c-1.02.02-1.88-.61-2.3-1.66a3.6 3.6 0 0 1 1.01-4.03q3.05-2.8 3.04-5.46c0-.06 1.99.4 2.24.95.56 1.25-1.03 4.16-1.9 5.72-.22.4-1.87 4.47-2.09 4.48Zm13.42 24.37q.7.28 1.4.53 1.45.54 2.46 1.18l-.89 2.28h-1.76zm8.07 8.87h-5.73l.48-3.12h.75a.9.9 0 0 0 .82-.56l.94-2.4a7 7 0 0 1 1.82 2.35.9.9 0 0 0 .83.58h.62zm29.3-28.66a3.2 3.2 0 0 1-2.98 3.3l-6.88.37a16 16 0 0 0-1.09-3.7l2.9-1.23 3.53-1.49c2.03-.9 4.47.46 4.53 2.75Zm-14.16-19.47c2.14-4.01 8.32 1.12 4.9 4.98l-7.02 7.96a15 15 0 0 0-3.43-1.89zm-.75 14.04 5.5-6.21c4.45-5.05 10.72 4.51 4.21 7.27l-6.54 2.76-.03-.04v-.01l-.55-.89a16 16 0 0 0-2.58-2.88Zm4.05 25.3c-.28 1.8-2.67 2.51-3.84 1.07l-1.7-2.1c1.11-.6 2.26-1.43 3.3-2.59l1.7 1.85a2.1 2.1 0 0 1 .54 1.77Zm4.85-3.34a2.86 2.86 0 0 1-4.34.12l-1.66-1.81a14 14 0 0 0 1.78-4.04l3.06 1.18a2.9 2.9 0 0 1 1.16 4.55Zm4.45-7.47a2.94 2.94 0 0 1-3.78 1.74l-1.2-.46-3.31-1.28q.3-1.8.19-3.63l5.22-.28a2.93 2.93 0 0 1 2.88 3.91Z" mask="url(#a)"/><path fill="#fff" stroke="#fff" stroke-width=".2" d="M15.15 5.87a.98.98 0 0 1-.7 1.67v-.1a1 1 0 0 1-.61-.26zm0 0a2.83 2.83 0 0 0-4 0 1 1 0 0 0-.2.31m4.2-.31-4.2.31m.2 1.07.07-.07zm0 0a1 1 0 0 1-.2-.32m.2.32-.2-.32m0-.75a1 1 0 0 0-.08.38m.07-.38-.07.38m0 0q0 .2.07.37m-.07-.37.07.37m1.6.32a.87.87 0 0 1 1.23 0l1.31-1.31a2.73 2.73 0 0 0-3.85 0 .88.88 0 1 0 1.24 1.24z"/></symbol><use xlink:href="#sprite-turkey" width="61" height="60" y="681"/><view id="sprite-turkey-view" viewBox="0 681 61 60"/></svg>